<svg width="22" height="22" viewBox="0 0 22 22" fill="none" xmlns="http://www.w3.org/2000/svg">
<path d="M11 22C4.92487 22 0 17.0751 0 11C0 4.92487 4.92487 0 11 0C17.0751 0 22 4.92487 22 11C22 17.0751 17.0751 22 11 22Z" fill="#9AF4EF"/>
<path d="M4.49556 2.13052C9.36461 3.43045 12.9518 7.86964 12.9518 13.1484C12.9518 16.6145 11.4036 19.717 8.96341 21.8087C3.86177 20.8532 0 16.3789 0 11C0 7.359 1.77014 4.13261 4.49556 2.13052Z" fill="#D7F9FE"/>
<path d="M12.7617 9.19677C13.245 8.79695 13.9434 9.15234 14.3193 8.83008C14.8219 8.39936 14.936 8.28669 15.3949 8.16905C15.8138 8.06162 16.1932 8.30466 16.5967 7.7666C16.8867 7.37988 17.1603 7.41903 17.5103 7.50496C17.8603 7.5909 17.9679 7.49577 18.439 7.10596C18.7505 6.84814 19.0352 6.75684 19.6797 6.77832C20.2233 6.79645 20.6508 6.67597 21.0482 6.52506C21.4303 7.38177 21.7073 8.29529 21.8601 9.25091C20.3033 9.41432 19.8354 9.3433 19.2285 9.53906C18.5625 9.75391 12.0885 11.0645 11.9739 11C11.8593 10.9355 11.7833 9.91272 11.7833 9.91272C12.4335 9.79524 12.4423 9.46099 12.7617 9.19677Z" fill="#36B294"/>
<path d="M6.58853 13.1484C6.58853 15.5767 4.87137 17.603 2.58534 18.0819C0.97307 16.1682 0 13.6982 0 11C0 10.0529 0.11984 9.13387 0.344911 8.257C0.73077 8.16243 1.13184 8.10679 1.54688 8.10679C4.33129 8.10679 6.58853 10.364 6.58853 13.1484Z" fill="#D7F9FE"/>
<path d="M3.84553 11.9031C3.96554 11.9031 4.0627 11.8059 4.0627 11.6861V9.34867C4.0627 9.22883 3.9655 9.13163 3.84553 9.13163C3.72552 9.13163 3.62837 9.22883 3.62837 9.34867V11.6861C3.62837 11.806 3.72552 11.9031 3.84553 11.9031Z" fill="#674447"/>
<path d="M2.47775 9.14955C2.47775 9.90498 3.09014 10.5174 3.84558 10.5174C4.60101 10.5174 5.2134 9.90498 5.2134 9.14955C5.2134 8.39412 4.60101 6.07191 3.84558 6.07191C3.09014 6.07196 2.47775 8.39412 2.47775 9.14955Z" fill="#43AB5F"/>
<path d="M3.84558 6.07191C4.0352 6.07191 4.21579 6.21848 4.37998 6.44965C3.68857 6.44965 3.12804 8.57506 3.12804 9.26647C3.12804 9.8679 3.55248 10.3693 4.11795 10.4899C4.02991 10.5077 3.93886 10.5174 3.84558 10.5174C3.09014 10.5174 2.47775 9.90498 2.47775 9.14955C2.47775 8.39412 3.09014 6.07196 3.84558 6.07191Z" fill="#71BE63"/>
<path d="M14.8394 6.08536C14.8394 5.63097 14.4711 5.26255 14.0166 5.26255C13.948 5.26255 13.8825 5.27338 13.8188 5.2892C13.6041 5.05734 13.2997 4.90991 12.9588 4.90991C12.3096 4.90991 11.7834 5.43615 11.7834 6.08532L14.8394 6.08536Z" fill="#F8FCFF"/>
<path d="M14.9404 2.79297C14.9404 2.38726 14.6116 2.05838 14.2059 2.05838C14.1446 2.05838 14.0861 2.06804 14.0292 2.08218C13.8375 1.87516 13.5658 1.74354 13.2614 1.74354C12.6818 1.74354 12.2119 2.21341 12.2119 2.79297H14.9404Z" fill="#F8FCFF"/>
<path d="M4.8125 3.6358C4.8125 3.30997 5.07667 3.0458 5.4025 3.0458C5.4517 3.0458 5.49871 3.05357 5.54439 3.06492C5.69834 2.89867 5.91663 2.79293 6.16107 2.79293C6.62656 2.79297 7.00391 3.17032 7.00391 3.6358H4.8125Z" fill="#F8FCFF"/>
<path d="M10.6615 10.6562C10.9507 10.6562 10.9989 10.3703 11.0272 10.3125C11.3438 9.66797 11.7269 9.96875 12.3555 9.96875C12.847 9.96875 12.9475 9.25259 13.2218 9.28125C13.4961 9.30991 13.938 9.76822 14.319 9.625C14.8658 9.41944 14.8829 9.10938 15.4163 8.9375C15.887 8.78582 16.285 8.89453 16.5136 8.59375C16.9587 8.00809 17.2794 8.64746 17.9767 8.25C18.6858 7.84575 18.9063 8.59375 19.4397 8.59375C20 8.59375 19.8055 7.90625 20.537 7.90625C20.9513 7.90625 21.1956 8.41156 21.7197 8.55443C21.901 9.34128 22 10.159 22 11C22 11.4336 21.9717 11.8605 21.9222 12.281C21.754 12.4371 21.5721 12.5744 21.3897 12.6528C20.7358 12.9336 7.00391 13.1749 7.00391 13.1749V12.0312C8.00976 12.0312 8.00976 11.3438 8.8327 11.3438C9.94142 11.3438 9.83856 10.6562 10.6615 10.6562Z" fill="#00A07D"/>
<path d="M17.4023 18.629L7.21875 13.1748L7.47656 12.6185C9.94232 12.6185 14.2212 10.112 22 11C22 13.74 20.9959 16.2439 19.3386 18.1695C18.2976 18.4182 17.4023 18.629 17.4023 18.629Z" fill="#94D75B"/>
<path d="M7.47656 12.6185C9.73771 12.6185 13.5257 10.5126 20.137 10.8476C14.2591 10.8527 10.6544 13.4839 8.80859 13.4839L8.29297 13.2916L7.46122 12.6517L7.47656 12.6185Z" fill="#B0EB81"/>
<path d="M14.2544 5.14229C14.3534 5.14229 14.4469 5.16175 14.5365 5.19002C14.8204 4.78191 15.2914 4.51357 15.8262 4.51357C16.361 4.51357 16.8319 4.78191 17.1158 5.19002C17.2055 5.16175 17.299 5.14229 17.3979 5.14229C17.9187 5.14229 18.341 5.5645 18.341 6.08536H13.3113C13.3114 5.56454 13.7336 5.14229 14.2544 5.14229Z" fill="#F8FCFF"/>
<path d="M6.875 4.26821C6.9832 4.26821 7.08546 4.28953 7.18347 4.32042C7.49392 3.87415 8.0089 3.58071 8.59375 3.58071C9.1786 3.58071 9.69358 3.87415 10.004 4.32042C10.102 4.28953 10.2043 4.26821 10.3125 4.26821C10.8821 4.26821 11.3438 4.72991 11.3438 5.29946H5.84375C5.84375 4.72991 6.30545 4.26821 6.875 4.26821Z" fill="#F8FCFF"/>
<path d="M14.0635 3.58071C14.0635 2.97163 13.5697 2.47784 12.9606 2.47784C12.8687 2.47784 12.7808 2.49236 12.6954 2.51359C12.4076 2.20279 11.9996 2.00518 11.5426 2.00518C10.6725 2.00518 9.96707 2.71055 9.96707 3.58071H14.0635Z" fill="#F8FCFF"/>
<path d="M21.026 15.5239C19.3006 19.3418 15.462 22 11 22C4.92487 22 0 17.0751 0 11C0 10.8852 0.00515571 10.7717 0.00863678 10.6577C6.81089 10.6889 9.89545 15.4688 21.026 15.4688V15.5239Z" fill="#71BE63"/>
<path d="M7.00382 13.2915C7.13999 13.2915 7.25029 13.1813 7.25029 13.0453V10.3928C7.25029 10.2568 7.14003 10.1466 7.00382 10.1466C6.86761 10.1466 6.75739 10.2568 6.75739 10.3928V13.0453C6.75739 13.1813 6.86765 13.2915 7.00382 13.2915Z" fill="#674447"/>
<path d="M5.45175 10.1669C5.45175 11.0241 6.14668 11.719 7.00391 11.719C7.86113 11.719 8.55607 11.0241 8.55607 10.1669C8.55607 9.30965 7.86113 6.67446 7.00391 6.67446C6.14668 6.67446 5.45175 9.30961 5.45175 10.1669Z" fill="#43AB5F"/>
<path d="M7.00391 6.67446C7.21909 6.67446 7.42401 6.8408 7.61032 7.10312C6.82572 7.10312 6.18965 9.51496 6.18965 10.2996C6.18965 10.982 6.67129 11.5511 7.31298 11.6879C7.21308 11.7081 7.10974 11.719 7.00391 11.719C6.14668 11.719 5.45175 11.0241 5.45175 10.1669C5.45175 9.30961 6.14668 6.67446 7.00391 6.67446Z" fill="#71BE63"/>
<path d="M0.0260401 11.7202C4.86058 11.7439 11.7914 18.4331 18.5567 18.9811C16.5861 20.849 13.9298 22 11 22C5.16708 22 0.397334 17.4592 0.0260401 11.7202Z" fill="#43AB5F"/>
<path d="M13.5978 19.5651C13.4396 19.5651 13.3114 19.4369 13.3114 19.2787C13.3114 19.1204 13.4396 18.9922 13.5978 18.9922C13.7561 18.9922 13.8843 19.1204 13.8843 19.2787C13.8843 19.4369 13.7561 19.5651 13.5978 19.5651Z" fill="#B0EB81"/>
<path d="M12.2604 16.1963C12.1022 16.1963 11.9739 16.0681 11.9739 15.9099C11.9739 15.7517 12.1022 15.6234 12.2604 15.6234C12.4186 15.6234 12.5469 15.7517 12.5469 15.9099C12.5469 16.0681 12.4186 16.1963 12.2604 16.1963Z" fill="#94D75B"/>
<path d="M4.50888 12.4342C4.35067 12.4342 4.22241 12.3059 4.22241 12.1477C4.22241 11.9895 4.35067 11.8612 4.50888 11.8612C4.6671 11.8612 4.79536 11.9895 4.79536 12.1477C4.79536 12.3059 4.6671 12.4342 4.50888 12.4342Z" fill="#94D75B"/>
<path d="M9.29135 20.0234C9.13313 20.0234 9.00488 19.8952 9.00488 19.737C9.00488 19.5788 9.13313 19.4505 9.29135 19.4505C9.44956 19.4505 9.57782 19.5788 9.57782 19.737C9.57782 19.8952 9.44956 20.0234 9.29135 20.0234Z" fill="#71BE63"/>
<path d="M7.74765 18.2474C7.58944 18.2474 7.46118 18.1192 7.46118 17.9609C7.46118 17.8027 7.58944 17.6745 7.74765 17.6745C7.90587 17.6745 8.03413 17.8027 8.03413 17.9609C8.03413 18.1192 7.90587 18.2474 7.74765 18.2474Z" fill="#B0EB81"/>
<path d="M11 18.6548C10.8418 18.6548 10.7135 18.5266 10.7135 18.3684C10.7135 18.2102 10.8418 18.0819 11 18.0819C11.1582 18.0819 11.2865 18.2102 11.2865 18.3684C11.2865 18.5266 11.1582 18.6548 11 18.6548Z" fill="#71BE63"/>
<path d="M15.8125 19.8516C15.6543 19.8516 15.526 19.7233 15.526 19.5651C15.526 19.4069 15.6543 19.2786 15.8125 19.2786C15.9707 19.2786 16.099 19.4069 16.099 19.5651C16.099 19.7233 15.9707 19.8516 15.8125 19.8516Z" fill="#71BE63"/>
<path d="M15.526 17.433C15.3678 17.433 15.2396 17.3048 15.2396 17.1466C15.2396 16.9883 15.3678 16.8601 15.526 16.8601C15.6842 16.8601 15.8125 16.9883 15.8125 17.1466C15.8125 17.3048 15.6842 17.433 15.526 17.433Z" fill="#B0EB81"/>
<path d="M10.7135 15.125C10.5553 15.125 10.4271 14.9967 10.4271 14.8385C10.4271 14.6803 10.5553 14.5521 10.7135 14.5521C10.8717 14.5521 11 14.6803 11 14.8385C11 14.9967 10.8717 15.125 10.7135 15.125Z" fill="#B0EB81"/>
<path d="M17.8759 17.2898C17.7176 17.2898 17.5894 17.1615 17.5894 17.0033C17.5894 16.8451 17.7176 16.7168 17.8759 16.7168C18.0341 16.7168 18.1623 16.8451 18.1623 17.0033C18.1623 17.1615 18.0341 17.2898 17.8759 17.2898Z" fill="#94D75B"/>
<path d="M5.73818 17.0033C5.57996 17.0033 5.4517 16.8751 5.4517 16.7169C5.4517 16.5586 5.57996 16.4304 5.73818 16.4304C5.89639 16.4304 6.02465 16.5586 6.02465 16.7169C6.02465 16.8751 5.89639 17.0033 5.73818 17.0033Z" fill="#B0EB81"/>
<path d="M2.96476 16.1963C2.80654 16.1963 2.67828 16.0681 2.67828 15.9099C2.67828 15.7517 2.80654 15.6234 2.96476 15.6234C3.12297 15.6234 3.25123 15.7517 3.25123 15.9099C3.25123 16.0681 3.12297 16.1963 2.96476 16.1963Z" fill="#B0EB81"/>
<path d="M8.26964 16.7169C8.11142 16.7169 7.98316 16.5886 7.98316 16.4304C7.98316 16.2722 8.11142 16.1439 8.26964 16.1439C8.42785 16.1439 8.55611 16.2722 8.55611 16.4304C8.55611 16.5886 8.42785 16.7169 8.26964 16.7169Z" fill="#71BE63"/>
<path d="M5.73818 18.9155C5.57996 18.9155 5.4517 18.7872 5.4517 18.629C5.4517 18.4708 5.57996 18.3425 5.73818 18.3425C5.89639 18.3425 6.02465 18.4708 6.02465 18.629C6.02465 18.7872 5.89639 18.9155 5.73818 18.9155Z" fill="#71BE63"/>
<path d="M4.86978 15.4115C4.71156 15.4115 4.5833 15.2832 4.5833 15.125C4.5833 14.9668 4.71156 14.8385 4.86978 14.8385C5.02799 14.8385 5.15625 14.9668 5.15625 15.125C5.15625 15.2832 5.02799 15.4115 4.86978 15.4115Z" fill="#71BE63"/>
<path d="M2.96476 13.7478C2.80654 13.7478 2.67828 13.6195 2.67828 13.4613C2.67828 13.3031 2.80654 13.1748 2.96476 13.1748C3.12297 13.1748 3.25123 13.3031 3.25123 13.4613C3.25123 13.6195 3.12297 13.7478 2.96476 13.7478Z" fill="#71BE63"/>
<path fill-rule="evenodd" clip-rule="evenodd" d="M0.00420761 11.3073C0.00231457 11.2383 0.00105762 11.1691 0.000442505 11.0997C0.00014782 11.0665 0 11.0333 0 11.0001C0 11.1028 0.00140858 11.2052 0.00420761 11.3073ZM14.6667 0.625977C12.5305 2.13604 11 6.21059 11 11.0001C11 15.7895 12.5305 19.8641 14.6667 21.3741C18.8755 19.8865 21.9087 15.9101 21.998 11.2132C21.9993 11.1423 22 11.0712 22 11.0001C22 6.21059 18.939 2.13604 14.6667 0.625977ZM11.1756 21.9987C11.3289 21.9963 11.4815 21.9907 11.6332 21.9821L11.1756 21.9987ZM9.84694 21.9403C9.84185 21.9398 9.83676 21.9393 9.83167 21.9387C9.83676 21.9393 9.84184 21.9398 9.84694 21.9403Z" fill="#F3F9FF"/>
<path d="M18.7404 14.2885C18.7403 14.661 18.6531 15.0286 18.4854 15.3631C18.3177 15.6975 18.074 15.99 17.7729 16.2181C17.4718 16.4462 17.1213 16.6038 16.7483 16.679C16.3754 16.7541 15.9898 16.7448 15.621 16.6516C15.1661 16.5366 14.7535 16.2982 14.4309 15.964C14.1083 15.6297 13.8888 15.2131 13.7975 14.7621C13.7063 14.3112 13.747 13.8442 13.9151 13.4149C14.0832 12.9856 14.3717 12.6114 14.7476 12.3355V6.96475C14.7476 6.57628 14.9054 6.20371 15.1862 5.92902C15.467 5.65432 15.8478 5.5 16.2449 5.5C16.642 5.5 17.0229 5.65432 17.3037 5.92902C17.5845 6.20371 17.7422 6.57628 17.7422 6.96475V12.3355C18.0522 12.5629 18.3037 12.8578 18.477 13.1968C18.6502 13.5357 18.7404 13.9095 18.7404 14.2885Z" fill="#67CBF7"/>
<path d="M15.621 16.6517C15.1661 16.5366 14.7535 16.2982 14.4309 15.964C14.1083 15.6297 13.8888 15.2131 13.7975 14.7622C13.7063 14.3112 13.747 13.8442 13.9151 13.4149C14.0832 12.9856 14.3717 12.6115 14.7476 12.3355V6.96476C14.7478 6.68448 14.8302 6.41015 14.985 6.17432C15.1399 5.93849 15.3606 5.75106 15.621 5.63428C15.8815 5.75106 16.1022 5.93849 16.257 6.17432C16.4119 6.41015 16.4943 6.68448 16.4945 6.96476V12.3355C16.8703 12.6115 17.1589 12.9856 17.327 13.4149C17.4951 13.8442 17.5358 14.3112 17.4446 14.7622C17.3533 15.2131 17.1337 15.6297 16.8111 15.964C16.4885 16.2982 16.076 16.5366 15.621 16.6517Z" fill="#9FCBF3"/>
<path d="M18.8873 8.05711H18.2509C18.2087 8.05711 18.1682 8.04072 18.1384 8.01153C18.1086 7.98234 18.0918 7.94276 18.0918 7.90148C18.0918 7.86021 18.1086 7.82062 18.1384 7.79143C18.1682 7.76225 18.2087 7.74585 18.2509 7.74585H18.8873C18.9294 7.74585 18.9699 7.76225 18.9997 7.79143C19.0296 7.82062 19.0463 7.86021 19.0463 7.90148C19.0463 7.94276 19.0296 7.98234 18.9997 8.01153C18.9699 8.04072 18.9294 8.05711 18.8873 8.05711Z" fill="#425B72"/>
<path d="M19.2054 8.83519H18.2509C18.2087 8.83519 18.1682 8.81879 18.1384 8.78961C18.1086 8.76042 18.0918 8.72083 18.0918 8.67956C18.0918 8.63828 18.1086 8.5987 18.1384 8.56951C18.1682 8.54032 18.2087 8.52393 18.2509 8.52393H19.2054C19.2476 8.52393 19.2881 8.54032 19.3179 8.56951C19.3478 8.5987 19.3645 8.63828 19.3645 8.67956C19.3645 8.72083 19.3478 8.76042 19.3179 8.78961C19.2881 8.81879 19.2476 8.83519 19.2054 8.83519Z" fill="#425B72"/>
<path d="M18.8873 9.61351H18.2509C18.2087 9.61351 18.1682 9.59711 18.1384 9.56793C18.1086 9.53874 18.0918 9.49915 18.0918 9.45788C18.0918 9.4166 18.1086 9.37702 18.1384 9.34783C18.1682 9.31864 18.2087 9.30225 18.2509 9.30225H18.8873C18.9294 9.30225 18.9699 9.31864 18.9997 9.34783C19.0296 9.37702 19.0463 9.4166 19.0463 9.45788C19.0463 9.49915 19.0296 9.53874 18.9997 9.56793C18.9699 9.59711 18.9294 9.61351 18.8873 9.61351Z" fill="#425B72"/>
<path d="M19.2054 10.3916H18.2509C18.2087 10.3916 18.1682 10.3752 18.1384 10.346C18.1086 10.3168 18.0918 10.2772 18.0918 10.236C18.0918 10.1947 18.1086 10.1551 18.1384 10.1259C18.1682 10.0967 18.2087 10.0803 18.2509 10.0803H19.2054C19.2476 10.0803 19.2881 10.0967 19.3179 10.1259C19.3478 10.1551 19.3645 10.1947 19.3645 10.236C19.3645 10.2772 19.3478 10.3168 19.3179 10.346C19.2881 10.3752 19.2476 10.3916 19.2054 10.3916Z" fill="#425B72"/>
<path d="M18.8873 11.1697H18.2509C18.2087 11.1697 18.1682 11.1533 18.1384 11.1241C18.1086 11.0949 18.0918 11.0553 18.0918 11.014C18.0918 10.9728 18.1086 10.9332 18.1384 10.904C18.1682 10.8748 18.2087 10.8584 18.2509 10.8584H18.8873C18.9294 10.8584 18.9699 10.8748 18.9997 10.904C19.0296 10.9332 19.0463 10.9728 19.0463 11.014C19.0463 11.0553 19.0296 11.0949 18.9997 11.1241C18.9699 11.1533 18.9294 11.1697 18.8873 11.1697Z" fill="#425B72"/>
<path d="M17.7427 14.2885C17.743 14.5571 17.6678 14.8206 17.5253 15.0503C17.3828 15.2799 17.1786 15.4667 16.9348 15.5904C16.6911 15.7141 16.4173 15.7698 16.1433 15.7515C15.8694 15.7332 15.6059 15.6416 15.3816 15.4866C15.1573 15.3317 14.9809 15.1194 14.8717 14.8729C14.7624 14.6265 14.7245 14.3554 14.7622 14.0894C14.7998 13.8233 14.9115 13.5725 15.0851 13.3643C15.2587 13.1562 15.4874 12.9987 15.7463 12.9092V9.40601H16.7445V12.9092C17.0361 13.0101 17.2887 13.1968 17.4674 13.4438C17.6462 13.6908 17.7423 13.9859 17.7427 14.2885Z" fill="#F26674"/>
<path d="M15.9955 15.7313C15.6698 15.6761 15.3719 15.5169 15.1483 15.2787C14.9247 15.0404 14.788 14.7365 14.7595 14.4143C14.731 14.0921 14.8123 13.7697 14.9908 13.4974C15.1692 13.2252 15.4348 13.0183 15.746 12.9092V9.40601H16.2451V12.9092C16.5563 13.0183 16.8219 13.2252 17.0003 13.4974C17.1788 13.7697 17.2601 14.0921 17.2316 14.4143C17.2031 14.7365 17.0664 15.0404 16.8428 15.2787C16.6192 15.5169 16.3213 15.6761 15.9955 15.7313Z" fill="#DB5669"/>
<path d="M16.7433 6.96481V9.40607H15.7451V6.96481C15.7451 6.83532 15.7977 6.71113 15.8913 6.61957C15.9849 6.528 16.1119 6.47656 16.2442 6.47656C16.3766 6.47656 16.5035 6.528 16.5971 6.61957C16.6907 6.71113 16.7433 6.83532 16.7433 6.96481Z" fill="#EDEBF2"/>
</svg>
