<svg width="24" height="24" viewBox="0 0 24 24" fill="none" xmlns="http://www.w3.org/2000/svg">
<path d="M22.4997 20.8087C22.5004 20.9565 22.4719 21.103 22.4159 21.2398C22.3599 21.3765 22.2775 21.5009 22.1733 21.6058C22.0692 21.7106 21.9454 21.7939 21.809 21.8508C21.6726 21.9077 21.5263 21.9372 21.3785 21.9375H2.62126C2.3239 21.9359 2.03924 21.8167 1.82952 21.6059C1.6198 21.3951 1.50207 21.1099 1.50207 20.8125C1.50207 20.5151 1.6198 20.2299 1.82952 20.0191C2.03924 19.8083 2.3239 19.6891 2.62126 19.6875H21.3785C21.6758 19.6877 21.9609 19.8059 22.1711 20.0161C22.3814 20.2263 22.4996 20.5114 22.4997 20.8087ZM2.46752 14.1301L11.8761 15.9263C11.9147 15.9308 11.9535 15.9333 11.9924 15.9338C12.0463 15.9334 12.1002 15.9296 12.1536 15.9225L21.5173 14.1338C21.6639 14.1154 21.8055 14.0682 21.9338 13.9948C22.0621 13.9215 22.1747 13.8235 22.265 13.7065C22.3554 13.5895 22.4217 13.4558 22.4602 13.3131C22.4986 13.1704 22.5085 13.0215 22.4893 12.8749C22.47 12.7284 22.4219 12.5871 22.3479 12.4592C22.2738 12.3313 22.1752 12.2193 22.0577 12.1296C21.9402 12.0399 21.8061 11.9744 21.6632 11.9367C21.5202 11.899 21.3713 11.89 21.2248 11.9101C21.1769 11.913 12.0316 13.694 11.9886 13.6838L2.74504 11.9064C2.58858 11.8901 2.43045 11.9067 2.2808 11.9552C2.13115 12.0036 1.99328 12.0828 1.87604 12.1877C1.75881 12.2925 1.66479 12.4208 1.60004 12.5641C1.53529 12.7075 1.50122 12.8628 1.50004 13.0201C1.4978 13.2914 1.59498 13.5541 1.77324 13.7586C1.95149 13.9631 2.19847 14.0953 2.46752 14.1301ZM21.2547 15.6563L12.0411 16.68C12.0138 16.6838 11.986 16.6838 11.9586 16.68L2.74506 15.6563C2.45136 15.6268 2.15787 15.7143 1.92834 15.8999C1.69881 16.0855 1.55177 16.3542 1.51917 16.6476C1.48656 16.9409 1.57102 17.2353 1.7542 17.4668C1.93738 17.6983 2.20449 17.8481 2.4975 17.8838L11.8761 18.9263C11.9584 18.9357 12.0414 18.9357 12.1236 18.9263L21.5022 17.8838C21.7976 17.8509 22.0678 17.7021 22.2535 17.4701C22.4391 17.238 22.525 16.9417 22.4922 16.6463C22.4594 16.3509 22.3106 16.0807 22.0785 15.895C21.8464 15.7094 21.5501 15.6235 21.2547 15.6563ZM11.7149 12.0564C11.7501 12.0975 11.7938 12.1306 11.843 12.1532C11.8922 12.1759 11.9457 12.1876 11.9999 12.1876C12.054 12.1876 12.1076 12.1759 12.1568 12.1532C12.206 12.1306 12.2497 12.0975 12.2849 12.0564L14.5348 9.4314C14.5802 9.37656 14.6092 9.31001 14.6185 9.23941C14.6277 9.16881 14.6168 9.09705 14.587 9.03238C14.5572 8.96772 14.5097 8.91278 14.4501 8.87391C14.3905 8.83504 14.321 8.81381 14.2498 8.81267H13.4998V2.81274C13.4993 2.61401 13.4201 2.42358 13.2795 2.28305C13.139 2.14253 12.9486 2.06332 12.7498 2.06274H11.2499C11.0512 2.06332 10.8607 2.14253 10.7202 2.28305C10.5797 2.42358 10.5005 2.61401 10.4999 2.81274V8.81266H9.74994C9.67875 8.81379 9.60933 8.83501 9.54967 8.87388C9.49002 8.91275 9.44257 8.96769 9.41278 9.03235C9.38299 9.09702 9.37208 9.16879 9.3813 9.23939C9.39052 9.30999 9.41951 9.37654 9.46491 9.43139L11.7149 12.0564Z" fill="url(#paint0_linear_2842_509)"/>
<defs>
<linearGradient id="paint0_linear_2842_509" x1="1.49981" y1="12.0001" x2="22.4998" y2="12.0001" gradientUnits="userSpaceOnUse">
<stop stop-color="#00C0FF"/>
<stop offset="1" stop-color="#5558FF"/>
</linearGradient>
</defs>
</svg>
