<svg width="24" height="24" viewBox="0 0 24 24" fill="none" xmlns="http://www.w3.org/2000/svg">
<path d="M12 24C5.37258 24 0 18.6274 0 12C0 5.37258 5.37258 0 12 0C18.6274 0 24 5.37258 24 12C24 18.6274 18.6274 24 12 24Z" fill="#9AF4EF"/>
<path d="M4.90425 2.3242C10.2159 3.74231 14.1292 8.58506 14.1292 14.3438C14.1292 18.1249 12.4403 21.5095 9.77827 23.7913C4.21284 22.749 0 17.8679 0 12C0 8.028 1.93106 4.5083 4.90425 2.3242Z" fill="#D7F9FE"/>
<path d="M13.9219 10.0328C14.4491 9.59667 15.2109 9.98438 15.6211 9.63281C16.1693 9.16294 16.2938 9.04003 16.7944 8.91169C17.2515 8.7945 17.6653 9.05962 18.1055 8.47266C18.4219 8.05078 18.7203 8.09348 19.1022 8.18723C19.484 8.28098 19.6013 8.1772 20.1152 7.75195C20.4551 7.4707 20.7656 7.37109 21.4688 7.39453C22.0618 7.41431 22.5282 7.28288 22.9617 7.11825C23.3785 8.05284 23.6807 9.04941 23.8473 10.0919C22.149 10.2702 21.6386 10.1927 20.9766 10.4062C20.25 10.6406 13.1875 12.0703 13.0625 12C12.9375 11.9297 12.8545 10.8139 12.8545 10.8139C13.5638 10.6857 13.5735 10.3211 13.9219 10.0328Z" fill="#36B294"/>
<path d="M7.18748 14.3438C7.18748 16.9928 5.31422 19.2033 2.82037 19.7257C1.06153 17.638 0 14.9435 0 12C0 10.9668 0.130735 9.96422 0.376266 9.00764C0.797204 8.90447 1.23473 8.84377 1.6875 8.84377C4.72505 8.84377 7.18748 11.3062 7.18748 14.3438Z" fill="#D7F9FE"/>
<path d="M4.19513 12.9852C4.32605 12.9852 4.43203 12.8792 4.43203 12.7485V10.1985C4.43203 10.0678 4.326 9.96178 4.19513 9.96178C4.0642 9.96178 3.95822 10.0678 3.95822 10.1985V12.7485C3.95822 12.8792 4.0642 12.9852 4.19513 12.9852Z" fill="#674447"/>
<path d="M2.703 9.98133C2.703 10.8054 3.37106 11.4735 4.19517 11.4735C5.01928 11.4735 5.68734 10.8054 5.68734 9.98133C5.68734 9.15722 5.01928 6.62391 4.19517 6.62391C3.37106 6.62395 2.703 9.15722 2.703 9.98133Z" fill="#43AB5F"/>
<path d="M4.19517 6.62391C4.40203 6.62391 4.59905 6.7838 4.77816 7.03598C4.02389 7.03598 3.41241 9.35461 3.41241 10.1089C3.41241 10.765 3.87544 11.312 4.49231 11.4435C4.39627 11.463 4.29694 11.4735 4.19517 11.4735C3.37106 11.4735 2.703 10.8054 2.703 9.98133C2.703 9.15722 3.37106 6.62395 4.19517 6.62391Z" fill="#71BE63"/>
<path d="M16.1885 6.63858C16.1885 6.14288 15.7866 5.74097 15.2909 5.74097C15.216 5.74097 15.1445 5.75278 15.075 5.77003C14.8408 5.51709 14.5087 5.35627 14.1368 5.35627C13.4287 5.35627 12.8546 5.93034 12.8546 6.63853L16.1885 6.63858Z" fill="#F8FCFF"/>
<path d="M16.2987 3.04688C16.2987 2.60428 15.9399 2.2455 15.4973 2.2455C15.4305 2.2455 15.3666 2.25605 15.3046 2.27147C15.0955 2.04563 14.799 1.90205 14.4669 1.90205C13.8347 1.90205 13.3221 2.41463 13.3221 3.04688H16.2987Z" fill="#F8FCFF"/>
<path d="M5.25 3.96633C5.25 3.61088 5.53819 3.32269 5.89364 3.32269C5.94731 3.32269 5.99859 3.33117 6.04842 3.34355C6.21637 3.16219 6.4545 3.04683 6.72117 3.04683C7.22897 3.04688 7.64062 3.45853 7.64062 3.96633H5.25Z" fill="#F8FCFF"/>
<path d="M11.6307 11.625C11.9462 11.625 11.9988 11.313 12.0297 11.25C12.375 10.5469 12.793 10.875 13.4788 10.875C14.0149 10.875 14.1245 10.0937 14.4238 10.125C14.723 10.1563 15.2051 10.6562 15.6208 10.5C16.2172 10.2758 16.2359 9.9375 16.8178 9.75C17.3313 9.58453 17.7654 9.70312 18.0149 9.375C18.5004 8.73609 18.8503 9.43359 19.6109 9C20.3845 8.559 20.625 9.375 21.2069 9.375C21.8182 9.375 21.606 8.625 22.404 8.625C22.856 8.625 23.1225 9.17625 23.6942 9.33211C23.892 10.1905 24 11.0826 24 12C24 12.4731 23.9692 12.9388 23.9152 13.3975C23.7316 13.5678 23.5332 13.7175 23.3342 13.803C22.6208 14.1094 7.64062 14.3726 7.64062 14.3726V13.125C8.73792 13.125 8.73792 12.375 9.63567 12.375C10.8452 12.375 10.733 11.625 11.6307 11.625Z" fill="#00A07D"/>
<path d="M18.9844 20.3226L7.875 14.3725L8.15625 13.7656C10.8462 13.7656 15.514 11.0312 24 12C24 14.9891 22.9046 17.7206 21.0967 19.8213C19.9611 20.0926 18.9844 20.3226 18.9844 20.3226Z" fill="#94D75B"/>
<path d="M8.15625 13.7656C10.623 13.7656 14.7554 11.4683 21.9676 11.8338C15.5554 11.8393 11.623 14.7097 9.60938 14.7097L9.04688 14.4999L8.13952 13.8018L8.15625 13.7656Z" fill="#B0EB81"/>
<path d="M15.5503 5.60977C15.6582 5.60977 15.7602 5.631 15.858 5.66184C16.1677 5.21663 16.6815 4.92389 17.2649 4.92389C17.8483 4.92389 18.3621 5.21663 18.6718 5.66184C18.7696 5.631 18.8716 5.60977 18.9795 5.60977C19.5477 5.60977 20.0084 6.07036 20.0084 6.63858H14.5215C14.5215 6.07041 14.9821 5.60977 15.5503 5.60977Z" fill="#F8FCFF"/>
<path d="M7.5 4.65623C7.61803 4.65623 7.72959 4.67948 7.83651 4.71319C8.17519 4.22634 8.73698 3.90623 9.375 3.90623C10.013 3.90623 10.5748 4.22634 10.9135 4.71319C11.0204 4.67948 11.132 4.65623 11.25 4.65623C11.8713 4.65623 12.375 5.15991 12.375 5.78123H6.375C6.375 5.15991 6.87867 4.65623 7.5 4.65623Z" fill="#F8FCFF"/>
<path d="M15.342 3.90623C15.342 3.24178 14.8033 2.70309 14.1388 2.70309C14.0385 2.70309 13.9426 2.71894 13.8495 2.74209C13.5356 2.40305 13.0905 2.18747 12.5919 2.18747C11.6427 2.18747 10.8732 2.95697 10.8732 3.90623H15.342Z" fill="#F8FCFF"/>
<path d="M22.9375 16.9352C21.0552 21.1001 16.8676 24 12 24C5.37258 24 0 18.6274 0 12C0 11.8748 0.00562441 11.7509 0.00942194 11.6266C7.43006 11.6606 10.795 16.875 22.9375 16.875V16.9352Z" fill="#71BE63"/>
<path d="M7.64053 14.4998C7.78908 14.4998 7.90941 14.3796 7.90941 14.2312V11.3376C7.90941 11.1892 7.78912 11.069 7.64053 11.069C7.49194 11.069 7.3717 11.1892 7.3717 11.3376V14.2312C7.3717 14.3796 7.49198 14.4998 7.64053 14.4998Z" fill="#674447"/>
<path d="M5.94736 11.0911C5.94736 12.0263 6.70547 12.7844 7.64062 12.7844C8.57578 12.7844 9.33389 12.0263 9.33389 11.0911C9.33389 10.156 8.57578 7.28123 7.64062 7.28123C6.70547 7.28123 5.94736 10.1559 5.94736 11.0911Z" fill="#43AB5F"/>
<path d="M7.64062 7.28123C7.87537 7.28123 8.09892 7.46269 8.30217 7.74886C7.44623 7.74886 6.75234 10.38 6.75234 11.2359C6.75234 11.9804 7.27777 12.6012 7.9778 12.7505C7.86881 12.7725 7.75608 12.7844 7.64062 12.7844C6.70547 12.7844 5.94736 12.0263 5.94736 11.0911C5.94736 10.1559 6.70547 7.28123 7.64062 7.28123Z" fill="#71BE63"/>
<path d="M0.0284073 12.7856C5.30245 12.8115 12.8633 20.1089 20.2436 20.7067C18.0939 22.7444 15.1962 24 12 24C5.63681 24 0.433456 19.0464 0.0284073 12.7856Z" fill="#43AB5F"/>
<path d="M14.834 21.3438C14.6614 21.3438 14.5215 21.2039 14.5215 21.0313C14.5215 20.8587 14.6614 20.7188 14.834 20.7188C15.0066 20.7188 15.1465 20.8587 15.1465 21.0313C15.1465 21.2039 15.0066 21.3438 14.834 21.3438Z" fill="#B0EB81"/>
<path d="M13.375 17.6687C13.2024 17.6687 13.0625 17.5288 13.0625 17.3562C13.0625 17.1836 13.2024 17.0437 13.375 17.0437C13.5476 17.0437 13.6875 17.1836 13.6875 17.3562C13.6875 17.5288 13.5476 17.6687 13.375 17.6687Z" fill="#94D75B"/>
<path d="M4.91878 13.5645C4.74618 13.5645 4.60626 13.4246 4.60626 13.252C4.60626 13.0794 4.74618 12.9395 4.91878 12.9395C5.09138 12.9395 5.2313 13.0794 5.2313 13.252C5.2313 13.4246 5.09138 13.5645 4.91878 13.5645Z" fill="#94D75B"/>
<path d="M10.136 21.8438C9.96342 21.8438 9.8235 21.7038 9.8235 21.5312C9.8235 21.3586 9.96342 21.2187 10.136 21.2187C10.3086 21.2187 10.4485 21.3586 10.4485 21.5312C10.4485 21.7038 10.3086 21.8438 10.136 21.8438Z" fill="#71BE63"/>
<path d="M8.45198 19.9063C8.27939 19.9063 8.13947 19.7663 8.13947 19.5938C8.13947 19.4212 8.27939 19.2812 8.45198 19.2812C8.62458 19.2812 8.7645 19.4212 8.7645 19.5938C8.7645 19.7663 8.62458 19.9063 8.45198 19.9063Z" fill="#B0EB81"/>
<path d="M12 20.3507C11.8274 20.3507 11.6875 20.2108 11.6875 20.0382C11.6875 19.8656 11.8274 19.7257 12 19.7257C12.1726 19.7257 12.3125 19.8656 12.3125 20.0382C12.3125 20.2108 12.1726 20.3507 12 20.3507Z" fill="#71BE63"/>
<path d="M17.25 21.6562C17.0774 21.6562 16.9375 21.5163 16.9375 21.3437C16.9375 21.1711 17.0774 21.0312 17.25 21.0312C17.4226 21.0312 17.5625 21.1711 17.5625 21.3437C17.5625 21.5163 17.4226 21.6562 17.25 21.6562Z" fill="#71BE63"/>
<path d="M16.9375 19.0178C16.7649 19.0178 16.625 18.8779 16.625 18.7053C16.625 18.5327 16.7649 18.3928 16.9375 18.3928C17.1101 18.3928 17.25 18.5327 17.25 18.7053C17.25 18.8779 17.1101 19.0178 16.9375 19.0178Z" fill="#B0EB81"/>
<path d="M11.6875 16.5C11.5149 16.5 11.375 16.3601 11.375 16.1875C11.375 16.0149 11.5149 15.875 11.6875 15.875C11.8601 15.875 12 16.0149 12 16.1875C12 16.3601 11.8601 16.5 11.6875 16.5Z" fill="#B0EB81"/>
<path d="M19.5009 18.8616C19.3283 18.8616 19.1884 18.7216 19.1884 18.549C19.1884 18.3764 19.3283 18.2365 19.5009 18.2365C19.6735 18.2365 19.8135 18.3764 19.8135 18.549C19.8135 18.7216 19.6735 18.8616 19.5009 18.8616Z" fill="#94D75B"/>
<path d="M6.25983 18.5491C6.08723 18.5491 5.94731 18.4092 5.94731 18.2366C5.94731 18.064 6.08723 17.9241 6.25983 17.9241C6.43243 17.9241 6.57234 18.064 6.57234 18.2366C6.57234 18.4092 6.43243 18.5491 6.25983 18.5491Z" fill="#B0EB81"/>
<path d="M3.23428 17.6687C3.06168 17.6687 2.92176 17.5288 2.92176 17.3562C2.92176 17.1836 3.06168 17.0437 3.23428 17.0437C3.40688 17.0437 3.5468 17.1836 3.5468 17.3562C3.5468 17.5288 3.40688 17.6687 3.23428 17.6687Z" fill="#B0EB81"/>
<path d="M9.02142 18.2366C8.84882 18.2366 8.70891 18.0967 8.70891 17.9241C8.70891 17.7515 8.84882 17.6115 9.02142 17.6115C9.19402 17.6115 9.33394 17.7515 9.33394 17.9241C9.33394 18.0967 9.19402 18.2366 9.02142 18.2366Z" fill="#71BE63"/>
<path d="M6.25983 20.6351C6.08723 20.6351 5.94731 20.4952 5.94731 20.3226C5.94731 20.15 6.08723 20.01 6.25983 20.01C6.43243 20.01 6.57234 20.15 6.57234 20.3226C6.57234 20.4952 6.43243 20.6351 6.25983 20.6351Z" fill="#71BE63"/>
<path d="M5.31248 16.8125C5.13989 16.8125 4.99997 16.6726 4.99997 16.5C4.99997 16.3274 5.13989 16.1875 5.31248 16.1875C5.48508 16.1875 5.625 16.3274 5.625 16.5C5.625 16.6726 5.48508 16.8125 5.31248 16.8125Z" fill="#71BE63"/>
<path d="M3.23428 14.9976C3.06168 14.9976 2.92176 14.8576 2.92176 14.685C2.92176 14.5124 3.06168 14.3725 3.23428 14.3725C3.40688 14.3725 3.5468 14.5124 3.5468 14.685C3.5468 14.8576 3.40688 14.9976 3.23428 14.9976Z" fill="#71BE63"/>
<path fill-rule="evenodd" clip-rule="evenodd" d="M0.00440502 12.329C0.00239277 12.2543 0.00106525 12.1793 0.000426292 12.1042C0.000189781 12.0764 4.673e-05 12.0486 0 12.0208C0.000174522 12.1238 0.00164795 12.2266 0.00440502 12.329ZM0.00494003 11.6517C0.00603962 11.6132 0.00732136 11.5746 0.00878334 11.5362C0.0073204 11.5746 0.00603962 11.6132 0.00494003 11.6517ZM16 0.682861C13.6696 2.33021 12 6.77516 12 12C12 17.2249 13.6696 21.6699 16 23.3172C20.5915 21.6944 23.9004 17.3564 23.9978 12.2325C23.9992 12.1552 24 12.0777 24 12C24 6.77516 20.6608 2.33021 16 0.682861ZM12.6565 23.9824C12.4991 23.9909 12.3409 23.9963 12.182 23.9987C12.1214 23.9996 12.0607 24 12 24M10.7849 23.9393C10.7395 23.9347 10.6943 23.9299 10.6491 23.9248C10.6871 23.9291 10.7253 23.9332 10.7635 23.9371C10.7706 23.9378 10.7777 23.9386 10.7849 23.9393Z" fill="#0B0D32"/>
<path d="M20.2218 15.9571C20.2217 16.4216 20.113 16.8798 19.9039 17.2968C19.6948 17.7138 19.3909 18.0784 19.0155 18.3628C18.6401 18.6472 18.2032 18.8437 17.7382 18.9374C17.2732 19.0311 16.7924 19.0195 16.3327 18.9034C15.7655 18.7599 15.2512 18.4627 14.849 18.046C14.4467 17.6292 14.173 17.1098 14.0592 16.5476C13.9455 15.9854 13.9963 15.4031 14.2058 14.8679C14.4154 14.3327 14.7752 13.8662 15.2438 13.5222V6.82618C15.2438 6.34185 15.4404 5.87735 15.7905 5.53488C16.1406 5.1924 16.6154 5 17.1105 5C17.6056 5 18.0805 5.1924 18.4306 5.53488C18.7807 5.87735 18.9773 6.34185 18.9773 6.82618V13.5222C19.3637 13.8057 19.6774 14.1733 19.8934 14.5959C20.1094 15.0186 20.2218 15.4846 20.2218 15.9571Z" fill="#67CBF7"/>
<path d="M16.3327 18.9034C15.7655 18.76 15.2512 18.4628 14.849 18.0461C14.4467 17.6293 14.173 17.1099 14.0592 16.5477C13.9455 15.9855 13.9963 15.4032 14.2058 14.868C14.4154 14.3328 14.7752 13.8663 15.2438 13.5223V6.82626C15.244 6.47683 15.3468 6.1348 15.5398 5.84078C15.7328 5.54676 16.008 5.31308 16.3327 5.16748C16.6574 5.31308 16.9326 5.54676 17.1257 5.84078C17.3187 6.1348 17.4214 6.47683 17.4217 6.82626V13.5223C17.8903 13.8663 18.2501 14.3328 18.4596 14.868C18.6692 15.4032 18.72 15.9855 18.6062 16.5477C18.4924 17.1099 18.2187 17.6293 17.8165 18.0461C17.4143 18.4628 16.9 18.76 16.3327 18.9034Z" fill="#9FCBF3"/>
<path d="M20.4048 8.18812H19.6114C19.5588 8.18812 19.5084 8.16767 19.4712 8.13129C19.434 8.0949 19.4131 8.04554 19.4131 7.99408C19.4131 7.94262 19.434 7.89327 19.4712 7.85688C19.5084 7.82049 19.5588 7.80005 19.6114 7.80005H20.4048C20.4574 7.80005 20.5079 7.82049 20.5451 7.85688C20.5823 7.89327 20.6032 7.94262 20.6032 7.99408C20.6032 8.04554 20.5823 8.0949 20.5451 8.13129C20.5079 8.16767 20.4574 8.18812 20.4048 8.18812Z" fill="#425B72"/>
<path d="M20.8015 9.15833H19.6114C19.5588 9.15833 19.5084 9.13789 19.4712 9.1015C19.434 9.06511 19.4131 9.01576 19.4131 8.9643C19.4131 8.91284 19.434 8.86348 19.4712 8.8271C19.5084 8.79071 19.5588 8.77026 19.6114 8.77026H20.8015C20.8541 8.77026 20.9046 8.79071 20.9418 8.8271C20.979 8.86348 20.9999 8.91284 20.9999 8.9643C20.9999 9.01576 20.979 9.06511 20.9418 9.1015C20.9046 9.13789 20.8541 9.15833 20.8015 9.15833Z" fill="#425B72"/>
<path d="M20.4048 10.1285H19.6114C19.5588 10.1285 19.5084 10.1081 19.4712 10.0717C19.434 10.0353 19.4131 9.98597 19.4131 9.93451C19.4131 9.88305 19.434 9.8337 19.4712 9.79731C19.5084 9.76092 19.5588 9.74048 19.6114 9.74048H20.4048C20.4574 9.74048 20.5079 9.76092 20.5451 9.79731C20.5823 9.8337 20.6032 9.88305 20.6032 9.93451C20.6032 9.98597 20.5823 10.0353 20.5451 10.0717C20.5079 10.1081 20.4574 10.1285 20.4048 10.1285Z" fill="#425B72"/>
<path d="M20.8015 11.0985H19.6114C19.5588 11.0985 19.5084 11.0781 19.4712 11.0417C19.434 11.0053 19.4131 10.9559 19.4131 10.9045C19.4131 10.853 19.434 10.8037 19.4712 10.7673C19.5084 10.7309 19.5588 10.7104 19.6114 10.7104H20.8015C20.8541 10.7104 20.9046 10.7309 20.9418 10.7673C20.979 10.8037 20.9999 10.853 20.9999 10.9045C20.9999 10.9559 20.979 11.0053 20.9418 11.0417C20.9046 11.0781 20.8541 11.0985 20.8015 11.0985Z" fill="#425B72"/>
<path d="M20.4048 12.0687H19.6114C19.5588 12.0687 19.5084 12.0483 19.4712 12.0119C19.434 11.9755 19.4131 11.9262 19.4131 11.8747C19.4131 11.8232 19.434 11.7739 19.4712 11.7375C19.5084 11.7011 19.5588 11.6807 19.6114 11.6807H20.4048C20.4574 11.6807 20.5079 11.7011 20.5451 11.7375C20.5823 11.7739 20.6032 11.8232 20.6032 11.8747C20.6032 11.9262 20.5823 11.9755 20.5451 12.0119C20.5079 12.0483 20.4574 12.0687 20.4048 12.0687Z" fill="#425B72"/>
<path d="M18.9777 15.9572C18.9781 16.292 18.8843 16.6206 18.7067 16.9069C18.5291 17.1931 18.2744 17.4261 17.9705 17.5803C17.6666 17.7345 17.3252 17.804 16.9837 17.7812C16.6422 17.7584 16.3136 17.6441 16.034 17.4509C15.7544 17.2577 15.5344 16.993 15.3982 16.6858C15.262 16.3786 15.2148 16.0406 15.2618 15.7089C15.3087 15.3771 15.448 15.0644 15.6644 14.8049C15.8807 14.5454 16.1659 14.3491 16.4887 14.2375V9.86987H17.7332V14.2375C18.0968 14.3633 18.4117 14.5961 18.6345 14.904C18.8574 15.212 18.9773 15.5799 18.9777 15.9572Z" fill="#F26674"/>
<path d="M16.8 17.7559C16.3938 17.6871 16.0224 17.4887 15.7436 17.1917C15.4649 16.8946 15.2944 16.5157 15.2589 16.114C15.2234 15.7122 15.3248 15.3103 15.5473 14.9709C15.7697 14.6314 16.1008 14.3736 16.4888 14.2375V9.86987H17.1111V14.2375C17.4991 14.3736 17.8302 14.6314 18.0527 14.9709C18.2752 15.3103 18.3766 15.7122 18.341 16.114C18.3055 16.5157 18.1351 16.8946 17.8563 17.1917C17.5775 17.4887 17.2061 17.6871 16.8 17.7559Z" fill="#DB5669"/>
<path d="M17.7318 6.82626V9.8699H16.4873V6.82626C16.4873 6.66481 16.5529 6.50998 16.6696 6.39582C16.7863 6.28166 16.9445 6.21753 17.1096 6.21753C17.2746 6.21753 17.4329 6.28166 17.5496 6.39582C17.6663 6.50998 17.7318 6.66481 17.7318 6.82626Z" fill="#EDEBF2"/>
</svg>
