<svg width="24" height="24" viewBox="0 0 24 24" fill="none" xmlns="http://www.w3.org/2000/svg">
<path d="M12 23C5.92487 23 1 18.0751 1 12C1 5.92487 5.92487 1 12 1C18.0751 1 23 5.92487 23 12C23 18.0751 18.0751 23 12 23Z" fill="#9AF4EF"/>
<path d="M5.49556 3.13052C10.3646 4.43045 13.9518 8.86964 13.9518 14.1484C13.9518 17.6145 12.4036 20.717 9.96341 22.8087C4.86177 21.8532 1 17.3789 1 12C1 8.359 2.77014 5.13261 5.49556 3.13052Z" fill="#D7F9FE"/>
<path d="M13.7617 10.1968C14.245 9.79695 14.9434 10.1523 15.3193 9.83008C15.8219 9.39936 15.936 9.28669 16.3949 9.16905C16.8138 9.06162 17.1932 9.30466 17.5967 8.7666C17.8867 8.37988 18.1603 8.41903 18.5103 8.50496C18.8603 8.5909 18.9679 8.49577 19.439 8.10596C19.7505 7.84814 20.0352 7.75684 20.6797 7.77832C21.2233 7.79645 21.6508 7.67597 22.0482 7.52506C22.4303 8.38177 22.7073 9.29529 22.8601 10.2509C21.3033 10.4143 20.8354 10.3433 20.2285 10.5391C19.5625 10.7539 13.0885 12.0645 12.9739 12C12.8593 11.9355 12.7833 10.9127 12.7833 10.9127C13.4335 10.7952 13.4423 10.461 13.7617 10.1968Z" fill="#36B294"/>
<path d="M7.58853 14.1484C7.58853 16.5767 5.87137 18.603 3.58534 19.0819C1.97307 17.1682 1 14.6982 1 12C1 11.0529 1.11984 10.1339 1.34491 9.257C1.73077 9.16243 2.13184 9.10679 2.54688 9.10679C5.33129 9.10679 7.58853 11.364 7.58853 14.1484Z" fill="#D7F9FE"/>
<path d="M4.84553 12.9031C4.96554 12.9031 5.0627 12.8059 5.0627 12.6861V10.3487C5.0627 10.2288 4.9655 10.1316 4.84553 10.1316C4.72552 10.1316 4.62837 10.2288 4.62837 10.3487V12.6861C4.62837 12.806 4.72552 12.9031 4.84553 12.9031Z" fill="#674447"/>
<path d="M3.47775 10.1496C3.47775 10.905 4.09014 11.5174 4.84558 11.5174C5.60101 11.5174 6.2134 10.905 6.2134 10.1496C6.2134 9.39412 5.60101 7.07191 4.84558 7.07191C4.09014 7.07196 3.47775 9.39412 3.47775 10.1496Z" fill="#43AB5F"/>
<path d="M4.84558 7.07191C5.0352 7.07191 5.21579 7.21848 5.37998 7.44965C4.68857 7.44965 4.12804 9.57506 4.12804 10.2665C4.12804 10.8679 4.55248 11.3693 5.11795 11.4899C5.02991 11.5077 4.93886 11.5174 4.84558 11.5174C4.09014 11.5174 3.47775 10.905 3.47775 10.1496C3.47775 9.39412 4.09014 7.07196 4.84558 7.07191Z" fill="#71BE63"/>
<path d="M15.8394 7.08536C15.8394 6.63097 15.4711 6.26255 15.0166 6.26255C14.948 6.26255 14.8825 6.27338 14.8188 6.2892C14.6041 6.05734 14.2997 5.90991 13.9588 5.90991C13.3096 5.90991 12.7834 6.43615 12.7834 7.08532L15.8394 7.08536Z" fill="#F8FCFF"/>
<path d="M15.9404 3.79297C15.9404 3.38726 15.6116 3.05838 15.2059 3.05838C15.1446 3.05838 15.0861 3.06804 15.0292 3.08218C14.8375 2.87516 14.5658 2.74354 14.2614 2.74354C13.6818 2.74354 13.2119 3.21341 13.2119 3.79297H15.9404Z" fill="#F8FCFF"/>
<path d="M5.8125 4.6358C5.8125 4.30997 6.07667 4.0458 6.4025 4.0458C6.4517 4.0458 6.49871 4.05357 6.54439 4.06492C6.69834 3.89867 6.91663 3.79293 7.16107 3.79293C7.62656 3.79297 8.00391 4.17032 8.00391 4.6358H5.8125Z" fill="#F8FCFF"/>
<path d="M11.6615 11.6562C11.9507 11.6562 11.9989 11.3703 12.0272 11.3125C12.3438 10.668 12.7269 10.9688 13.3555 10.9688C13.847 10.9688 13.9475 10.2526 14.2218 10.2812C14.4961 10.3099 14.938 10.7682 15.319 10.625C15.8658 10.4194 15.8829 10.1094 16.4163 9.9375C16.887 9.78582 17.285 9.89453 17.5136 9.59375C17.9587 9.00809 18.2794 9.64746 18.9767 9.25C19.6858 8.84575 19.9063 9.59375 20.4397 9.59375C21 9.59375 20.8055 8.90625 21.537 8.90625C21.9513 8.90625 22.1956 9.41156 22.7197 9.55443C22.901 10.3413 23 11.159 23 12C23 12.4336 22.9717 12.8605 22.9222 13.281C22.754 13.4371 22.5721 13.5744 22.3897 13.6528C21.7358 13.9336 8.00391 14.1749 8.00391 14.1749V13.0312C9.00976 13.0312 9.00976 12.3438 9.8327 12.3438C10.9414 12.3438 10.8386 11.6562 11.6615 11.6562Z" fill="#00A07D"/>
<path d="M18.4023 19.629L8.21875 14.1748L8.47656 13.6185C10.9423 13.6185 15.2212 11.112 23 12C23 14.74 21.9959 17.2439 20.3386 19.1695C19.2976 19.4182 18.4023 19.629 18.4023 19.629Z" fill="#94D75B"/>
<path d="M8.47656 13.6185C10.7377 13.6185 14.5257 11.5126 21.137 11.8476C15.2591 11.8527 11.6544 14.4839 9.80859 14.4839L9.29297 14.2916L8.46122 13.6517L8.47656 13.6185Z" fill="#B0EB81"/>
<path d="M15.2544 6.14229C15.3534 6.14229 15.4469 6.16175 15.5365 6.19002C15.8204 5.78191 16.2914 5.51357 16.8262 5.51357C17.361 5.51357 17.8319 5.78191 18.1158 6.19002C18.2055 6.16175 18.299 6.14229 18.3979 6.14229C18.9187 6.14229 19.341 6.5645 19.341 7.08536H14.3113C14.3114 6.56454 14.7336 6.14229 15.2544 6.14229Z" fill="#F8FCFF"/>
<path d="M7.875 5.26821C7.9832 5.26821 8.08546 5.28953 8.18347 5.32042C8.49392 4.87415 9.0089 4.58071 9.59375 4.58071C10.1786 4.58071 10.6936 4.87415 11.004 5.32042C11.102 5.28953 11.2043 5.26821 11.3125 5.26821C11.8821 5.26821 12.3438 5.72991 12.3438 6.29946H6.84375C6.84375 5.72991 7.30545 5.26821 7.875 5.26821Z" fill="#F8FCFF"/>
<path d="M15.0635 4.58071C15.0635 3.97163 14.5697 3.47784 13.9606 3.47784C13.8687 3.47784 13.7808 3.49236 13.6954 3.51359C13.4076 3.20279 12.9996 3.00518 12.5426 3.00518C11.6725 3.00518 10.9671 3.71055 10.9671 4.58071H15.0635Z" fill="#F8FCFF"/>
<path d="M22.026 16.5239C20.3006 20.3418 16.462 23 12 23C5.92487 23 1 18.0751 1 12C1 11.8852 1.00516 11.7717 1.00864 11.6577C7.81089 11.6889 10.8954 16.4688 22.026 16.4688V16.5239Z" fill="#71BE63"/>
<path d="M8.00382 14.2915C8.13999 14.2915 8.25029 14.1813 8.25029 14.0453V11.3928C8.25029 11.2568 8.14003 11.1466 8.00382 11.1466C7.86761 11.1466 7.75739 11.2568 7.75739 11.3928V14.0453C7.75739 14.1813 7.86765 14.2915 8.00382 14.2915Z" fill="#674447"/>
<path d="M6.45175 11.1669C6.45175 12.0241 7.14668 12.719 8.00391 12.719C8.86113 12.719 9.55607 12.0241 9.55607 11.1669C9.55607 10.3097 8.86113 7.67446 8.00391 7.67446C7.14668 7.67446 6.45175 10.3096 6.45175 11.1669Z" fill="#43AB5F"/>
<path d="M8.00391 7.67446C8.21909 7.67446 8.42401 7.8408 8.61032 8.10312C7.82572 8.10312 7.18965 10.515 7.18965 11.2996C7.18965 11.982 7.67129 12.5511 8.31298 12.6879C8.21308 12.7081 8.10974 12.719 8.00391 12.719C7.14668 12.719 6.45175 12.0241 6.45175 11.1669C6.45175 10.3096 7.14668 7.67446 8.00391 7.67446Z" fill="#71BE63"/>
<path d="M1.02604 12.7202C5.86058 12.7439 12.7914 19.4331 19.5567 19.9811C17.5861 21.849 14.9298 23 12 23C6.16708 23 1.39733 18.4592 1.02604 12.7202Z" fill="#43AB5F"/>
<path d="M14.5978 20.5651C14.4396 20.5651 14.3114 20.4369 14.3114 20.2787C14.3114 20.1204 14.4396 19.9922 14.5978 19.9922C14.7561 19.9922 14.8843 20.1204 14.8843 20.2787C14.8843 20.4369 14.7561 20.5651 14.5978 20.5651Z" fill="#B0EB81"/>
<path d="M13.2604 17.1963C13.1022 17.1963 12.9739 17.0681 12.9739 16.9099C12.9739 16.7517 13.1022 16.6234 13.2604 16.6234C13.4186 16.6234 13.5469 16.7517 13.5469 16.9099C13.5469 17.0681 13.4186 17.1963 13.2604 17.1963Z" fill="#94D75B"/>
<path d="M5.50888 13.4342C5.35067 13.4342 5.22241 13.3059 5.22241 13.1477C5.22241 12.9895 5.35067 12.8612 5.50888 12.8612C5.6671 12.8612 5.79536 12.9895 5.79536 13.1477C5.79536 13.3059 5.6671 13.4342 5.50888 13.4342Z" fill="#94D75B"/>
<path d="M10.2913 21.0234C10.1331 21.0234 10.0049 20.8952 10.0049 20.737C10.0049 20.5788 10.1331 20.4505 10.2913 20.4505C10.4496 20.4505 10.5778 20.5788 10.5778 20.737C10.5778 20.8952 10.4496 21.0234 10.2913 21.0234Z" fill="#71BE63"/>
<path d="M8.74765 19.2474C8.58944 19.2474 8.46118 19.1192 8.46118 18.9609C8.46118 18.8027 8.58944 18.6745 8.74765 18.6745C8.90587 18.6745 9.03413 18.8027 9.03413 18.9609C9.03413 19.1192 8.90587 19.2474 8.74765 19.2474Z" fill="#B0EB81"/>
<path d="M12 19.6548C11.8418 19.6548 11.7135 19.5266 11.7135 19.3684C11.7135 19.2102 11.8418 19.0819 12 19.0819C12.1582 19.0819 12.2865 19.2102 12.2865 19.3684C12.2865 19.5266 12.1582 19.6548 12 19.6548Z" fill="#71BE63"/>
<path d="M16.8125 20.8516C16.6543 20.8516 16.526 20.7233 16.526 20.5651C16.526 20.4069 16.6543 20.2786 16.8125 20.2786C16.9707 20.2786 17.099 20.4069 17.099 20.5651C17.099 20.7233 16.9707 20.8516 16.8125 20.8516Z" fill="#71BE63"/>
<path d="M16.526 18.433C16.3678 18.433 16.2396 18.3048 16.2396 18.1466C16.2396 17.9883 16.3678 17.8601 16.526 17.8601C16.6842 17.8601 16.8125 17.9883 16.8125 18.1466C16.8125 18.3048 16.6842 18.433 16.526 18.433Z" fill="#B0EB81"/>
<path d="M11.7135 16.125C11.5553 16.125 11.4271 15.9967 11.4271 15.8385C11.4271 15.6803 11.5553 15.5521 11.7135 15.5521C11.8717 15.5521 12 15.6803 12 15.8385C12 15.9967 11.8717 16.125 11.7135 16.125Z" fill="#B0EB81"/>
<path d="M18.8759 18.2898C18.7176 18.2898 18.5894 18.1615 18.5894 18.0033C18.5894 17.8451 18.7176 17.7168 18.8759 17.7168C19.0341 17.7168 19.1623 17.8451 19.1623 18.0033C19.1623 18.1615 19.0341 18.2898 18.8759 18.2898Z" fill="#94D75B"/>
<path d="M6.73818 18.0033C6.57996 18.0033 6.4517 17.8751 6.4517 17.7169C6.4517 17.5586 6.57996 17.4304 6.73818 17.4304C6.89639 17.4304 7.02465 17.5586 7.02465 17.7169C7.02465 17.8751 6.89639 18.0033 6.73818 18.0033Z" fill="#B0EB81"/>
<path d="M3.96476 17.1963C3.80654 17.1963 3.67828 17.0681 3.67828 16.9099C3.67828 16.7517 3.80654 16.6234 3.96476 16.6234C4.12297 16.6234 4.25123 16.7517 4.25123 16.9099C4.25123 17.0681 4.12297 17.1963 3.96476 17.1963Z" fill="#B0EB81"/>
<path d="M9.26964 17.7169C9.11142 17.7169 8.98316 17.5886 8.98316 17.4304C8.98316 17.2722 9.11142 17.1439 9.26964 17.1439C9.42785 17.1439 9.55611 17.2722 9.55611 17.4304C9.55611 17.5886 9.42785 17.7169 9.26964 17.7169Z" fill="#71BE63"/>
<path d="M6.73818 19.9155C6.57996 19.9155 6.4517 19.7872 6.4517 19.629C6.4517 19.4708 6.57996 19.3425 6.73818 19.3425C6.89639 19.3425 7.02465 19.4708 7.02465 19.629C7.02465 19.7872 6.89639 19.9155 6.73818 19.9155Z" fill="#71BE63"/>
<path d="M5.86978 16.4115C5.71156 16.4115 5.5833 16.2832 5.5833 16.125C5.5833 15.9668 5.71156 15.8385 5.86978 15.8385C6.02799 15.8385 6.15625 15.9668 6.15625 16.125C6.15625 16.2832 6.02799 16.4115 5.86978 16.4115Z" fill="#71BE63"/>
<path d="M3.96476 14.7478C3.80654 14.7478 3.67828 14.6195 3.67828 14.4613C3.67828 14.3031 3.80654 14.1748 3.96476 14.1748C4.12297 14.1748 4.25123 14.3031 4.25123 14.4613C4.25123 14.6195 4.12297 14.7478 3.96476 14.7478Z" fill="#71BE63"/>
<path fill-rule="evenodd" clip-rule="evenodd" d="M1.00421 12.3073C1.00231 12.2383 1.00106 12.1691 1.00044 12.0997C1.00015 12.0665 1 12.0333 1 12.0001C1 12.1028 1.00141 12.2052 1.00421 12.3073ZM15.6667 1.62598C13.5305 3.13604 12 7.21059 12 12.0001C12 16.7895 13.5305 20.8641 15.6667 22.3741C19.8755 20.8865 22.9087 16.9101 22.998 12.2132C22.9993 12.1423 23 12.0712 23 12.0001C23 7.21059 19.939 3.13604 15.6667 1.62598ZM12.1756 22.9987C12.3289 22.9963 12.4815 22.9907 12.6332 22.9821L12.1756 22.9987ZM10.8469 22.9403C10.8418 22.9398 10.8368 22.9393 10.8317 22.9387C10.8368 22.9393 10.8418 22.9398 10.8469 22.9403Z" fill="#F3F9FF"/>
<path d="M19.7404 15.2885C19.7403 15.661 19.6531 16.0286 19.4854 16.3631C19.3177 16.6975 19.074 16.99 18.7729 17.2181C18.4718 17.4462 18.1213 17.6038 17.7483 17.679C17.3754 17.7541 16.9898 17.7448 16.621 17.6516C16.1661 17.5366 15.7535 17.2982 15.4309 16.964C15.1083 16.6297 14.8888 16.2131 14.7975 15.7621C14.7063 15.3112 14.747 14.8442 14.9151 14.4149C15.0832 13.9856 15.3717 13.6114 15.7476 13.3355V7.96475C15.7476 7.57628 15.9054 7.20371 16.1862 6.92902C16.467 6.65432 16.8478 6.5 17.2449 6.5C17.642 6.5 18.0229 6.65432 18.3037 6.92902C18.5845 7.20371 18.7422 7.57628 18.7422 7.96475V13.3355C19.0522 13.5629 19.3037 13.8578 19.477 14.1968C19.6502 14.5357 19.7404 14.9095 19.7404 15.2885Z" fill="#67CBF7"/>
<path d="M16.621 17.6517C16.1661 17.5366 15.7535 17.2982 15.4309 16.964C15.1083 16.6297 14.8888 16.2131 14.7975 15.7622C14.7063 15.3112 14.747 14.8442 14.9151 14.4149C15.0832 13.9856 15.3717 13.6115 15.7476 13.3355V7.96476C15.7478 7.68448 15.8302 7.41015 15.985 7.17432C16.1399 6.93849 16.3606 6.75106 16.621 6.63428C16.8815 6.75106 17.1022 6.93849 17.257 7.17432C17.4119 7.41015 17.4943 7.68448 17.4945 7.96476V13.3355C17.8703 13.6115 18.1589 13.9856 18.327 14.4149C18.4951 14.8442 18.5358 15.3112 18.4446 15.7622C18.3533 16.2131 18.1337 16.6297 17.8111 16.964C17.4885 17.2982 17.076 17.5366 16.621 17.6517Z" fill="#9FCBF3"/>
<path d="M19.8873 9.05711H19.2509C19.2087 9.05711 19.1682 9.04072 19.1384 9.01153C19.1086 8.98234 19.0918 8.94276 19.0918 8.90148C19.0918 8.86021 19.1086 8.82062 19.1384 8.79143C19.1682 8.76225 19.2087 8.74585 19.2509 8.74585H19.8873C19.9294 8.74585 19.9699 8.76225 19.9997 8.79143C20.0296 8.82062 20.0463 8.86021 20.0463 8.90148C20.0463 8.94276 20.0296 8.98234 19.9997 9.01153C19.9699 9.04072 19.9294 9.05711 19.8873 9.05711Z" fill="#425B72"/>
<path d="M20.2054 9.83519H19.2509C19.2087 9.83519 19.1682 9.81879 19.1384 9.78961C19.1086 9.76042 19.0918 9.72083 19.0918 9.67956C19.0918 9.63828 19.1086 9.5987 19.1384 9.56951C19.1682 9.54032 19.2087 9.52393 19.2509 9.52393H20.2054C20.2476 9.52393 20.2881 9.54032 20.3179 9.56951C20.3478 9.5987 20.3645 9.63828 20.3645 9.67956C20.3645 9.72083 20.3478 9.76042 20.3179 9.78961C20.2881 9.81879 20.2476 9.83519 20.2054 9.83519Z" fill="#425B72"/>
<path d="M19.8873 10.6135H19.2509C19.2087 10.6135 19.1682 10.5971 19.1384 10.5679C19.1086 10.5387 19.0918 10.4992 19.0918 10.4579C19.0918 10.4166 19.1086 10.377 19.1384 10.3478C19.1682 10.3186 19.2087 10.3022 19.2509 10.3022H19.8873C19.9294 10.3022 19.9699 10.3186 19.9997 10.3478C20.0296 10.377 20.0463 10.4166 20.0463 10.4579C20.0463 10.4992 20.0296 10.5387 19.9997 10.5679C19.9699 10.5971 19.9294 10.6135 19.8873 10.6135Z" fill="#425B72"/>
<path d="M20.2054 11.3916H19.2509C19.2087 11.3916 19.1682 11.3752 19.1384 11.346C19.1086 11.3168 19.0918 11.2772 19.0918 11.236C19.0918 11.1947 19.1086 11.1551 19.1384 11.1259C19.1682 11.0967 19.2087 11.0803 19.2509 11.0803H20.2054C20.2476 11.0803 20.2881 11.0967 20.3179 11.1259C20.3478 11.1551 20.3645 11.1947 20.3645 11.236C20.3645 11.2772 20.3478 11.3168 20.3179 11.346C20.2881 11.3752 20.2476 11.3916 20.2054 11.3916Z" fill="#425B72"/>
<path d="M19.8873 12.1697H19.2509C19.2087 12.1697 19.1682 12.1533 19.1384 12.1241C19.1086 12.0949 19.0918 12.0553 19.0918 12.014C19.0918 11.9728 19.1086 11.9332 19.1384 11.904C19.1682 11.8748 19.2087 11.8584 19.2509 11.8584H19.8873C19.9294 11.8584 19.9699 11.8748 19.9997 11.904C20.0296 11.9332 20.0463 11.9728 20.0463 12.014C20.0463 12.0553 20.0296 12.0949 19.9997 12.1241C19.9699 12.1533 19.9294 12.1697 19.8873 12.1697Z" fill="#425B72"/>
<path d="M18.7427 15.2885C18.743 15.5571 18.6678 15.8206 18.5253 16.0503C18.3828 16.2799 18.1786 16.4667 17.9348 16.5904C17.6911 16.7141 17.4173 16.7698 17.1433 16.7515C16.8694 16.7332 16.6059 16.6416 16.3816 16.4866C16.1573 16.3317 15.9809 16.1194 15.8717 15.8729C15.7624 15.6265 15.7245 15.3554 15.7622 15.0894C15.7998 14.8233 15.9115 14.5725 16.0851 14.3643C16.2587 14.1562 16.4874 13.9987 16.7463 13.9092V10.406H17.7445V13.9092C18.0361 14.0101 18.2887 14.1968 18.4674 14.4438C18.6462 14.6908 18.7423 14.9859 18.7427 15.2885Z" fill="#F26674"/>
<path d="M16.9955 16.7313C16.6698 16.6761 16.3719 16.5169 16.1483 16.2787C15.9247 16.0404 15.788 15.7365 15.7595 15.4143C15.731 15.0921 15.8123 14.7697 15.9908 14.4974C16.1692 14.2252 16.4348 14.0183 16.746 13.9092V10.406H17.2451V13.9092C17.5563 14.0183 17.8219 14.2252 18.0003 14.4974C18.1788 14.7697 18.2601 15.0921 18.2316 15.4143C18.2031 15.7365 18.0664 16.0404 17.8428 16.2787C17.6192 16.5169 17.3213 16.6761 16.9955 16.7313Z" fill="#DB5669"/>
<path d="M17.7433 7.96481V10.4061H16.7451V7.96481C16.7451 7.83532 16.7977 7.71113 16.8913 7.61957C16.9849 7.528 17.1119 7.47656 17.2442 7.47656C17.3766 7.47656 17.5035 7.528 17.5971 7.61957C17.6907 7.71113 17.7433 7.83532 17.7433 7.96481Z" fill="#EDEBF2"/>
</svg>
