<svg width="24" height="24" viewBox="0 0 24 24" fill="none" xmlns="http://www.w3.org/2000/svg">
<path d="M9.91797 17.9299H14.0854V22.5526H9.91797V17.9299Z" fill="#A8D3D8"/>
<path d="M22.0342 10.0327C22.0342 15.5737 17.5424 20.0654 12.0015 20.0654C6.46051 20.0654 1.96875 15.5737 1.96875 10.0327C1.96875 4.49176 6.46051 0 12.0015 0C17.5424 0 22.0342 4.49176 22.0342 10.0327Z" fill="#537983"/>
<path d="M20.3547 10.0326C20.3547 14.6461 16.6146 18.3862 12.0011 18.3862C7.38757 18.3862 3.64746 14.6461 3.64746 10.0326C3.64746 5.41907 7.38757 1.67896 12.0011 1.67896C16.6146 1.67896 20.3547 5.41907 20.3547 10.0326Z" fill="#DEECF1"/>
<path d="M12.0012 1.67896C11.7476 1.67896 11.4968 1.69031 11.249 1.71246C15.5134 2.08966 18.8572 5.67029 18.8572 10.0326C18.8572 14.3949 15.5134 17.9755 11.249 18.3527C11.4968 18.3749 11.7476 18.3862 12.0012 18.3862C16.6147 18.3862 20.3547 14.6461 20.3547 10.0326C20.3549 5.41907 16.6147 1.67896 12.0012 1.67896Z" fill="#A8D3D8"/>
<path d="M19.0502 9.67053H18.4674C18.3885 8.24652 17.8434 6.84412 16.8319 5.71399L17.2417 5.3042C17.3832 5.16266 17.3832 4.93341 17.2417 4.79187C17.1003 4.65051 16.8709 4.65051 16.7296 4.79205L16.3196 5.20184C15.1896 4.19037 13.787 3.64526 12.3632 3.56616V2.98352C12.3632 2.78339 12.2012 2.62134 12.001 2.62134C11.8011 2.62134 11.6389 2.78339 11.6389 2.98352V3.56616C10.215 3.64526 8.81262 4.19037 7.6825 5.20184L7.27271 4.79187C7.13116 4.65051 6.90192 4.65051 6.76038 4.79187C6.61902 4.93341 6.61902 5.16266 6.76038 5.3042L7.17035 5.71399C6.15869 6.84412 5.61359 8.24652 5.53467 9.67053H4.95184C4.75189 9.67053 4.58984 9.83258 4.58984 10.0325C4.58984 10.2327 4.75189 10.3947 4.95184 10.3947H5.53467C5.61359 11.8187 6.15869 13.2211 7.17017 14.3513L6.76056 14.761C6.61902 14.9026 6.61902 15.1318 6.76056 15.2732C6.83124 15.3441 6.92389 15.3794 7.01654 15.3794C7.10919 15.3794 7.20203 15.3441 7.27271 15.2732L7.93097 14.6149C7.93115 14.6147 7.93115 14.6147 7.93134 14.6147C7.94012 14.6058 7.94836 14.5966 7.95605 14.5871C8.07233 14.4448 8.0639 14.235 7.93134 14.1024C7.9306 14.1017 7.92987 14.1011 7.92914 14.1004C5.68738 11.8564 5.68774 8.20734 7.93042 5.96375C7.9306 5.96356 7.93097 5.9632 7.93134 5.96301C7.9317 5.96265 7.93188 5.96228 7.93225 5.96191C10.1764 3.71887 13.8268 3.71906 16.0707 5.96265C16.0707 5.96283 16.0707 5.96283 16.0709 5.96301C16.0709 5.96301 16.0711 5.96301 16.0711 5.9632C18.3145 8.20679 18.3149 11.857 16.0722 14.1011C16.0718 14.1017 16.0713 14.1021 16.0709 14.1024C15.9825 14.1909 15.9493 14.3135 15.9715 14.4276C15.9847 14.4963 16.0178 14.5616 16.0709 14.6147C16.0715 14.6153 16.072 14.6158 16.0726 14.6164L16.7296 15.2732C16.8002 15.3441 16.8929 15.3794 16.9855 15.3794C17.0784 15.3794 17.171 15.3441 17.2417 15.2734C17.3832 15.1318 17.3832 14.9026 17.2417 14.761L16.8319 14.3513C17.8434 13.2211 18.3885 11.8187 18.4674 10.3949H19.0502C19.2504 10.3949 19.4124 10.2327 19.4124 10.0327C19.4124 9.83258 19.2504 9.67053 19.0502 9.67053Z" fill="#00BFD8"/>
<path d="M18.3022 23.9999H5.70032C5.35992 23.9999 5.08398 23.7239 5.08398 23.3834C5.08398 22.4426 5.84662 21.6799 6.78741 21.6799H17.2153C18.1561 21.6799 18.9187 22.4426 18.9187 23.3834C18.9187 23.7239 18.6428 23.9999 18.3022 23.9999Z" fill="#537983"/>
<path d="M17.2151 21.6799H16.4072V21.6829C17.0005 21.7228 17.4694 22.2164 17.4694 22.8199V23.9999H18.302C18.6426 23.9999 18.9185 23.7239 18.9185 23.3834C18.9185 22.4426 18.1559 21.6799 17.2151 21.6799Z" fill="#4D3E59"/>
<path d="M13.3064 15.5423H10.6971C10.497 15.5423 10.335 15.3802 10.335 15.1803C10.335 14.9802 10.497 14.8181 10.6971 14.8181H13.3064C13.5063 14.8181 13.6686 14.9802 13.6686 15.1803C13.6686 15.3802 13.5065 15.5423 13.3064 15.5423Z" fill="#79AA1E"/>
<path d="M14.5728 3.31296C14.2374 3.1857 13.862 3.35416 13.7346 3.68979L10.5943 11.9638C10.467 12.2987 10.6349 12.6733 10.9697 12.8013C11.3055 12.9298 11.6818 12.761 11.8094 12.425L14.9495 4.15122C15.0769 3.81577 14.9083 3.4404 14.5728 3.31296Z" fill="#FF4755"/>
<path d="M13.3489 10.0326C13.3489 10.7767 12.7457 11.3799 12.0016 11.3799C11.2574 11.3799 10.6543 10.7767 10.6543 10.0326C10.6543 9.28845 11.2574 8.6853 12.0016 8.6853C12.7457 8.6853 13.3489 9.28845 13.3489 10.0326Z" fill="#4D3E59"/>
</svg>
