<svg width="24" height="24" viewBox="0 0 24 24" fill="none" xmlns="http://www.w3.org/2000/svg">
<path d="M8.8669 15.7418V2.69237C8.8669 1.75746 8.06176 1 7.06798 1C6.0742 1 5.26779 1.75746 5.26779 2.69237V15.743C3.25365 16.6779 2.42698 18.9717 3.42076 20.8665C4.41454 22.7614 6.85277 23.5391 8.8669 22.6042C10.881 21.6693 11.7077 19.3754 10.7139 17.4806C10.319 16.7255 9.66952 16.1146 8.8669 15.7418Z" fill="#D9D9FF"/>
<path d="M7.06842 1.9646C6.64179 1.9646 6.29492 2.28973 6.29492 2.69228V10.8516L6.30252 10.8599L7.84065 10.8611L7.84192 10.8492V2.69109C7.84192 2.28973 7.49505 1.9646 7.06842 1.9646Z" fill="#EAECFF"/>
<path d="M9.17115 19.135C9.16862 20.2259 8.22675 21.1096 7.06713 21.1072C5.90752 21.1048 4.96818 20.2187 4.97071 19.1278C4.97197 18.3192 5.49861 17.5927 6.29743 17.2949V9.72632H7.84316V17.2949C8.64578 17.595 9.17115 18.3239 9.17115 19.135Z" fill="#6167FF"/>
<path d="M10.3279 13.635H8.86825C8.69354 13.635 8.55176 13.5016 8.55176 13.3373C8.55176 13.1729 8.69354 13.0396 8.86825 13.0396H10.3266C10.5013 13.0396 10.6431 13.1729 10.6431 13.3373C10.6431 13.5016 10.5026 13.635 10.3279 13.635Z" fill="#444B6B"/>
<path d="M10.3279 10.8887H8.86825C8.69354 10.8887 8.55176 10.7553 8.55176 10.591C8.55176 10.4266 8.69354 10.2932 8.86825 10.2932H10.3266C10.5013 10.2932 10.6431 10.4266 10.6431 10.591C10.6431 10.7553 10.5026 10.8887 10.3279 10.8887Z" fill="#444B6B"/>
<path d="M10.3279 8.14236H8.86825C8.69354 8.14236 8.55176 8.00897 8.55176 7.84462C8.55176 7.68026 8.69354 7.54688 8.86825 7.54688H10.3266C10.5013 7.54688 10.6431 7.68026 10.6431 7.84462C10.6431 8.00897 10.5026 8.14236 10.3279 8.14236Z" fill="#444B6B"/>
<path d="M10.3279 5.3948H8.86825C8.69354 5.3948 8.55176 5.26141 8.55176 5.09706C8.55176 4.9327 8.69354 4.79932 8.86825 4.79932H10.3266C10.5013 4.79932 10.6431 4.9327 10.6431 5.09706C10.6431 5.26141 10.5026 5.3948 10.3279 5.3948Z" fill="#444B6B"/>
<path d="M11.1401 19.1611C11.1338 21.2751 9.30957 22.9853 7.0625 22.9841C8.76901 22.235 9.9071 20.6712 10.0312 18.9038C9.7919 17.8058 9.40072 16.741 8.86775 15.7371C10.2565 16.379 11.1363 17.7057 11.1401 19.1611Z" fill="#C1C7FF"/>
<path d="M20 4.76312C19.448 4.76312 19 4.34165 19 3.82236C19 3.30307 19.448 2.88159 20 2.88159C20.552 2.88159 21 3.30307 21 3.82236C21 4.34165 20.552 4.76312 20 4.76312ZM20 3.32441C19.7089 3.32441 19.4726 3.54671 19.4726 3.82058C19.4726 4.09445 19.7089 4.31675 20 4.31675C20.2911 4.31675 20.5274 4.09445 20.5274 3.82058C20.5274 3.54671 20.2911 3.32441 20 3.32441Z" fill="#6167FF"/>
<path d="M13.9783 6.45059C14.3591 6.54019 14.6748 6.71689 14.9256 6.9807C15.1764 7.24451 15.3017 7.55064 15.3017 7.89907C15.3017 8.10813 15.2553 8.31221 15.1624 8.51131C15.0138 8.82988 14.7909 9.0688 14.4937 9.22809C14.2012 9.38737 13.8622 9.46701 13.4767 9.46701C13.2353 9.46701 13.0193 9.41972 12.8289 9.32515C12.6385 9.2256 12.4504 9.09369 12.2647 8.92943C12.195 8.85974 12.1323 8.76019 12.0766 8.63078C12.0255 8.50136 12 8.39434 12 8.30972C12 8.20021 12.0279 8.11311 12.0836 8.0484C12.144 7.97871 12.2229 7.94387 12.3204 7.94387C12.4179 7.94387 12.4946 7.96876 12.5503 8.01853C12.606 8.06831 12.6734 8.14795 12.7523 8.25746C12.8266 8.36199 12.8939 8.4466 12.9543 8.51131C13.0147 8.57104 13.0959 8.62331 13.1981 8.66811C13.3003 8.71291 13.428 8.73531 13.5812 8.73531C13.8924 8.73531 14.1362 8.65317 14.3126 8.48891C14.4891 8.32465 14.5773 8.09319 14.5773 7.79454C14.5773 7.68005 14.5193 7.56557 14.4032 7.45109C14.2871 7.33162 14.1779 7.247 14.0758 7.19723C14.0154 7.16238 13.904 7.12754 13.7414 7.0927C13.5232 7.03297 13.3583 6.97572 13.2469 6.92097C13.1401 6.86124 13.0867 6.76915 13.0867 6.64471C13.0867 6.5601 13.1215 6.47797 13.1911 6.39832C13.2608 6.3137 13.3653 6.20918 13.5046 6.08474C13.6439 5.9603 13.7484 5.85825 13.8181 5.77861C13.8877 5.69399 13.9225 5.60937 13.9225 5.52476C13.8343 5.49987 13.702 5.48742 13.5255 5.48742C13.4465 5.48742 13.3281 5.4924 13.1702 5.50236C13.0309 5.51231 12.9241 5.51729 12.8498 5.51729C12.6826 5.51729 12.5387 5.48742 12.4179 5.42769C12.3018 5.36796 12.2438 5.29081 12.2438 5.19623C12.2438 5.0917 12.2531 5.00957 12.2717 4.94984C12.2902 4.88513 12.3251 4.84531 12.3761 4.83038C12.4087 4.81545 12.4667 4.80798 12.5503 4.80798C12.7778 4.80798 12.9752 4.81545 13.1424 4.83038C13.3281 4.84034 13.4698 4.84531 13.5673 4.84531L14.1454 4.83785C14.6191 4.83785 14.8559 4.9598 14.8559 5.2037C14.8559 5.38787 14.7677 5.59693 14.5912 5.83088C14.4194 6.05985 14.2151 6.26642 13.9783 6.45059Z" fill="#6167FF"/>
<path d="M17.7671 5.47996C17.6092 5.54467 17.4745 5.62929 17.3631 5.73381C17.2516 5.83337 17.1518 5.95532 17.0635 6.09967L16.9521 6.28633C16.8685 6.42072 16.8058 6.53023 16.764 6.61485C16.7222 6.69947 16.6943 6.78907 16.6804 6.88364C16.908 6.63476 17.233 6.51032 17.6556 6.51032C17.8367 6.51032 18.0271 6.56507 18.2268 6.67458C18.4311 6.78409 18.596 6.91102 18.7214 7.05537C18.8003 7.14994 18.8653 7.29429 18.9164 7.48842C18.9721 7.68254 19 7.88911 19 8.10813C19 8.28234 18.9512 8.46154 18.8537 8.64571C18.7562 8.8249 18.6355 8.9817 18.4915 9.11609C18.3522 9.25049 18.2222 9.33511 18.1014 9.36995C17.9157 9.41972 17.7555 9.44461 17.6208 9.44461C17.3143 9.44461 17.031 9.35502 16.771 9.17582C16.5109 8.99663 16.3043 8.7577 16.151 8.45905C15.9978 8.15542 15.9212 7.82689 15.9212 7.47348C15.9212 6.98568 16.0303 6.52027 16.2485 6.07727C16.4714 5.62929 16.764 5.26592 17.1262 4.98718C17.1866 4.94238 17.2934 4.89509 17.4466 4.84531C17.6045 4.79056 17.7438 4.76318 17.8646 4.76318C18.0921 4.76318 18.2059 4.86025 18.2059 5.05437C18.2059 5.16886 18.1664 5.25845 18.0875 5.32316C18.0132 5.38787 17.9064 5.44014 17.7671 5.47996ZM17.4884 8.7577C17.5952 8.7577 17.6858 8.75273 17.7601 8.74277C17.8344 8.72784 17.9017 8.70046 17.9621 8.66064C18.055 8.59096 18.1363 8.50882 18.2059 8.41425C18.2802 8.3147 18.3174 8.22012 18.3174 8.13053C18.3174 7.78707 18.2384 7.54566 18.0805 7.40629C17.9273 7.26691 17.7462 7.19474 17.5372 7.18976C17.4304 7.18976 17.3073 7.22212 17.168 7.28682C17.0333 7.34656 16.9173 7.4262 16.8197 7.52575C16.7269 7.6253 16.6804 7.72236 16.6804 7.81694C16.6804 8.03098 16.7222 8.21017 16.8058 8.35452C16.894 8.49389 17.0008 8.59593 17.1262 8.66064C17.2516 8.72535 17.3723 8.7577 17.4884 8.7577Z" fill="#6167FF"/>
</svg>
