<svg width="18" height="22" viewBox="0 0 18 22" fill="none" xmlns="http://www.w3.org/2000/svg">
<path d="M5.8669 14.7418V1.69237C5.8669 0.757456 5.06176 0 4.06798 0C3.0742 0 2.26779 0.757456 2.26779 1.69237V14.743C0.253654 15.6779 -0.573016 17.9717 0.42076 19.8665C1.41454 21.7614 3.85277 22.5391 5.8669 21.6042C7.88104 20.6693 8.70771 18.3754 7.71393 16.4806C7.31896 15.7255 6.66952 15.1146 5.8669 14.7418Z" fill="#D9D9FF"/>
<path d="M4.06842 0.9646C3.64179 0.9646 3.29492 1.28973 3.29492 1.69228V9.85161L3.30252 9.85994L4.84065 9.86113L4.84192 9.84922V1.69109C4.84192 1.28973 4.49505 0.9646 4.06842 0.9646Z" fill="#EAECFF"/>
<path d="M6.17115 18.135C6.16862 19.2259 5.22675 20.1096 4.06713 20.1072C2.90752 20.1048 1.96818 19.2187 1.97071 18.1278C1.97197 17.3192 2.49861 16.5927 3.29743 16.2949V8.72632H4.84316V16.2949C5.64578 16.595 6.17115 17.3239 6.17115 18.135Z" fill="#6167FF"/>
<path d="M7.3279 12.635H5.86825C5.69354 12.635 5.55176 12.5016 5.55176 12.3373C5.55176 12.1729 5.69354 12.0396 5.86825 12.0396H7.32663C7.50133 12.0396 7.64312 12.1729 7.64312 12.3373C7.64312 12.5016 7.5026 12.635 7.3279 12.635Z" fill="#444B6B"/>
<path d="M7.3279 9.8887H5.86825C5.69354 9.8887 5.55176 9.75531 5.55176 9.59095C5.55176 9.4266 5.69354 9.29321 5.86825 9.29321H7.32663C7.50133 9.29321 7.64312 9.4266 7.64312 9.59095C7.64312 9.75531 7.5026 9.8887 7.3279 9.8887Z" fill="#444B6B"/>
<path d="M7.3279 7.14236H5.86825C5.69354 7.14236 5.55176 7.00897 5.55176 6.84462C5.55176 6.68026 5.69354 6.54688 5.86825 6.54688H7.32663C7.50133 6.54688 7.64312 6.68026 7.64312 6.84462C7.64312 7.00897 7.5026 7.14236 7.3279 7.14236Z" fill="#444B6B"/>
<path d="M7.3279 4.3948H5.86825C5.69354 4.3948 5.55176 4.26141 5.55176 4.09706C5.55176 3.9327 5.69354 3.79932 5.86825 3.79932H7.32663C7.50133 3.79932 7.64312 3.9327 7.64312 4.09706C7.64312 4.26141 7.5026 4.3948 7.3279 4.3948Z" fill="#444B6B"/>
<path d="M8.14015 18.1611C8.13382 20.2751 6.30957 21.9853 4.0625 21.9841C5.76901 21.235 6.9071 19.6712 7.03117 17.9038C6.7919 16.8058 6.40072 15.741 5.86775 14.7371C7.25651 15.379 8.13635 16.7057 8.14015 18.1611Z" fill="#C1C7FF"/>
<path d="M17 3.76312C16.448 3.76312 16 3.34165 16 2.82236C16 2.30307 16.448 1.88159 17 1.88159C17.552 1.88159 18 2.30307 18 2.82236C18 3.34165 17.552 3.76312 17 3.76312ZM17 2.32441C16.7089 2.32441 16.4726 2.54671 16.4726 2.82058C16.4726 3.09445 16.7089 3.31675 17 3.31675C17.2911 3.31675 17.5274 3.09445 17.5274 2.82058C17.5274 2.54671 17.2911 2.32441 17 2.32441Z" fill="#6167FF"/>
<path d="M10.9783 5.45059C11.3591 5.54019 11.6748 5.71689 11.9256 5.9807C12.1764 6.24451 12.3017 6.55064 12.3017 6.89907C12.3017 7.10813 12.2553 7.31221 12.1624 7.51131C12.0138 7.82988 11.7909 8.0688 11.4937 8.22809C11.2012 8.38737 10.8622 8.46701 10.4767 8.46701C10.2353 8.46701 10.0193 8.41972 9.82892 8.32515C9.63852 8.2256 9.45045 8.09369 9.2647 7.92943C9.19504 7.85974 9.13235 7.76019 9.07662 7.63078C9.02554 7.50136 9 7.39434 9 7.30972C9 7.20021 9.02786 7.11311 9.08359 7.0484C9.14396 6.97871 9.2229 6.94387 9.32042 6.94387C9.41794 6.94387 9.49457 6.96876 9.55029 7.01853C9.60602 7.06831 9.67335 7.14795 9.7523 7.25746C9.8266 7.36199 9.89393 7.4466 9.9543 7.51131C10.0147 7.57104 10.0959 7.62331 10.1981 7.66811C10.3003 7.71291 10.428 7.73531 10.5812 7.73531C10.8924 7.73531 11.1362 7.65317 11.3126 7.48891C11.4891 7.32465 11.5773 7.09319 11.5773 6.79454C11.5773 6.68005 11.5193 6.56557 11.4032 6.45109C11.2871 6.33162 11.1779 6.247 11.0758 6.19723C11.0154 6.16238 10.904 6.12754 10.7414 6.0927C10.5232 6.03297 10.3583 5.97572 10.2469 5.92097C10.1401 5.86124 10.0867 5.76915 10.0867 5.64471C10.0867 5.5601 10.1215 5.47797 10.1911 5.39832C10.2608 5.3137 10.3653 5.20918 10.5046 5.08474C10.6439 4.9603 10.7484 4.85825 10.8181 4.77861C10.8877 4.69399 10.9225 4.60937 10.9225 4.52476C10.8343 4.49987 10.702 4.48742 10.5255 4.48742C10.4465 4.48742 10.3281 4.4924 10.1702 4.50236C10.0309 4.51231 9.92412 4.51729 9.84982 4.51729C9.68264 4.51729 9.53868 4.48742 9.41794 4.42769C9.30185 4.36796 9.2438 4.29081 9.2438 4.19623C9.2438 4.0917 9.25309 4.00957 9.27166 3.94984C9.29024 3.88513 9.32507 3.84531 9.37615 3.83038C9.40866 3.81545 9.4667 3.80798 9.55029 3.80798C9.77784 3.80798 9.9752 3.81545 10.1424 3.83038C10.3281 3.84034 10.4698 3.84531 10.5673 3.84531L11.1454 3.83785C11.6191 3.83785 11.8559 3.9598 11.8559 4.2037C11.8559 4.38787 11.7677 4.59693 11.5912 4.83088C11.4194 5.05985 11.2151 5.26642 10.9783 5.45059Z" fill="#6167FF"/>
<path d="M14.7671 4.47996C14.6092 4.54467 14.4745 4.62929 14.3631 4.73381C14.2516 4.83337 14.1518 4.95532 14.0635 5.09967L13.9521 5.28633C13.8685 5.42072 13.8058 5.53023 13.764 5.61485C13.7222 5.69947 13.6943 5.78907 13.6804 5.88364C13.908 5.63476 14.233 5.51032 14.6556 5.51032C14.8367 5.51032 15.0271 5.56507 15.2268 5.67458C15.4311 5.78409 15.596 5.91102 15.7214 6.05537C15.8003 6.14994 15.8653 6.29429 15.9164 6.48842C15.9721 6.68254 16 6.88911 16 7.10813C16 7.28234 15.9512 7.46154 15.8537 7.64571C15.7562 7.8249 15.6355 7.9817 15.4915 8.11609C15.3522 8.25049 15.2222 8.33511 15.1014 8.36995C14.9157 8.41972 14.7555 8.44461 14.6208 8.44461C14.3143 8.44461 14.031 8.35502 13.771 8.17582C13.5109 7.99663 13.3043 7.7577 13.151 7.45905C12.9978 7.15542 12.9212 6.82689 12.9212 6.47348C12.9212 5.98568 13.0303 5.52027 13.2485 5.07727C13.4714 4.62929 13.764 4.26592 14.1262 3.98718C14.1866 3.94238 14.2934 3.89509 14.4466 3.84531C14.6045 3.79056 14.7438 3.76318 14.8646 3.76318C15.0921 3.76318 15.2059 3.86025 15.2059 4.05437C15.2059 4.16886 15.1664 4.25845 15.0875 4.32316C15.0132 4.38787 14.9064 4.44014 14.7671 4.47996ZM14.4884 7.7577C14.5952 7.7577 14.6858 7.75273 14.7601 7.74277C14.8344 7.72784 14.9017 7.70046 14.9621 7.66064C15.055 7.59096 15.1363 7.50882 15.2059 7.41425C15.2802 7.3147 15.3174 7.22012 15.3174 7.13053C15.3174 6.78707 15.2384 6.54566 15.0805 6.40629C14.9273 6.26691 14.7462 6.19474 14.5372 6.18976C14.4304 6.18976 14.3073 6.22212 14.168 6.28682C14.0333 6.34656 13.9173 6.4262 13.8197 6.52575C13.7269 6.6253 13.6804 6.72236 13.6804 6.81694C13.6804 7.03098 13.7222 7.21017 13.8058 7.35452C13.894 7.49389 14.0008 7.59593 14.1262 7.66064C14.2516 7.72535 14.3723 7.7577 14.4884 7.7577Z" fill="#6167FF"/>
</svg>
