<svg width="24" height="24" viewBox="0 0 24 24" fill="none" xmlns="http://www.w3.org/2000/svg">
<g clip-path="url(#clip0_2842_583)">
<g clip-path="url(#clip1_2842_583)">
<path d="M20.3831 7.52207L12.777 16.6305C12.2453 16.9521 11.6822 17.2664 11.0868 17.5731C11.0724 17.5808 11.0579 17.5886 11.0434 17.5958C10.5726 17.8377 10.0148 17.8377 9.544 17.5958C-6.88222 9.16345 1.09525 -5.3679 9.71204 2.03831C10.0472 2.32612 10.5402 2.32612 10.8753 2.03831C15.7724 -2.1706 20.4632 0.705979 20.584 5.52192C20.6009 6.15885 20.5367 6.82959 20.3831 7.52207Z" fill="#FF6161"/>
<path d="M20.3835 7.52218L12.7773 16.6306C12.2457 16.9522 11.6826 17.2666 11.0872 17.5732C10.246 16.2979 9.75586 14.771 9.75586 13.132C9.75586 8.67245 13.3844 5.04395 17.8439 5.04395C18.8054 5.04395 19.7282 5.21246 20.5844 5.52202C20.6012 6.15896 20.537 6.8297 20.3835 7.52218Z" fill="#E62E2E"/>
<path d="M18.0235 20.602C18.0131 20.4086 17.847 20.2599 17.655 20.2704C17.4616 20.28 17.3124 20.4449 17.3213 20.6384C17.3218 20.6486 17.3599 21.6688 16.6358 22.4268C16.0845 23.0041 15.2289 23.2968 14.0931 23.2968C11.6135 23.2968 10.4061 22.3428 9.2385 21.4201C8.17252 20.5778 7.07021 19.7068 5.11763 19.7068C2.96771 19.7068 1.69177 20.756 0.999987 21.6361C0.256081 22.5826 0.0198311 23.5253 0.010128 23.5649C-0.0359501 23.7535 0.0795499 23.9438 0.268175 23.9898C0.296206 23.9967 0.324237 24 0.351894 24C0.510144 24 0.653862 23.8924 0.693144 23.7318C0.695159 23.7236 0.901972 22.8987 1.55278 22.0706C2.41889 20.9686 3.61828 20.4099 5.11758 20.4099C6.82589 20.4099 7.74188 21.1337 8.80252 21.9717C10.0056 22.9224 11.3692 23.9999 14.0931 23.9999C15.4338 23.9999 16.4631 23.6313 17.1523 22.9041C18.0831 21.922 18.0264 20.6554 18.0235 20.602Z" fill="#87D2F2"/>
<path d="M19.7655 18.9841H15.922C15.8926 19.1602 15.8555 19.4514 15.8555 19.798C15.8555 19.902 15.8588 20.0011 15.8643 20.0935C15.8882 20.4975 16.209 20.8205 16.6131 20.8445C16.9372 20.8637 17.3623 20.881 17.8437 20.881C18.3252 20.881 18.7502 20.8638 19.0744 20.8445C19.4783 20.8205 19.7992 20.4975 19.8232 20.0935C19.8286 20.0011 19.832 19.902 19.832 19.798C19.832 19.4514 19.7948 19.1602 19.7655 18.9841Z" fill="#4E5660"/>
<path d="M24.0004 13.1319C24.0004 16.2243 21.7197 18.7847 18.7489 19.2221C18.4534 19.2656 18.1516 19.2883 17.844 19.2883C14.4439 19.2883 11.6875 16.5319 11.6875 13.1318C11.6875 9.73173 14.4439 6.97534 17.844 6.97534C18.1516 6.97534 18.4534 6.99803 18.7489 7.04148C21.7197 7.47906 24.0004 10.0394 24.0004 13.1319Z" fill="#D4E8FB"/>
<path d="M18.7489 19.2221C18.4534 19.2656 18.1516 19.2883 17.844 19.2883C14.4439 19.2883 11.6875 16.5319 11.6875 13.1318C11.6875 9.73173 14.4439 6.97534 17.844 6.97534C18.1516 6.97534 18.4534 6.99803 18.7489 7.04148C15.7777 7.47897 13.497 10.0388 13.497 13.1318C13.497 16.2248 15.7777 18.7847 18.7489 19.2221Z" fill="#87D2F2"/>
<path d="M20.8311 10.1444C20.6937 10.0072 20.4712 10.0072 20.3339 10.1444L18.3452 12.1332C18.2079 12.2706 18.2079 12.4931 18.3452 12.6304C18.4138 12.699 18.5038 12.7333 18.5938 12.7333C18.6837 12.7333 18.7737 12.699 18.8424 12.6304L20.8311 10.6416C20.9684 10.5043 20.9684 10.2818 20.8311 10.1444Z" fill="#FF6161"/>
<path d="M17.8447 14.4209C18.5567 14.4209 19.1338 13.8438 19.1338 13.1318C19.1338 12.4199 18.5567 11.8428 17.8447 11.8428C17.1328 11.8428 16.5557 12.4199 16.5557 13.1318C16.5557 13.8438 17.1328 14.4209 17.8447 14.4209Z" fill="#4E5660"/>
<path d="M17.8438 17.3508C18.0379 17.3508 18.1953 17.1934 18.1953 16.9993C18.1953 16.8051 18.0379 16.6477 17.8438 16.6477C17.6496 16.6477 17.4922 16.8051 17.4922 16.9993C17.4922 17.1934 17.6496 17.3508 17.8438 17.3508Z" fill="#87D2F2"/>
<path d="M20.5781 16.2183C20.7723 16.2183 20.9297 16.0609 20.9297 15.8667C20.9297 15.6725 20.7723 15.5151 20.5781 15.5151C20.384 15.5151 20.2266 15.6725 20.2266 15.8667C20.2266 16.0609 20.384 16.2183 20.5781 16.2183Z" fill="#87D2F2"/>
<path d="M15.1094 16.2183C15.3035 16.2183 15.4609 16.0609 15.4609 15.8667C15.4609 15.6725 15.3035 15.5151 15.1094 15.5151C14.9152 15.5151 14.7578 15.6725 14.7578 15.8667C14.7578 16.0609 14.9152 16.2183 15.1094 16.2183Z" fill="#87D2F2"/>
<path d="M13.9766 13.4836C14.1707 13.4836 14.3281 13.3262 14.3281 13.1321C14.3281 12.9379 14.1707 12.7805 13.9766 12.7805C13.7824 12.7805 13.625 12.9379 13.625 13.1321C13.625 13.3262 13.7824 13.4836 13.9766 13.4836Z" fill="#87D2F2"/>
<path d="M15.1094 10.749C15.3035 10.749 15.4609 10.5916 15.4609 10.3975C15.4609 10.2033 15.3035 10.0459 15.1094 10.0459C14.9152 10.0459 14.7578 10.2033 14.7578 10.3975C14.7578 10.5916 14.9152 10.749 15.1094 10.749Z" fill="#87D2F2"/>
<path d="M17.8438 9.61646C18.0379 9.61646 18.1953 9.45906 18.1953 9.26489C18.1953 9.07073 18.0379 8.91333 17.8438 8.91333C17.6496 8.91333 17.4922 9.07073 17.4922 9.26489C17.4922 9.45906 17.6496 9.61646 17.8438 9.61646Z" fill="#87D2F2"/>
<path d="M21.7109 13.4836C21.9051 13.4836 22.0625 13.3262 22.0625 13.1321C22.0625 12.9379 21.9051 12.7805 21.7109 12.7805C21.5168 12.7805 21.3594 12.9379 21.3594 13.1321C21.3594 13.3262 21.5168 13.4836 21.7109 13.4836Z" fill="#87D2F2"/>
</g>
</g>
<defs>
<clipPath id="clip0_2842_583">
<rect width="24" height="24" fill="white"/>
</clipPath>
<clipPath id="clip1_2842_583">
<rect width="24" height="24" fill="white"/>
</clipPath>
</defs>
</svg>
