<svg width="24" height="24" viewBox="0 0 24 24" fill="none" xmlns="http://www.w3.org/2000/svg">
<path d="M20.0064 3.99358L15.5587 8.44125C14.6478 7.53038 13.3896 6.96689 12 6.96689V0.677246C15.1265 0.677246 17.9576 1.94426 20.0064 3.99358Z" fill="url(#paint0_linear_2842_366)"/>
<path d="M8.44173 8.44132C7.53086 9.35219 6.96738 10.6105 6.96738 12H0.677734C0.677734 8.87351 1.94475 6.04245 3.99406 3.99365L8.44173 8.44132Z" fill="url(#paint1_linear_2842_366)"/>
<path d="M12.0005 0.677246V6.96689C10.6109 6.96689 9.35268 7.53038 8.44181 8.44125L3.99414 3.99358C6.04294 1.94426 8.874 0.677246 12.0005 0.677246Z" fill="url(#paint2_linear_2842_366)"/>
<path d="M23.3236 12H17.0339C17.0339 10.6105 16.4704 9.35219 15.5596 8.44132L20.0072 3.99365C22.0566 6.04245 23.3236 8.87351 23.3236 12Z" fill="url(#paint3_linear_2842_366)"/>
<path d="M23.3236 12C23.3236 15.1265 22.0566 17.9576 20.0072 20.0064L15.5596 15.5587C16.4704 14.6478 17.0339 13.3896 17.0339 12H23.3236Z" fill="url(#paint4_linear_2842_366)"/>
<path d="M8.44173 15.5587L3.99406 20.0064C1.94475 17.9576 0.677734 15.1265 0.677734 12H6.96738C6.96738 13.3896 7.53086 14.6478 8.44173 15.5587Z" fill="url(#paint5_linear_2842_366)"/>
<path d="M20.0064 20.0063C17.9576 22.0556 15.1265 23.3226 12 23.3226V17.0329C13.3896 17.0329 14.6478 16.4695 15.5587 15.5586L20.0064 20.0063Z" fill="url(#paint6_linear_2842_366)"/>
<path d="M12.0005 17.0329V23.3226C8.874 23.3226 6.04294 22.0556 3.99414 20.0063L8.44181 15.5586C9.35268 16.4695 10.6109 17.0329 12.0005 17.0329Z" fill="url(#paint7_linear_2842_366)"/>
<path d="M18.0736 5.92632L15.5587 8.4412C14.6478 7.53032 13.3896 6.96684 12 6.96684V3.41089C14.3721 3.41089 16.5188 4.37211 18.0736 5.92632Z" fill="url(#paint8_linear_2842_366)"/>
<path d="M8.44144 8.44114C7.53057 9.35201 6.96709 10.6103 6.96709 11.9998H3.41113C3.41113 9.62773 4.37231 7.48105 5.92657 5.92627L8.44144 8.44114Z" fill="url(#paint9_linear_2842_366)"/>
<path d="M12.0003 3.41089V6.96684C10.6108 6.96684 9.3525 7.53032 8.44163 8.4412L5.92676 5.92632C7.48153 4.37211 9.62822 3.41089 12.0003 3.41089Z" fill="url(#paint10_linear_2842_366)"/>
<path d="M20.5889 11.9998H17.0329C17.0329 10.6103 16.4695 9.35201 15.5586 8.44114L18.0735 5.92627C19.6277 7.48105 20.5889 9.62773 20.5889 11.9998Z" fill="url(#paint11_linear_2842_366)"/>
<path d="M20.5889 11.9998C20.5889 14.3719 19.6277 16.5185 18.0735 18.0733L15.5586 15.5584C16.4695 14.6476 17.0329 13.3893 17.0329 11.9998H20.5889Z" fill="url(#paint12_linear_2842_366)"/>
<path d="M8.44144 15.5584L5.92657 18.0733C4.37236 16.5185 3.41113 14.3719 3.41113 11.9998H6.96709C6.96709 13.3893 7.53057 14.6476 8.44144 15.5584Z" fill="url(#paint13_linear_2842_366)"/>
<path d="M18.0736 18.0735C16.5188 19.6277 14.3721 20.5889 12 20.5889V17.0329C13.3896 17.0329 14.6478 16.4695 15.5587 15.5586L18.0736 18.0735Z" fill="url(#paint14_linear_2842_366)"/>
<path d="M12.0003 17.0329V20.5889C9.62822 20.5889 7.48153 19.6277 5.92676 18.0735L8.44163 15.5586C9.3525 16.4695 10.6108 17.0329 12.0003 17.0329Z" fill="url(#paint15_linear_2842_366)"/>
<path d="M21.3146 5.56079L16.6945 10.1808C16.9134 10.7451 17.0338 11.3585 17.0338 12C17.0338 13.3895 16.4703 14.6478 15.5594 15.5587C14.6485 16.4695 13.3903 17.033 12.0007 17.033C11.3592 17.033 10.7458 16.9127 10.1816 16.6938L5.56152 21.3138C7.38976 22.5802 9.60854 23.3227 12.0008 23.3227C15.1273 23.3227 17.9583 22.0557 20.0071 20.0063C22.0564 17.9576 23.3235 15.1265 23.3235 12C23.3234 9.6078 22.581 7.38903 21.3146 5.56079Z" fill="url(#paint16_linear_2842_366)"/>
<path d="M2.44303 16.6843L0.0248622 23.4488C-0.092126 23.7761 0.223921 24.0922 0.551215 23.9752L7.31569 21.557C8.66529 20.2074 3.79258 15.3348 2.44303 16.6843Z" fill="url(#paint17_linear_2842_366)"/>
<path d="M15.482 13.3917L7.31588 21.5569C7.18247 21.3257 6.97974 21.1212 6.72002 20.9762C6.3652 20.7797 5.81028 20.8873 5.42609 21.0038C5.34247 21.0287 5.266 20.9851 5.23489 20.9184C5.21531 20.8784 5.21178 20.8295 5.2331 20.7815C5.23399 20.7815 5.23399 20.7806 5.23399 20.7806C5.25536 20.7317 5.27404 20.6819 5.29004 20.6321C5.29715 20.6081 5.30425 20.5841 5.31141 20.56C5.3123 20.5583 5.3123 20.5574 5.3123 20.5556C5.33277 20.4783 5.34698 20.4009 5.35498 20.3217C5.35767 20.2959 5.35945 20.2693 5.36119 20.2435C5.36341 20.2005 5.36383 20.1575 5.36242 20.1146C5.35268 19.8139 5.25447 19.5153 5.06769 19.2617C5.02232 19.1994 4.97164 19.1407 4.91564 19.0847C4.85959 19.0287 4.80091 18.978 4.73865 18.9326C4.44872 18.7192 4.10011 18.6214 3.75687 18.6391C3.73108 18.6409 3.70439 18.6427 3.67861 18.6454C3.59945 18.6534 3.52119 18.6676 3.44472 18.688C3.44294 18.688 3.44204 18.688 3.44025 18.6889C3.41625 18.696 3.39221 18.7031 3.36821 18.7103C3.34242 18.7183 3.31752 18.7272 3.29263 18.737C3.26863 18.7459 3.24458 18.7557 3.22058 18.7663C3.21969 18.7663 3.21969 18.7663 3.21879 18.7672C3.17075 18.7886 3.12185 18.785 3.08185 18.7655C3.01517 18.7343 2.97159 18.6578 2.99649 18.5743C3.11301 18.1901 3.22058 17.636 3.02407 17.2812C2.87908 17.0206 2.67545 16.8179 2.44336 16.6845L10.6086 8.51839C10.9768 8.1511 11.5726 8.1511 11.9399 8.51839L12.6345 9.21293L14.7875 11.3659L15.482 12.0605C15.8492 12.4277 15.8492 13.0235 15.482 13.3917Z" fill="url(#paint18_linear_2842_366)"/>
<path d="M14.7876 11.3659L5.23507 20.9185C5.21549 20.8785 5.21196 20.8295 5.23328 20.7815C5.23417 20.7815 5.23417 20.7807 5.23417 20.7807C5.25554 20.7318 5.34801 20.4 5.35511 20.3218C5.35869 20.2951 5.36043 20.2693 5.36133 20.2435C5.37911 19.9003 5.28128 19.5517 5.06787 19.2617C5.0225 19.1995 4.97182 19.1408 4.91582 19.0847C4.85977 19.0287 4.80109 18.978 4.73883 18.9327C4.4489 18.7192 4.10029 18.6214 3.75704 18.6392C3.73125 18.6401 3.70547 18.6419 3.67878 18.6454C3.60053 18.6525 3.52227 18.6668 3.4449 18.6881C3.44311 18.6881 3.44222 18.6881 3.44043 18.689C3.41643 18.6952 3.24481 18.7557 3.22076 18.7663C3.21987 18.7663 3.21987 18.7664 3.21897 18.7672C3.17093 18.7886 3.12203 18.785 3.08203 18.7655L12.6346 9.21289L14.7876 11.3659Z" fill="url(#paint19_linear_2842_366)"/>
<path d="M1.39027 22.6096C1.13427 22.3536 0.848156 22.1482 0.545521 21.9922L0.0248622 23.4487C-0.092126 23.776 0.223921 24.0921 0.551215 23.9751L2.00773 23.4544C1.85169 23.1517 1.64627 22.8656 1.39027 22.6096Z" fill="url(#paint20_linear_2842_366)"/>
<path d="M23.2379 0.761728L13.3774 10.6222L11.935 9.1798C11.6206 8.8654 11.6206 8.35561 11.935 8.04121L12.7977 7.17853C13.1701 6.80615 13.3793 6.30112 13.3793 5.77453V4.69947C13.3793 3.85368 13.915 3.10074 14.7141 2.82356L22.7774 0.0266695C23.2238 -0.128201 23.572 0.427611 23.2379 0.761728Z" fill="url(#paint21_linear_2842_366)"/>
<path d="M23.2374 0.761673L13.377 10.6221L14.8194 12.0645C15.1338 12.3789 15.6435 12.3789 15.9579 12.0645L16.8206 11.2019C17.193 10.8295 17.698 10.6203 18.2246 10.6203H19.2996C20.1454 10.6203 20.8984 10.0845 21.1755 9.28544L23.9724 1.2221C24.1273 0.775743 23.5715 0.427555 23.2374 0.761673Z" fill="url(#paint22_linear_2842_366)"/>
<path d="M18.5918 5.87049L23.5446 0.917641C23.6679 0.794347 23.6826 0.593641 23.5675 0.462629C23.4414 0.319053 23.2225 0.313782 23.0895 0.446723L18.1404 5.39595C17.8163 5.72 17.3673 5.89741 16.9108 5.85708C16.4885 5.81981 16.0522 5.97967 15.7511 6.33684C15.3246 6.84296 15.3313 7.59788 15.766 8.09708C16.2879 8.69642 17.198 8.7199 17.7503 8.16757C18.0396 7.8783 18.1708 7.49096 18.1442 7.11265C18.1116 6.65171 18.2651 6.19722 18.5918 5.87049Z" fill="url(#paint23_linear_2842_366)"/>
<path d="M13.2956 6.34424C13.202 6.65647 13.0323 6.94391 12.7977 7.17859L11.935 8.04127C11.6206 8.35567 11.6206 8.86546 11.935 9.17986L13.3774 10.6223L14.8198 12.0647C15.1342 12.3791 15.644 12.3791 15.9584 12.0647L16.8211 11.202C17.0558 10.9673 17.3432 10.7976 17.6554 10.7041L13.2956 6.34424Z" fill="url(#paint24_linear_2842_366)"/>
<path d="M14.2738 14.5993L9.40039 9.72586L11.3426 7.7837C11.5675 7.55875 11.9322 7.55875 12.157 7.7837L16.2159 11.8426C16.4409 12.0675 16.4409 12.4322 16.2159 12.6571L14.2738 14.5993Z" fill="url(#paint25_linear_2842_366)"/>
<defs>
<linearGradient id="paint0_linear_2842_366" x1="10.7744" y1="0.251458" x2="18.26" y2="7.73711" gradientUnits="userSpaceOnUse">
<stop stop-color="#FFF5D9"/>
<stop offset="1" stop-color="#FFCE47"/>
</linearGradient>
<linearGradient id="paint1_linear_2842_366" x1="2.12079" y1="7.7817" x2="5.47143" y2="11.1323" gradientUnits="userSpaceOnUse">
<stop stop-color="#6FA953"/>
<stop offset="1" stop-color="#43765A"/>
</linearGradient>
<linearGradient id="paint2_linear_2842_366" x1="7.58529" y1="1.92336" x2="11.9886" y2="6.32671" gradientUnits="userSpaceOnUse">
<stop stop-color="#E4E08E"/>
<stop offset="1" stop-color="#6FA953"/>
</linearGradient>
<linearGradient id="paint3_linear_2842_366" x1="15.6165" y1="5.09276" x2="22.7632" y2="12.2395" gradientUnits="userSpaceOnUse">
<stop stop-color="#FFCE47"/>
<stop offset="1" stop-color="#FF9356"/>
</linearGradient>
<linearGradient id="paint4_linear_2842_366" x1="17.2042" y1="11.5419" x2="21.3473" y2="15.6851" gradientUnits="userSpaceOnUse">
<stop stop-color="#FF9356"/>
<stop offset="1" stop-color="#FF755C"/>
</linearGradient>
<linearGradient id="paint5_linear_2842_366" x1="1.5238" y1="12.0463" x2="6.39896" y2="16.9214" gradientUnits="userSpaceOnUse">
<stop stop-color="#7ACBFF"/>
<stop offset="1" stop-color="#45A2E0"/>
</linearGradient>
<linearGradient id="paint6_linear_2842_366" x1="11.992" y1="17.6533" x2="16.0819" y2="21.7432" gradientUnits="userSpaceOnUse">
<stop stop-color="#FF755C"/>
<stop offset="1" stop-color="#FF4181"/>
</linearGradient>
<linearGradient id="paint7_linear_2842_366" x1="5.01122" y1="15.5335" x2="14.9009" y2="25.4232" gradientUnits="userSpaceOnUse">
<stop stop-color="#FF4181"/>
<stop offset="1" stop-color="#843561"/>
</linearGradient>
<linearGradient id="paint8_linear_2842_366" x1="16.5211" y1="7.93089" x2="11.914" y2="3.32378" gradientUnits="userSpaceOnUse">
<stop stop-color="#FFF5D9"/>
<stop offset="1" stop-color="#FFCE47"/>
</linearGradient>
<linearGradient id="paint9_linear_2842_366" x1="7.41843" y1="11.7126" x2="1.70831" y2="6.0025" gradientUnits="userSpaceOnUse">
<stop stop-color="#6FA953"/>
<stop offset="1" stop-color="#43765A"/>
</linearGradient>
<linearGradient id="paint10_linear_2842_366" x1="11.4122" y1="7.11729" x2="6.33052" y2="2.03559" gradientUnits="userSpaceOnUse">
<stop stop-color="#E4E08E"/>
<stop offset="1" stop-color="#6FA953"/>
</linearGradient>
<linearGradient id="paint11_linear_2842_366" x1="20.5347" y1="11.9446" x2="15.1701" y2="6.57996" gradientUnits="userSpaceOnUse">
<stop stop-color="#FFCE47"/>
<stop offset="1" stop-color="#FF9356"/>
</linearGradient>
<linearGradient id="paint12_linear_2842_366" x1="20.1649" y1="15.8702" x2="16.5809" y2="12.2863" gradientUnits="userSpaceOnUse">
<stop stop-color="#FF9356"/>
<stop offset="1" stop-color="#FF755C"/>
</linearGradient>
<linearGradient id="paint13_linear_2842_366" x1="8.82657" y1="17.4163" x2="2.20944" y2="10.7991" gradientUnits="userSpaceOnUse">
<stop stop-color="#7ACBFF"/>
<stop offset="1" stop-color="#45A2E0"/>
</linearGradient>
<linearGradient id="paint14_linear_2842_366" x1="16.062" y1="20.3564" x2="11.2389" y2="15.5333" gradientUnits="userSpaceOnUse">
<stop stop-color="#FF755C"/>
<stop offset="1" stop-color="#FF4181"/>
</linearGradient>
<linearGradient id="paint15_linear_2842_366" x1="12.1092" y1="20.6988" x2="6.22304" y2="14.8127" gradientUnits="userSpaceOnUse">
<stop stop-color="#FF4181"/>
<stop offset="1" stop-color="#843561"/>
</linearGradient>
<linearGradient id="paint16_linear_2842_366" x1="16.862" y1="16.8614" x2="13.4413" y2="13.4406" gradientUnits="userSpaceOnUse">
<stop stop-color="#843561" stop-opacity="0"/>
<stop offset="1" stop-color="#3A2F4D"/>
</linearGradient>
<linearGradient id="paint17_linear_2842_366" x1="0.576184" y1="18.5498" x2="5.44816" y2="23.4218" gradientUnits="userSpaceOnUse">
<stop stop-color="#FFE0EA"/>
<stop offset="1" stop-color="#FFC0D5"/>
</linearGradient>
<linearGradient id="paint18_linear_2842_366" x1="2.44336" y1="14.8999" x2="15.7574" y2="14.8999" gradientUnits="userSpaceOnUse">
<stop stop-color="#FFCE47"/>
<stop offset="1" stop-color="#FF9356"/>
</linearGradient>
<linearGradient id="paint19_linear_2842_366" x1="10.9566" y1="17.0875" x2="6.03761" y2="12.1685" gradientUnits="userSpaceOnUse">
<stop stop-color="#FFCE47"/>
<stop offset="1" stop-color="#FF9356"/>
</linearGradient>
<linearGradient id="paint20_linear_2842_366" x1="0.614764" y1="23.0889" x2="1.85789" y2="24.332" gradientUnits="userSpaceOnUse">
<stop stop-color="#2F73A0"/>
<stop offset="1" stop-color="#174461"/>
</linearGradient>
<linearGradient id="paint21_linear_2842_366" x1="17.3147" y1="4.2122" x2="17.9562" y2="5.26617" gradientUnits="userSpaceOnUse">
<stop stop-color="#C4DEFD"/>
<stop offset="1" stop-color="#D3EEFF"/>
</linearGradient>
<linearGradient id="paint22_linear_2842_366" x1="18.9435" y1="6.24018" x2="19.8142" y2="7.79821" gradientUnits="userSpaceOnUse">
<stop stop-color="#A9CEFD"/>
<stop offset="1" stop-color="#86CBF8"/>
</linearGradient>
<linearGradient id="paint23_linear_2842_366" x1="20.5887" y1="5.1982" x2="19.0936" y2="3.70309" gradientUnits="userSpaceOnUse">
<stop stop-color="#2F73A0"/>
<stop offset="1" stop-color="#174461"/>
</linearGradient>
<linearGradient id="paint24_linear_2842_366" x1="14.9243" y1="9.07457" x2="14.1075" y2="9.89136" gradientUnits="userSpaceOnUse">
<stop stop-color="#1A6799" stop-opacity="0"/>
<stop offset="1" stop-color="#2F73A0"/>
</linearGradient>
<linearGradient id="paint25_linear_2842_366" x1="13.3935" y1="10.2668" x2="12.122" y2="12.309" gradientUnits="userSpaceOnUse">
<stop stop-color="#2F73A0"/>
<stop offset="1" stop-color="#174461"/>
</linearGradient>
</defs>
</svg>
