<svg width="24" height="24" viewBox="0 0 24 24" fill="none" xmlns="http://www.w3.org/2000/svg">
<path d="M19.9303 9.24157C19.8835 9.16426 19.8156 9.09995 19.7336 9.05521C19.6516 9.01048 19.5584 8.9869 19.4636 8.9869H12.4362L13.6143 0.55791C13.627 0.445101 13.5987 0.331591 13.5341 0.235656C13.4694 0.13972 13.3722 0.0669424 13.258 0.0290396C13.1439 -0.00886319 13.0194 -0.00968517 12.9046 0.026706C12.7899 0.0630972 12.6916 0.134584 12.6255 0.229656L4.07946 14.2491C4.02949 14.3252 4.0021 14.4125 4.00012 14.5018C3.99813 14.5911 4.02163 14.6793 4.06819 14.7573C4.11475 14.8353 4.18268 14.9002 4.26497 14.9454C4.34727 14.9907 4.44096 15.0145 4.53638 15.0145H11.4588L10.5251 23.4562C10.5159 23.5686 10.5472 23.6807 10.6138 23.7745C10.6805 23.8684 10.7788 23.9387 10.8931 23.9743C11.0074 24.0098 11.1311 24.0085 11.2445 23.9706C11.3579 23.9328 11.4545 23.8605 11.519 23.7652L19.9238 9.74726C19.9726 9.67103 19.9988 9.58406 20 9.49523C20.0011 9.40639 19.977 9.31886 19.9303 9.24157Z" fill="url(#paint0_linear_2842_511)"/>
<defs>
<linearGradient id="paint0_linear_2842_511" x1="4" y1="4" x2="21.4708" y2="26.3503" gradientUnits="userSpaceOnUse">
<stop stop-color="#DF00E3"/>
<stop offset="1" stop-color="#664EFF"/>
</linearGradient>
</defs>
</svg>
