<svg width="16" height="24" viewBox="0 0 16 24" fill="none" xmlns="http://www.w3.org/2000/svg">
<path d="M15.9303 9.24157C15.8835 9.16426 15.8156 9.09995 15.7336 9.05521C15.6516 9.01048 15.5584 8.9869 15.4636 8.9869H8.43616L9.61432 0.55791C9.62696 0.445101 9.59869 0.331591 9.53406 0.235656C9.46943 0.13972 9.3722 0.0669424 9.25803 0.0290396C9.14385 -0.00886319 9.01938 -0.00968517 8.90464 0.026706C8.78991 0.0630972 8.69159 0.134584 8.62552 0.229656L0.0794619 14.2491C0.0294871 14.3252 0.00209706 14.4125 0.000115697 14.5018C-0.00186567 14.5911 0.0216333 14.6793 0.0681901 14.7573C0.114747 14.8353 0.182676 14.9002 0.264974 14.9454C0.347272 14.9907 0.440959 15.0145 0.536377 15.0145H7.45876L6.52508 23.4562C6.51591 23.5686 6.54715 23.6807 6.61384 23.7745C6.68052 23.8684 6.77882 23.9387 6.8931 23.9743C7.00737 24.0098 7.13106 24.0085 7.24447 23.9706C7.35788 23.9328 7.45451 23.8605 7.51898 23.7652L15.9238 9.74726C15.9726 9.67103 15.9988 9.58406 16 9.49523C16.0011 9.40639 15.977 9.31886 15.9303 9.24157Z" fill="url(#paint0_linear_2842_512)"/>
<defs>
<linearGradient id="paint0_linear_2842_512" x1="2.38285e-08" y1="4" x2="17.4708" y2="26.3503" gradientUnits="userSpaceOnUse">
<stop stop-color="#DF00E3"/>
<stop offset="1" stop-color="#664EFF"/>
</linearGradient>
</defs>
</svg>
