<svg width="24" height="24" viewBox="0 0 24 24" fill="none" xmlns="http://www.w3.org/2000/svg">
<path d="M21.8906 6.42188H2.10938C0.946289 6.42188 0 7.36816 0 8.53125V15.5425C0 16.7058 0.946289 17.6519 2.10938 17.6519H21.8906C23.0537 17.6519 24 16.7058 24 15.5425V8.53125C24 7.36816 23.0537 6.42188 21.8906 6.42188Z" fill="#4E7C99"/>
<path d="M21.8906 6.42188H12V17.6519H21.8906C23.0537 17.6519 24 16.7058 24 15.5425V8.53125C24 7.36816 23.0537 6.42188 21.8906 6.42188Z" fill="#304654"/>
<path d="M18.4788 9.20435H5.52185C4.62189 9.20435 3.88965 9.93658 3.88965 10.8367V13.2372C3.88965 14.1372 4.62189 14.8694 5.52185 14.8694H18.4786C19.3787 14.8694 20.111 14.1372 20.111 13.2372V10.8367C20.111 9.93658 19.3787 9.20435 18.4788 9.20435Z" fill="white"/>
<path d="M18.4785 9.20435H12V14.8694H18.4785C19.3784 14.8694 20.1107 14.1372 20.1107 13.2372V10.8367C20.1107 9.93658 19.3784 9.20435 18.4785 9.20435Z" fill="#BFCAE0"/>
<path d="M18.7047 13.2372C18.7047 13.3618 18.6033 13.4632 18.4788 13.4632H16.7085V13.3326C16.7085 12.9443 16.3937 12.6295 16.0054 12.6295C15.6172 12.6295 15.3022 12.9443 15.3022 13.3326V13.4632H14.0385V13.3326C14.0385 12.9443 13.7237 12.6295 13.3353 12.6295C12.9471 12.6295 12.6322 12.9443 12.6322 13.3326V13.4632H11.3684V13.3326C11.3684 12.9443 11.0536 12.6295 10.6653 12.6295C10.2769 12.6295 9.96216 12.9443 9.96216 13.3326V13.4632H8.69836V13.3326C8.69836 12.9443 8.38361 12.6295 7.99524 12.6295C7.60687 12.6295 7.29211 12.9443 7.29211 13.3326V13.4632H5.52203C5.39734 13.4632 5.2959 13.3618 5.2959 13.2372V10.8367C5.2959 10.712 5.39734 10.6106 5.52203 10.6106H18.4788C18.6035 10.6106 18.7047 10.712 18.7047 10.8367V13.2372Z" fill="#304654"/>
<path d="M18.4785 10.6106H12V13.4632H12.6319V13.3326C12.6319 12.9443 12.9467 12.6295 13.335 12.6295C13.7234 12.6295 14.0381 12.9443 14.0381 13.3326V13.4632H15.3019V13.3326C15.3019 12.9443 15.6167 12.6295 16.0051 12.6295C16.3934 12.6295 16.7082 12.9443 16.7082 13.3326V13.4632H18.4783C18.603 13.4632 18.7044 13.3618 18.7044 13.2372V10.8367C18.7044 10.712 18.603 10.6106 18.4785 10.6106Z" fill="#182836"/>
</svg>
