<svg width="24" height="24" viewBox="0 0 24 24" fill="none" xmlns="http://www.w3.org/2000/svg">
<path d="M12.5212 2.18063C12.216 1.93979 11.7848 1.93979 11.4797 2.18063C11.1745 2.42188 4 8.15986 4 14.037C4 18.4279 7.58872 22 12 22C16.4113 22 20 18.4279 20 14.037C20 8.15986 12.8263 2.42188 12.5212 2.18063ZM12.6283 18.875C12.1662 18.875 11.7911 18.5016 11.7911 18.0416C11.7911 17.5816 12.1662 17.2083 12.6283 17.2083C13.8975 17.2083 14.9307 16.1799 14.9307 14.9166C14.9307 14.4566 15.3057 14.0833 15.7679 14.0833C16.23 14.0833 16.6051 14.4566 16.6051 14.9166C16.6051 17.0991 14.821 18.875 12.6283 18.875Z" fill="url(#paint0_linear_2842_343)"/>
<defs>
<linearGradient id="paint0_linear_2842_343" x1="6.01769" y1="7.42735" x2="17.9281" y2="19.3931" gradientUnits="userSpaceOnUse">
<stop stop-color="#00D2FF"/>
<stop offset="1" stop-color="#3A7BD5"/>
</linearGradient>
</defs>
</svg>
