<svg width="24" height="22" viewBox="0 0 24 22" fill="none" xmlns="http://www.w3.org/2000/svg">
<path d="M17.625 0C14.7809 0 12.9558 2.07181 12 3.93736C11.0442 2.07181 9.21909 0 6.375 0C2.82642 0 0 3.25991 0 7.42212C0 12.1165 3.61744 16.5773 11.6223 21.8854C11.7377 21.962 11.8695 22 12 22C12.1305 22 12.2623 21.9621 12.3777 21.8854C20.3826 16.5773 24 12.1165 24 7.42212C24 3.25991 21.1736 0 17.625 0Z" fill="url(#paint0_linear_2842_645)"/>
<path d="M23.2969 10.4142H16.7255L15.48 6.51552C15.3866 6.22404 15.1284 6.02355 14.8331 6.01421C14.5337 6.02208 14.2701 6.18967 14.1602 6.47543L12 12.1065L9.83981 6.47538C9.72994 6.18962 9.47316 6.01631 9.16692 6.01416C8.87166 6.02345 8.61347 6.22399 8.52009 6.51547L7.27453 10.4142H0.703125C0.314484 10.4142 0 10.7422 0 11.1475C0 11.5528 0.314484 11.8808 0.703125 11.8808H7.78125C8.08336 11.8808 8.35256 11.6789 8.44866 11.3795L9.24792 8.87876L11.3477 14.353C11.4534 14.6316 11.713 14.8142 12 14.8142C12.287 14.8142 12.5466 14.6316 12.6523 14.353L14.7521 8.87876L15.5513 11.3795C15.6475 11.6789 15.9166 11.8808 16.2188 11.8808H23.2969C23.6855 11.8808 24 11.5528 24 11.1475C24 10.7422 23.6855 10.4142 23.2969 10.4142Z" fill="#D7F5FF"/>
<defs>
<linearGradient id="paint0_linear_2842_645" x1="12" y1="22" x2="12" y2="0" gradientUnits="userSpaceOnUse">
<stop stop-color="#FD3A84"/>
<stop offset="1" stop-color="#FFA68D"/>
</linearGradient>
</defs>
</svg>
