<svg width="22" height="20" viewBox="0 0 22 20" fill="none" xmlns="http://www.w3.org/2000/svg">
<g opacity="0.1">
<path d="M20.3501 14.1429V11.6039C21.1633 11.3698 21.761 10.5903 21.761 9.66418C21.761 8.73802 21.1634 7.9585 20.3501 7.72449V5.61176C20.3501 5.42514 20.2551 5.25267 20.1008 5.15937L16.5892 3.03568C16.435 2.94233 16.2449 2.94233 16.0905 3.03568L12.8284 5.00857L9.56616 3.03568C9.41188 2.94233 9.22176 2.94233 9.06749 3.03568L5.80528 5.00857L4.00455 3.91951C4.04692 3.75341 4.06984 3.57894 4.06984 3.39888C4.06984 2.28773 3.20994 1.38696 2.14918 1.38696C1.08842 1.38696 0.228516 2.28773 0.228516 3.39888C0.228516 4.51003 1.08842 5.41079 2.14918 5.41079C2.67844 5.41079 3.15761 5.18648 3.50502 4.82377L5.30661 5.9133V9.55758L3.51104 10.6435C3.16318 10.277 2.6815 10.0501 2.14918 10.0501C1.08842 10.0501 0.228516 10.9509 0.228516 12.062C0.228516 13.1732 1.08842 14.0739 2.14918 14.0739C3.20994 14.0739 4.06984 13.1732 4.06984 12.062C4.06984 11.885 4.04784 11.7134 4.00688 11.5499L5.80528 10.4623L9.06749 12.4352C9.14465 12.4819 9.23071 12.5052 9.31682 12.5052C9.40293 12.5052 9.48904 12.4819 9.56616 12.4352L13.0777 10.3115C13.232 10.2182 13.327 10.0457 13.327 9.85912V7.0058V5.9133L16.3399 4.09121L19.3527 5.9133V7.71779C18.5281 7.94382 17.9196 8.72946 17.9196 9.66413C17.9196 9.91364 17.9633 10.1523 18.0425 10.3728L16.1401 11.5566C15.8007 11.2399 15.3535 11.0472 14.8633 11.0472C13.8025 11.0472 12.9426 11.9479 12.9426 13.0591C12.9426 14.1702 13.8025 15.071 14.8633 15.071C15.924 15.071 16.7839 14.1702 16.7839 13.0591C16.7839 12.8375 16.7492 12.6245 16.686 12.4252L18.6271 11.2237C18.8368 11.4029 19.0832 11.5365 19.3527 11.6105V14.1428C18.5338 14.3729 17.9307 15.1555 17.9307 16.0859C17.9307 17.197 18.7907 18.0978 19.8514 18.0978C20.9122 18.0978 21.7721 17.197 21.7721 16.0859C21.7721 15.1555 21.169 14.3729 20.3501 14.1429ZM12.3297 9.55758L9.31678 11.3797L6.30395 9.55758V5.91335L9.31678 4.09126L12.3297 5.91335V7.00585V9.55758Z" fill="#8686ED"/>
<path d="M7.22047 6.22876C7.09441 6.22876 6.99219 6.33584 6.99219 6.46789V9.00317C6.99219 9.13522 7.09441 9.2423 7.22047 9.2423C7.34653 9.2423 7.44876 9.13522 7.44876 9.00317V6.46789C7.44876 6.33584 7.34653 6.22876 7.22047 6.22876Z" fill="#8686ED"/>
<path d="M11.2981 8.79599L9.20208 10.0636C9.09287 10.1296 9.05547 10.2758 9.11853 10.3902C9.1608 10.4669 9.23751 10.5098 9.31645 10.5098C9.35517 10.5098 9.39443 10.4995 9.43037 10.4778L11.5264 9.21016C11.6356 9.14411 11.673 8.99791 11.61 8.88351C11.5469 8.7692 11.4073 8.72994 11.2981 8.79599Z" fill="#8686ED"/>
<path d="M11.5264 6.26062L9.43037 4.99303C9.32115 4.92698 9.18153 4.96615 9.11853 5.08055C9.05547 5.19495 9.09287 5.34116 9.20208 5.40721L11.2981 6.6748C11.334 6.69656 11.3733 6.70689 11.412 6.70689C11.491 6.70689 11.5677 6.66399 11.61 6.58727C11.673 6.47287 11.6356 6.32667 11.5264 6.26062Z" fill="#8686ED"/>
<path d="M16.6687 18.3359H15.1775C15.0514 18.3359 14.9492 18.443 14.9492 18.5751C14.9492 18.7071 15.0514 18.8142 15.1775 18.8142H16.6687C16.7948 18.8142 16.897 18.7071 16.897 18.5751C16.897 18.443 16.7948 18.3359 16.6687 18.3359Z" fill="#8686ED"/>
<path d="M14.596 19.3066H13.8679C13.7418 19.3066 13.6396 19.4137 13.6396 19.5458C13.6396 19.6778 13.7418 19.7849 13.8679 19.7849H14.596C14.7221 19.7849 14.8243 19.6778 14.8243 19.5458C14.8243 19.4137 14.7221 19.3066 14.596 19.3066Z" fill="#8686ED"/>
<path d="M16.6687 19.3066H15.5603C15.4342 19.3066 15.332 19.4137 15.332 19.5458C15.332 19.6778 15.4342 19.7849 15.5603 19.7849H16.6687C16.7948 19.7849 16.897 19.6778 16.897 19.5458C16.897 19.4137 16.7948 19.3066 16.6687 19.3066Z" fill="#8686ED"/>
<path d="M15.4135 16.6384L15.418 16.6412C15.4538 16.6627 15.4929 16.673 15.5314 16.673C15.6105 16.673 15.6874 16.6299 15.7296 16.5529C15.7924 16.4383 15.7547 16.2922 15.6454 16.2264L15.6408 16.2237C15.5314 16.1579 15.392 16.1975 15.3292 16.312C15.2664 16.4265 15.3041 16.5727 15.4135 16.6384Z" fill="#8686ED"/>
<path d="M16.5504 17.3255L16.5549 17.3283C16.591 17.3501 16.6303 17.3605 16.6691 17.3605C16.7479 17.3605 16.8245 17.3177 16.8669 17.2412C16.9301 17.1269 16.8929 16.9806 16.7838 16.9144L16.7793 16.9116C16.6701 16.8454 16.5305 16.8844 16.4673 16.9987C16.4041 17.113 16.4413 17.2593 16.5504 17.3255Z" fill="#8686ED"/>
<path d="M16.6651 16.673C16.7036 16.673 16.7427 16.6628 16.7785 16.6412L16.7831 16.6385C16.8924 16.5727 16.9301 16.4265 16.8673 16.312C16.8045 16.1975 16.6651 16.1579 16.5557 16.2237L16.5512 16.2264C16.4418 16.2922 16.4041 16.4384 16.4669 16.5529C16.5091 16.6299 16.586 16.673 16.6651 16.673Z" fill="#8686ED"/>
<path d="M15.3296 17.2411C15.372 17.3177 15.4486 17.3605 15.5274 17.3605C15.5662 17.3605 15.6055 17.3501 15.6416 17.3282L15.6461 17.3255C15.7552 17.2593 15.7924 17.113 15.7292 16.9987C15.666 16.8844 15.5264 16.8455 15.4173 16.9116L15.4127 16.9143C15.3036 16.9805 15.2664 17.1269 15.3296 17.2411Z" fill="#8686ED"/>
<path d="M16.0994 16.3304C16.2255 16.3304 16.3277 16.2233 16.3277 16.0913V16.0858C16.3277 15.9538 16.2255 15.8467 16.0994 15.8467C15.9733 15.8467 15.8711 15.9538 15.8711 16.0858V16.0913C15.8711 16.2233 15.9733 16.3304 16.0994 16.3304Z" fill="#8686ED"/>
<path d="M15.8711 17.4665C15.8711 17.5986 15.9733 17.7056 16.0994 17.7056C16.2255 17.7056 16.3277 17.5986 16.3277 17.4665V17.4611C16.3277 17.329 16.2255 17.2219 16.0994 17.2219C15.9733 17.2219 15.8711 17.329 15.8711 17.4611V17.4665Z" fill="#8686ED"/>
</g>
<path d="M19.3525 10.0776H20.3499V13.9233H19.3525V10.0776Z" fill="#6582FD"/>
<path d="M19.3525 10.0774H20.3497V11.6045C20.1876 11.6514 20.0164 11.6762 19.8402 11.6762C19.6717 11.6762 19.5082 11.6538 19.3525 11.6112V10.0774Z" fill="#4369FC"/>
<path d="M20.1002 4.01129L16.5887 1.88761C16.4344 1.7943 16.2443 1.7943 16.09 1.88761L12.5784 4.01129C12.4241 4.1046 12.3291 4.27706 12.3291 4.46368V5.85777H13.3265V4.76528L16.3393 2.94319L19.3522 4.76528V8.40955L16.0871 10.4412V11.6476L20.1002 9.16354C20.2545 9.07023 20.3496 8.89776 20.3496 8.71115V4.46373C20.3495 4.27706 20.2545 4.10465 20.1002 4.01129Z" fill="#6582FD"/>
<path d="M20.3503 7.72384V8.71145C20.3503 8.89798 20.2553 9.07015 20.101 9.16341L18.0624 10.4251C17.9706 10.1902 17.9199 9.93342 17.9199 9.66416C17.9199 9.53263 17.9318 9.40398 17.9551 9.27963L19.3531 8.40967V7.71714C19.5088 7.67458 19.6722 7.6521 19.8407 7.6521C20.017 7.6521 20.1882 7.67697 20.3503 7.72384Z" fill="#4369FC"/>
<path d="M13.0777 4.01133L9.56613 1.88764C9.41186 1.79429 9.22174 1.79429 9.06747 1.88764L5.80525 3.86053L3.11723 2.23486C2.82981 2.06102 2.46351 2.22429 2.38379 2.56176C2.33042 2.78764 2.42616 3.02328 2.61851 3.13964L5.30654 4.76531V8.40959L2.61851 10.0352C2.42611 10.1516 2.33042 10.3872 2.38379 10.6131C2.46351 10.9506 2.82981 11.1138 3.11723 10.94L5.80525 9.31432L9.06747 11.2872C9.14463 11.3339 9.23069 11.3572 9.3168 11.3572C9.40291 11.3572 9.48902 11.3339 9.56613 11.2872L13.0777 9.16352C13.232 9.07021 13.327 8.89775 13.327 8.71113V4.46372C13.327 4.2771 13.232 4.10469 13.0777 4.01133ZM12.3296 8.40959L9.31675 10.2317L6.30392 8.40959V4.76536L9.31675 2.94327L12.3296 4.76536V8.40959Z" fill="#8298FD"/>
<path d="M19.8406 10.5282C20.9013 10.5282 21.7613 9.62746 21.7613 8.51631C21.7613 7.40516 20.9013 6.50439 19.8406 6.50439C18.7798 6.50439 17.9199 7.40516 17.9199 8.51631C17.9199 9.62746 18.7798 10.5282 19.8406 10.5282Z" fill="#FF7EB7"/>
<path d="M20.3506 9.39506C20.2842 9.39506 20.2195 9.36469 20.1753 9.30921L19.5591 8.53629V9.15588C19.5591 9.28793 19.4569 9.39502 19.3308 9.39502C19.2047 9.39502 19.1025 9.28793 19.1025 9.15588V7.87686C19.1025 7.77623 19.1627 7.68637 19.253 7.65203C19.3433 7.61774 19.4445 7.64629 19.5061 7.72358L20.1222 8.4965V7.87686C20.1222 7.74481 20.2244 7.63773 20.3505 7.63773C20.4766 7.63773 20.5788 7.74481 20.5788 7.87686V9.15588C20.5788 9.25651 20.5187 9.34638 20.4284 9.38071C20.4029 9.39033 20.3766 9.39502 20.3506 9.39506Z" fill="white"/>
<path d="M2.14918 12.9259C3.20993 12.9259 4.06984 12.0252 4.06984 10.914C4.06984 9.80286 3.20993 8.9021 2.14918 8.9021C1.08843 8.9021 0.228516 9.80286 0.228516 10.914C0.228516 12.0252 1.08843 12.9259 2.14918 12.9259Z" fill="#96FFD1"/>
<path d="M2.94071 11.6815H2.68795C2.46049 11.6815 2.27539 11.4876 2.27539 11.2493V10.5786C2.27539 10.3404 2.46049 10.1465 2.68795 10.1465H2.94071C3.16817 10.1465 3.35327 10.3403 3.35327 10.5786V11.2493C3.35331 11.4876 3.16822 11.6815 2.94071 11.6815ZM2.73196 11.2032H2.89669V10.6247H2.73196V11.2032Z" fill="#6582FD"/>
<path d="M1.17262 11.6815C1.04652 11.6815 0.944336 11.5744 0.944336 11.4423V10.3856C0.944336 10.2536 1.04652 10.1465 1.17262 10.1465C1.29873 10.1465 1.40091 10.2536 1.40091 10.3856V11.4423C1.40091 11.5744 1.29868 11.6815 1.17262 11.6815Z" fill="#6582FD"/>
<path d="M1.84254 11.6815C1.71644 11.6815 1.61426 11.5744 1.61426 11.4423V10.3856C1.61426 10.2536 1.71644 10.1465 1.84254 10.1465C1.96865 10.1465 2.07083 10.2536 2.07083 10.3856V11.4423C2.07083 11.5744 1.96865 11.6815 1.84254 11.6815Z" fill="#6582FD"/>
<path d="M1.80815 11.1531H1.21657C1.09046 11.1531 0.988281 11.046 0.988281 10.9139C0.988281 10.7819 1.09046 10.6748 1.21657 10.6748H1.80815C1.93425 10.6748 2.03644 10.7819 2.03644 10.9139C2.03644 11.046 1.93425 11.1531 1.80815 11.1531Z" fill="#6582FD"/>
<path d="M2.14918 4.26284C3.20993 4.26284 4.06984 3.36208 4.06984 2.25093C4.06984 1.13978 3.20993 0.239014 2.14918 0.239014C1.08843 0.239014 0.228516 1.13978 0.228516 2.25093C0.228516 3.36208 1.08843 4.26284 2.14918 4.26284Z" fill="#96FFD1"/>
<path d="M2.94071 3.01839H2.68795C2.46049 3.01839 2.27539 2.8245 2.27539 2.58623V1.91556C2.27539 1.67729 2.46049 1.4834 2.68795 1.4834H2.94071C3.16817 1.4834 3.35327 1.67729 3.35327 1.91556V2.58623C3.35331 2.8245 3.16822 3.01839 2.94071 3.01839ZM2.73196 2.54012H2.89669V1.96166H2.73196V2.54012Z" fill="#6582FD"/>
<path d="M1.17262 3.01839C1.04652 3.01839 0.944336 2.9113 0.944336 2.77925V1.72253C0.944336 1.59048 1.04652 1.4834 1.17262 1.4834C1.29873 1.4834 1.40091 1.59048 1.40091 1.72253V2.77925C1.40091 2.9113 1.29868 3.01839 1.17262 3.01839Z" fill="#6582FD"/>
<path d="M1.84254 3.01839C1.71644 3.01839 1.61426 2.9113 1.61426 2.77925V1.72253C1.61426 1.59048 1.71644 1.4834 1.84254 1.4834C1.96865 1.4834 2.07083 1.59048 2.07083 1.72253V2.77925C2.07083 2.9113 1.96865 3.01839 1.84254 3.01839Z" fill="#6582FD"/>
<path d="M1.80815 2.48998H1.21657C1.09046 2.48998 0.988281 2.3829 0.988281 2.25085C0.988281 2.1188 1.09046 2.01172 1.21657 2.01172H1.80815C1.93425 2.01172 2.03644 2.1188 2.03644 2.25085C2.03644 2.3829 1.93425 2.48998 1.80815 2.48998Z" fill="#6582FD"/>
<path d="M14.863 13.9232C15.9238 13.9232 16.7837 13.0225 16.7837 11.9113C16.7837 10.8002 15.9238 9.89941 14.863 9.89941C13.8023 9.89941 12.9424 10.8002 12.9424 11.9113C12.9424 13.0225 13.8023 13.9232 14.863 13.9232Z" fill="#01EBA4"/>
<path d="M14.4578 12.79C14.3317 12.79 14.2295 12.6829 14.2295 12.5509V11.2718C14.2295 11.1398 14.3317 11.0327 14.4578 11.0327C14.5839 11.0327 14.6861 11.1398 14.6861 11.2718V12.5509C14.6861 12.6829 14.5838 12.79 14.4578 12.79Z" fill="white"/>
<path d="M15.2683 12.79C15.1422 12.79 15.04 12.6829 15.04 12.5509V11.2718C15.04 11.1398 15.1422 11.0327 15.2683 11.0327C15.3944 11.0327 15.4966 11.1398 15.4966 11.2718V12.5509C15.4966 12.6829 15.3944 12.79 15.2683 12.79Z" fill="white"/>
<path d="M15.2266 12.1504H14.5105C14.3844 12.1504 14.2822 12.0433 14.2822 11.9113C14.2822 11.7792 14.3844 11.6721 14.5105 11.6721H15.2266C15.3527 11.6721 15.4548 11.7792 15.4548 11.9113C15.4548 12.0433 15.3527 12.1504 15.2266 12.1504Z" fill="white"/>
<path d="M19.8513 16.9499C20.9121 16.9499 21.772 16.0491 21.772 14.9379C21.772 13.8268 20.9121 12.926 19.8513 12.926C18.7906 12.926 17.9307 13.8268 17.9307 14.9379C17.9307 16.0491 18.7906 16.9499 19.8513 16.9499Z" fill="#01EBA4"/>
<path d="M19.4451 15.8166C19.319 15.8166 19.2168 15.7095 19.2168 15.5775V14.2985C19.2168 14.1664 19.319 14.0593 19.4451 14.0593C19.5712 14.0593 19.6734 14.1664 19.6734 14.2985V15.5775C19.6734 15.7095 19.5711 15.8166 19.4451 15.8166Z" fill="white"/>
<path d="M20.2566 15.8166C20.1305 15.8166 20.0283 15.7095 20.0283 15.5775V14.2985C20.0283 14.1664 20.1305 14.0593 20.2566 14.0593C20.3827 14.0593 20.4849 14.1664 20.4849 14.2985V15.5775C20.4849 15.7095 20.3827 15.8166 20.2566 15.8166Z" fill="white"/>
<path d="M20.2139 15.177H19.4978C19.3717 15.177 19.2695 15.0699 19.2695 14.9379C19.2695 14.8058 19.3717 14.6987 19.4978 14.6987H20.2139C20.34 14.6987 20.4421 14.8058 20.4421 14.9379C20.4421 15.0699 20.34 15.177 20.2139 15.177Z" fill="white"/>
<path d="M9.20217 10.4388C9.23746 10.4602 9.27691 10.4708 9.31631 10.4708C9.35572 10.4708 9.39516 10.4602 9.43046 10.4388L12.4433 8.61671C12.514 8.574 12.5575 8.49504 12.5575 8.40962V4.7654C12.5575 4.67998 12.514 4.60102 12.4433 4.55831L9.43046 2.73617C9.35982 2.69341 9.2728 2.69341 9.20217 2.73617L6.18934 4.55831C6.11871 4.60102 6.0752 4.67998 6.0752 4.7654V8.40962C6.0752 8.49504 6.11871 8.574 6.18934 8.61671L9.20217 10.4388ZM6.53177 4.90342L9.31631 3.21936L12.1009 4.90342V8.27155L9.31631 9.95556L6.53177 8.27155V4.90342Z" fill="#8686ED"/>
<path d="M20.5781 12.8199V10.6306C21.4006 10.3145 21.989 9.48603 21.989 8.5163C21.989 7.27507 21.0249 6.26526 19.84 6.26526C19.7522 6.26526 19.6658 6.27143 19.5808 6.28224V4.76547C19.5808 4.68005 19.5372 4.60109 19.4666 4.55838L16.4537 2.73629C16.3831 2.69354 16.2961 2.69354 16.2255 2.73629L13.5474 4.35593C13.5207 4.16243 13.4229 3.98652 13.2764 3.86571L16.2045 2.09489C16.2878 2.04448 16.3914 2.04444 16.4748 2.09489L19.9864 4.21862C20.0697 4.26903 20.1216 4.36301 20.1216 4.46388V5.18419C20.1216 5.31624 20.2237 5.42332 20.3499 5.42332C20.476 5.42332 20.5781 5.31624 20.5781 5.18419V4.46388C20.5781 4.19265 20.4388 3.93994 20.2146 3.8044L16.7031 1.68072C16.4788 1.54503 16.2003 1.54508 15.9761 1.68072L12.828 3.58464L9.67998 1.68052C9.45594 1.54508 9.17743 1.54503 8.95321 1.68057L5.80509 3.5844L4.26302 2.65221C4.28548 2.52193 4.2979 2.38802 4.2979 2.25105C4.2979 1.00981 3.33389 0 2.14895 0C0.964007 0 0 1.00981 0 2.25105C0 3.49228 0.964007 4.50209 2.14895 4.50209C2.67661 4.50209 3.1604 4.30184 3.53479 3.97007L5.07786 4.90345V8.27172L4.51993 8.60923C4.41072 8.67528 4.37333 8.82153 4.43638 8.93593C4.4787 9.01265 4.55536 9.0555 4.6343 9.0555C4.67302 9.0555 4.71229 9.04517 4.74822 9.02341L5.42029 8.61688C5.49093 8.57413 5.53444 8.49521 5.53444 8.4098V4.76542C5.53444 4.68001 5.49093 4.60104 5.42029 4.55833L3.85836 3.61357C3.96734 3.46388 4.05893 3.29954 4.12975 3.12383L5.69109 4.06764C5.76172 4.11034 5.8487 4.11034 5.91933 4.06764L9.18145 2.09484C9.26486 2.04448 9.36851 2.04444 9.45183 2.0948L12.9634 4.21881C13.0467 4.26918 13.0985 4.3632 13.0985 4.46412V8.71158C13.0985 8.81221 13.0467 8.90604 12.9633 8.95645L9.45229 11.0801C9.36956 11.1299 9.2634 11.1296 9.18154 11.0804L5.91933 9.10758C5.8487 9.06483 5.76167 9.06483 5.69104 9.10758L4.1329 10.0498C3.80868 9.23643 3.04164 8.66323 2.14895 8.66323C0.964007 8.66323 0 9.67303 0 10.9143C0 12.1555 0.964007 13.1653 2.14895 13.1653C3.33389 13.1653 4.2979 12.1555 4.2979 10.9143C4.2979 10.7806 4.28608 10.6497 4.26462 10.5224L5.80514 9.59082L8.95371 11.4949C9.06425 11.5614 9.18971 11.5965 9.31664 11.5965C9.44361 11.5965 9.56912 11.5614 9.68007 11.4946L13.1915 9.37072C13.4157 9.23523 13.555 8.98271 13.555 8.71163V4.90359L16.3396 3.21953L19.1242 4.90355V6.39415C18.2902 6.70373 17.691 7.53792 17.691 8.5163C17.691 8.72421 17.7186 8.92541 17.7692 9.11667L16.16 10.118C15.7993 9.83096 15.3498 9.66017 14.8629 9.66017C13.678 9.66017 12.714 10.67 12.714 11.9112C12.714 13.1525 13.678 14.1623 14.8629 14.1623C16.0479 14.1623 17.0119 13.1525 17.0119 11.9112C17.0119 11.7316 16.9914 11.557 16.9532 11.3895L18.6125 10.3625C18.7691 10.4771 18.941 10.5704 19.1241 10.6385V12.8198C18.2959 13.1327 17.7021 13.964 17.7021 14.938C17.7021 16.1792 18.6661 17.189 19.851 17.189C21.036 17.189 22 16.1792 22 14.938C22.0001 13.964 21.4064 13.1327 20.5781 12.8199ZM2.14891 4.02378C1.21572 4.02378 0.456527 3.22852 0.456527 2.251C0.456527 1.27347 1.21567 0.478216 2.14891 0.478216C3.08214 0.478216 3.84128 1.27347 3.84128 2.251C3.84128 3.22852 3.08209 4.02378 2.14891 4.02378ZM2.14891 12.687C1.21572 12.687 0.456527 11.8917 0.456527 10.9142C0.456527 9.9367 1.21567 9.1414 2.14891 9.1414C3.08214 9.1414 3.84128 9.93665 3.84128 10.9142C3.84128 11.8917 3.08209 12.687 2.14891 12.687ZM20.1216 12.7055C20.0329 12.6937 19.9428 12.687 19.8511 12.687C19.7595 12.687 19.6694 12.6937 19.5808 12.7055V10.7509C19.6658 10.7617 19.7522 10.7674 19.84 10.7674C19.9355 10.7674 20.0293 10.7602 20.1216 10.7475V12.7055ZM14.8629 13.6841C13.9298 13.6841 13.1706 12.8888 13.1706 11.9113C13.1706 10.9338 13.9298 10.1385 14.8629 10.1385C15.7961 10.1385 16.5553 10.9338 16.5553 11.9113C16.5553 12.8888 15.7962 13.6841 14.8629 13.6841ZM16.7966 10.931C16.7178 10.7611 16.6193 10.603 16.5041 10.4602L17.9402 9.56667C18.0253 9.73497 18.1304 9.8905 18.2519 10.0302L16.7966 10.931ZM18.1476 8.51635C18.1476 7.53883 18.9068 6.74357 19.84 6.74357C20.7732 6.74357 21.5324 7.53883 21.5324 8.51635C21.5324 9.49388 20.7732 10.2891 19.84 10.2891C18.9068 10.2891 18.1476 9.49383 18.1476 8.51635ZM19.8511 16.7108C18.918 16.7108 18.1588 15.9156 18.1588 14.9381C18.1588 13.9605 18.918 13.1653 19.8511 13.1653C20.7843 13.1653 21.5435 13.9605 21.5435 14.9381C21.5435 15.9156 20.7844 16.7108 19.8511 16.7108Z" fill="#8686ED"/>
<path d="M7.22047 5.08081C7.09437 5.08081 6.99219 5.18789 6.99219 5.31994V7.85522C6.99219 7.98727 7.09437 8.09435 7.22047 8.09435C7.34658 8.09435 7.44876 7.98727 7.44876 7.85522V5.31994C7.44876 5.18789 7.34653 5.08081 7.22047 5.08081Z" fill="#8686ED"/>
<path d="M9.43037 9.33008L11.5264 8.06249C11.6356 7.99644 11.673 7.85024 11.6099 7.73583C11.5469 7.62148 11.4073 7.58222 11.2981 7.64831L9.20208 8.9159C9.09287 8.98195 9.05547 9.12816 9.11853 9.24256C9.1608 9.31927 9.23751 9.36217 9.31645 9.36217C9.35512 9.36217 9.39443 9.35179 9.43037 9.33008Z" fill="#8686ED"/>
<path d="M9.20208 4.25951L11.2981 5.5271C11.334 5.54886 11.3733 5.55919 11.412 5.55919C11.4909 5.55919 11.5676 5.51629 11.6099 5.43958C11.673 5.32518 11.6356 5.17897 11.5264 5.11292L9.43037 3.84533C9.32111 3.77924 9.18153 3.8185 9.11853 3.93286C9.05547 4.04721 9.09287 4.19346 9.20208 4.25951Z" fill="#8686ED"/>
<path d="M16.6687 17.6663H15.1775C15.0514 17.6663 14.9492 17.5592 14.9492 17.4271C14.9492 17.2951 15.0514 17.188 15.1775 17.188H16.6687C16.7948 17.188 16.897 17.2951 16.897 17.4271C16.897 17.5592 16.7948 17.6663 16.6687 17.6663Z" fill="#8686ED"/>
<path d="M14.595 18.637H13.867C13.7409 18.637 13.6387 18.5299 13.6387 18.3978C13.6387 18.2658 13.7409 18.1587 13.867 18.1587H14.595C14.7211 18.1587 14.8233 18.2658 14.8233 18.3978C14.8233 18.5299 14.7211 18.637 14.595 18.637Z" fill="#8686ED"/>
<path d="M16.6687 18.637H15.5603C15.4342 18.637 15.332 18.5299 15.332 18.3978C15.332 18.2658 15.4342 18.1587 15.5603 18.1587H16.6687C16.7948 18.1587 16.897 18.2658 16.897 18.3978C16.897 18.5299 16.7948 18.637 16.6687 18.637Z" fill="#8686ED"/>
<path d="M15.5314 15.5253C15.4929 15.5253 15.4538 15.515 15.418 15.4935L15.4135 15.4907C15.3041 15.425 15.2664 15.2788 15.3292 15.1643C15.392 15.0497 15.5315 15.0102 15.6408 15.076L15.6454 15.0787C15.7547 15.1445 15.7924 15.2906 15.7296 15.4052C15.6874 15.4822 15.6105 15.5253 15.5314 15.5253Z" fill="#8686ED"/>
<path d="M16.6682 16.2128C16.6293 16.2128 16.59 16.2024 16.554 16.1806L16.5495 16.1778C16.4403 16.1116 16.4031 15.9653 16.4664 15.851C16.5295 15.7368 16.6692 15.6977 16.7783 15.7639L16.7828 15.7667C16.8919 15.8329 16.9291 15.9792 16.8659 16.0935C16.8236 16.17 16.747 16.2128 16.6682 16.2128Z" fill="#8686ED"/>
<path d="M16.6641 15.5253C16.585 15.5253 16.5081 15.4822 16.4659 15.4052C16.4031 15.2906 16.4408 15.1445 16.5502 15.0787L16.5547 15.076C16.6641 15.0102 16.8036 15.0498 16.8664 15.1643C16.9291 15.2788 16.8914 15.425 16.7821 15.4907L16.7776 15.4935C16.7417 15.515 16.7026 15.5253 16.6641 15.5253Z" fill="#8686ED"/>
<path d="M15.5274 16.2128C15.4486 16.2128 15.372 16.17 15.3296 16.0934C15.2664 15.9792 15.3037 15.8329 15.4127 15.7666L15.4172 15.7639C15.5265 15.6977 15.666 15.7368 15.7292 15.851C15.7924 15.9653 15.7552 16.1116 15.6461 16.1778L15.6416 16.1805C15.6055 16.2024 15.5662 16.2128 15.5274 16.2128Z" fill="#8686ED"/>
<path d="M16.6641 15.5253C16.585 15.5253 16.5081 15.4822 16.4659 15.4052C16.4031 15.2906 16.4408 15.1445 16.5502 15.0787L16.5547 15.076C16.6641 15.0102 16.8036 15.0498 16.8664 15.1643C16.9291 15.2788 16.8914 15.425 16.7821 15.4907L16.7776 15.4935C16.7417 15.515 16.7026 15.5253 16.6641 15.5253Z" fill="#8686ED"/>
<path d="M15.5274 16.2128C15.4486 16.2128 15.372 16.17 15.3296 16.0934C15.2664 15.9792 15.3037 15.8329 15.4127 15.7666L15.4172 15.7639C15.5265 15.6977 15.666 15.7368 15.7292 15.851C15.7924 15.9653 15.7552 16.1116 15.6461 16.1778L15.6416 16.1805C15.6055 16.2024 15.5662 16.2128 15.5274 16.2128Z" fill="#8686ED"/>
<path d="M16.0984 15.1827C15.9723 15.1827 15.8701 15.0756 15.8701 14.9436V14.9381C15.8701 14.8061 15.9723 14.699 16.0984 14.699C16.2245 14.699 16.3267 14.8061 16.3267 14.9381V14.9436C16.3267 15.0756 16.2245 15.1827 16.0984 15.1827Z" fill="#8686ED"/>
<path d="M16.0984 16.5579C15.9723 16.5579 15.8701 16.4509 15.8701 16.3188V16.3134C15.8701 16.1813 15.9723 16.0742 16.0984 16.0742C16.2245 16.0742 16.3267 16.1813 16.3267 16.3134V16.3188C16.3267 16.4509 16.2245 16.5579 16.0984 16.5579Z" fill="#8686ED"/>
<path d="M10.7497 15.2729C10.6913 15.2729 10.6328 15.2495 10.5883 15.2028L10.1089 14.7007C10.0197 14.6073 10.0197 14.4558 10.1089 14.3625L10.5883 13.8603C10.6773 13.7669 10.822 13.7669 10.9111 13.8603L11.3905 14.3625C11.4796 14.4559 11.4796 14.6073 11.3905 14.7007L10.9111 15.2028C10.8666 15.2495 10.8081 15.2729 10.7497 15.2729ZM10.5932 14.5315L10.7497 14.6955L10.9063 14.5315L10.7497 14.3675L10.5932 14.5315Z" fill="#01EBA4"/>
<path d="M18.8932 19.9999C18.8348 19.9999 18.7763 19.9766 18.7318 19.9299L18.2524 19.4277C18.1633 19.3343 18.1633 19.1829 18.2524 19.0895L18.7318 18.5874C18.8209 18.494 18.9655 18.494 19.0546 18.5874L19.534 19.0895C19.6232 19.1829 19.6232 19.3344 19.534 19.4277L19.0546 19.9299C19.0101 19.9766 18.9516 19.9999 18.8932 19.9999ZM18.7367 19.2586L18.8932 19.4226L19.0498 19.2586L18.8932 19.0946L18.7367 19.2586Z" fill="#6582FD"/>
<path d="M19.0134 1.42159C18.955 1.42159 18.8966 1.39825 18.852 1.35157C18.7629 1.25817 18.7629 1.1068 18.852 1.01339L19.53 0.303172C19.6191 0.209815 19.7636 0.209815 19.8528 0.303172C19.942 0.396577 19.942 0.547948 19.8528 0.641353L19.1749 1.35157C19.1303 1.39821 19.0718 1.42159 19.0134 1.42159Z" fill="#FF5BA7"/>
<path d="M19.6914 1.42159C19.633 1.42159 19.5745 1.39825 19.53 1.35157L18.852 0.641353C18.7629 0.547948 18.7629 0.396529 18.852 0.303172C18.9411 0.209815 19.0857 0.209815 19.1749 0.303172L19.8528 1.01339C19.942 1.1068 19.942 1.25822 19.8528 1.35157C19.8083 1.39821 19.7498 1.42159 19.6914 1.42159Z" fill="#FF5BA7"/>
<path d="M5.9646 1.42159C5.90621 1.42159 5.84777 1.39825 5.8032 1.35157C5.71404 1.25817 5.71404 1.1068 5.8032 1.01339L6.48112 0.303172C6.57029 0.209815 6.7148 0.209815 6.80397 0.303172C6.89314 0.396577 6.89314 0.547948 6.80401 0.641353L6.12605 1.35157C6.08144 1.39821 6.023 1.42159 5.9646 1.42159Z" fill="#6582FD"/>
<path d="M6.64257 1.42159C6.58417 1.42159 6.52568 1.39825 6.48112 1.35157L5.8032 0.641353C5.71404 0.547948 5.71404 0.396529 5.8032 0.303172C5.89228 0.209815 6.03688 0.209815 6.12605 0.303172L6.80401 1.01339C6.89313 1.1068 6.89314 1.25822 6.80397 1.35157C6.75945 1.39821 6.70101 1.42159 6.64257 1.42159Z" fill="#6582FD"/>
<path d="M7.95777 14.1552C7.89937 14.1552 7.84088 14.1319 7.79637 14.0852C7.7072 13.9918 7.7072 13.8404 7.79637 13.747L8.47438 13.0368C8.56346 12.9435 8.7081 12.9435 8.79718 13.0368C8.88634 13.1302 8.88634 13.2816 8.79718 13.375L8.11917 14.0852C8.07465 14.1319 8.01621 14.1552 7.95777 14.1552Z" fill="#FF5BA7"/>
<path d="M8.63578 14.1552C8.57738 14.1552 8.51889 14.1319 8.47438 14.0852L7.79637 13.375C7.7072 13.2816 7.7072 13.1302 7.79637 13.0368C7.88545 12.9435 8.03009 12.9435 8.11917 13.0368L8.79718 13.747C8.88634 13.8404 8.88634 13.9919 8.79718 14.0852C8.75261 14.1319 8.69417 14.1552 8.63578 14.1552Z" fill="#FF5BA7"/>
</svg>
