<svg width="24" height="24" viewBox="0 0 24 24" fill="none" xmlns="http://www.w3.org/2000/svg">
<g opacity="0.1">
<path d="M21.3501 16.1429V13.6039C22.1633 13.3698 22.761 12.5903 22.761 11.6642C22.761 10.738 22.1634 9.9585 21.3501 9.72449V7.61176C21.3501 7.42514 21.2551 7.25267 21.1008 7.15937L17.5892 5.03568C17.435 4.94233 17.2449 4.94233 17.0905 5.03568L13.8284 7.00857L10.5662 5.03568C10.4119 4.94233 10.2218 4.94233 10.0675 5.03568L6.80528 7.00857L5.00455 5.91951C5.04692 5.75341 5.06984 5.57894 5.06984 5.39888C5.06984 4.28773 4.20994 3.38696 3.14918 3.38696C2.08842 3.38696 1.22852 4.28773 1.22852 5.39888C1.22852 6.51003 2.08842 7.41079 3.14918 7.41079C3.67844 7.41079 4.15761 7.18648 4.50502 6.82377L6.30661 7.9133V11.5576L4.51104 12.6435C4.16318 12.277 3.6815 12.0501 3.14918 12.0501C2.08842 12.0501 1.22852 12.9509 1.22852 14.062C1.22852 15.1732 2.08842 16.0739 3.14918 16.0739C4.20994 16.0739 5.06984 15.1732 5.06984 14.062C5.06984 13.885 5.04784 13.7134 5.00688 13.5499L6.80528 12.4623L10.0675 14.4352C10.1446 14.4819 10.2307 14.5052 10.3168 14.5052C10.4029 14.5052 10.489 14.4819 10.5662 14.4352L14.0777 12.3115C14.232 12.2182 14.327 12.0457 14.327 11.8591V9.0058V7.9133L17.3399 6.09121L20.3527 7.9133V9.71779C19.5281 9.94382 18.9196 10.7295 18.9196 11.6641C18.9196 11.9136 18.9633 12.1523 19.0425 12.3728L17.1401 13.5566C16.8007 13.2399 16.3535 13.0472 15.8633 13.0472C14.8025 13.0472 13.9426 13.9479 13.9426 15.0591C13.9426 16.1702 14.8025 17.071 15.8633 17.071C16.924 17.071 17.7839 16.1702 17.7839 15.0591C17.7839 14.8375 17.7492 14.6245 17.686 14.4252L19.6271 13.2237C19.8368 13.4029 20.0832 13.5365 20.3527 13.6105V16.1428C19.5338 16.3729 18.9307 17.1555 18.9307 18.0859C18.9307 19.197 19.7907 20.0978 20.8514 20.0978C21.9122 20.0978 22.7721 19.197 22.7721 18.0859C22.7721 17.1555 22.169 16.3729 21.3501 16.1429ZM13.3297 11.5576L10.3168 13.3797L7.30395 11.5576V7.91335L10.3168 6.09126L13.3297 7.91335V9.00585V11.5576Z" fill="#8686ED"/>
<path d="M8.22047 8.22876C8.09441 8.22876 7.99219 8.33584 7.99219 8.46789V11.0032C7.99219 11.1352 8.09441 11.2423 8.22047 11.2423C8.34653 11.2423 8.44876 11.1352 8.44876 11.0032V8.46789C8.44876 8.33584 8.34653 8.22876 8.22047 8.22876Z" fill="#8686ED"/>
<path d="M12.2981 10.796L10.2021 12.0636C10.0929 12.1296 10.0555 12.2758 10.1185 12.3902C10.1608 12.4669 10.2375 12.5098 10.3165 12.5098C10.3552 12.5098 10.3944 12.4995 10.4304 12.4778L12.5264 11.2102C12.6356 11.1441 12.673 10.9979 12.61 10.8835C12.5469 10.7692 12.4073 10.7299 12.2981 10.796Z" fill="#8686ED"/>
<path d="M12.5264 8.26062L10.4304 6.99303C10.3212 6.92698 10.1815 6.96615 10.1185 7.08055C10.0555 7.19495 10.0929 7.34116 10.2021 7.40721L12.2981 8.6748C12.334 8.69656 12.3733 8.70689 12.412 8.70689C12.491 8.70689 12.5677 8.66399 12.61 8.58727C12.673 8.47287 12.6356 8.32667 12.5264 8.26062Z" fill="#8686ED"/>
<path d="M17.6687 20.3359H16.1775C16.0514 20.3359 15.9492 20.443 15.9492 20.5751C15.9492 20.7071 16.0514 20.8142 16.1775 20.8142H17.6687C17.7948 20.8142 17.897 20.7071 17.897 20.5751C17.897 20.443 17.7948 20.3359 17.6687 20.3359Z" fill="#8686ED"/>
<path d="M15.596 21.3066H14.8679C14.7418 21.3066 14.6396 21.4137 14.6396 21.5458C14.6396 21.6778 14.7418 21.7849 14.8679 21.7849H15.596C15.7221 21.7849 15.8243 21.6778 15.8243 21.5458C15.8243 21.4137 15.7221 21.3066 15.596 21.3066Z" fill="#8686ED"/>
<path d="M17.6687 21.3066H16.5603C16.4342 21.3066 16.332 21.4137 16.332 21.5458C16.332 21.6778 16.4342 21.7849 16.5603 21.7849H17.6687C17.7948 21.7849 17.897 21.6778 17.897 21.5458C17.897 21.4137 17.7948 21.3066 17.6687 21.3066Z" fill="#8686ED"/>
<path d="M16.4135 18.6384L16.418 18.6412C16.4538 18.6627 16.4929 18.673 16.5314 18.673C16.6105 18.673 16.6874 18.6299 16.7296 18.5529C16.7924 18.4383 16.7547 18.2922 16.6454 18.2264L16.6408 18.2237C16.5314 18.1579 16.392 18.1975 16.3292 18.312C16.2664 18.4265 16.3041 18.5727 16.4135 18.6384Z" fill="#8686ED"/>
<path d="M17.5504 19.3255L17.5549 19.3283C17.591 19.3501 17.6303 19.3605 17.6691 19.3605C17.7479 19.3605 17.8245 19.3177 17.8669 19.2412C17.9301 19.1269 17.8929 18.9806 17.7838 18.9144L17.7793 18.9116C17.6701 18.8454 17.5305 18.8844 17.4673 18.9987C17.4041 19.113 17.4413 19.2593 17.5504 19.3255Z" fill="#8686ED"/>
<path d="M17.6651 18.673C17.7036 18.673 17.7427 18.6628 17.7785 18.6412L17.7831 18.6385C17.8924 18.5727 17.9301 18.4265 17.8673 18.312C17.8045 18.1975 17.6651 18.1579 17.5557 18.2237L17.5512 18.2264C17.4418 18.2922 17.4041 18.4384 17.4669 18.5529C17.5091 18.6299 17.586 18.673 17.6651 18.673Z" fill="#8686ED"/>
<path d="M16.3296 19.2411C16.372 19.3177 16.4486 19.3605 16.5274 19.3605C16.5662 19.3605 16.6055 19.3501 16.6416 19.3282L16.6461 19.3255C16.7552 19.2593 16.7924 19.113 16.7292 18.9987C16.666 18.8844 16.5264 18.8455 16.4173 18.9116L16.4127 18.9143C16.3036 18.9805 16.2664 19.1269 16.3296 19.2411Z" fill="#8686ED"/>
<path d="M17.0994 18.3304C17.2255 18.3304 17.3277 18.2233 17.3277 18.0913V18.0858C17.3277 17.9538 17.2255 17.8467 17.0994 17.8467C16.9733 17.8467 16.8711 17.9538 16.8711 18.0858V18.0913C16.8711 18.2233 16.9733 18.3304 17.0994 18.3304Z" fill="#8686ED"/>
<path d="M16.8711 19.4665C16.8711 19.5986 16.9733 19.7056 17.0994 19.7056C17.2255 19.7056 17.3277 19.5986 17.3277 19.4665V19.4611C17.3277 19.329 17.2255 19.2219 17.0994 19.2219C16.9733 19.2219 16.8711 19.329 16.8711 19.4611V19.4665Z" fill="#8686ED"/>
</g>
<path d="M20.3525 12.0776H21.3499V15.9233H20.3525V12.0776Z" fill="#6582FD"/>
<path d="M20.3525 12.0774H21.3497V13.6045C21.1876 13.6514 21.0164 13.6762 20.8402 13.6762C20.6717 13.6762 20.5082 13.6538 20.3525 13.6112V12.0774Z" fill="#4369FC"/>
<path d="M21.1002 6.01129L17.5887 3.88761C17.4344 3.7943 17.2443 3.7943 17.09 3.88761L13.5784 6.01129C13.4241 6.1046 13.3291 6.27706 13.3291 6.46368V7.85777H14.3265V6.76528L17.3393 4.94319L20.3522 6.76528V10.4096L17.0871 12.4412V13.6476L21.1002 11.1635C21.2545 11.0702 21.3496 10.8978 21.3496 10.7111V6.46373C21.3495 6.27706 21.2545 6.10465 21.1002 6.01129Z" fill="#6582FD"/>
<path d="M21.3503 9.72384V10.7115C21.3503 10.898 21.2553 11.0702 21.101 11.1634L19.0624 12.4251C18.9706 12.1902 18.9199 11.9334 18.9199 11.6642C18.9199 11.5326 18.9318 11.404 18.9551 11.2796L20.3531 10.4097V9.71714C20.5088 9.67458 20.6722 9.6521 20.8407 9.6521C21.017 9.6521 21.1882 9.67697 21.3503 9.72384Z" fill="#4369FC"/>
<path d="M14.0777 6.01133L10.5661 3.88764C10.4119 3.79429 10.2217 3.79429 10.0675 3.88764L6.80525 5.86053L4.11723 4.23486C3.82981 4.06102 3.46351 4.22429 3.38379 4.56176C3.33042 4.78764 3.42616 5.02328 3.61851 5.13964L6.30654 6.76531V10.4096L3.61851 12.0352C3.42611 12.1516 3.33042 12.3872 3.38379 12.6131C3.46351 12.9506 3.82981 13.1138 4.11723 12.94L6.80525 11.3143L10.0675 13.2872C10.1446 13.3339 10.2307 13.3572 10.3168 13.3572C10.4029 13.3572 10.489 13.3339 10.5661 13.2872L14.0777 11.1635C14.232 11.0702 14.327 10.8978 14.327 10.7111V6.46372C14.327 6.2771 14.232 6.10469 14.0777 6.01133ZM13.3296 10.4096L10.3168 12.2317L7.30392 10.4096V6.76536L10.3168 4.94327L13.3296 6.76536V10.4096Z" fill="#8298FD"/>
<path d="M20.8406 12.5282C21.9013 12.5282 22.7613 11.6275 22.7613 10.5163C22.7613 9.40516 21.9013 8.50439 20.8406 8.50439C19.7798 8.50439 18.9199 9.40516 18.9199 10.5163C18.9199 11.6275 19.7798 12.5282 20.8406 12.5282Z" fill="#FF7EB7"/>
<path d="M21.3506 11.3951C21.2842 11.3951 21.2195 11.3647 21.1753 11.3092L20.5591 10.5363V11.1559C20.5591 11.2879 20.4569 11.395 20.3308 11.395C20.2047 11.395 20.1025 11.2879 20.1025 11.1559V9.87686C20.1025 9.77623 20.1627 9.68637 20.253 9.65203C20.3433 9.61774 20.4445 9.64629 20.5061 9.72358L21.1222 10.4965V9.87686C21.1222 9.74481 21.2244 9.63773 21.3505 9.63773C21.4766 9.63773 21.5788 9.74481 21.5788 9.87686V11.1559C21.5788 11.2565 21.5187 11.3464 21.4284 11.3807C21.4029 11.3903 21.3766 11.395 21.3506 11.3951Z" fill="white"/>
<path d="M3.14918 14.9259C4.20993 14.9259 5.06984 14.0252 5.06984 12.914C5.06984 11.8029 4.20993 10.9021 3.14918 10.9021C2.08843 10.9021 1.22852 11.8029 1.22852 12.914C1.22852 14.0252 2.08843 14.9259 3.14918 14.9259Z" fill="#96FFD1"/>
<path d="M3.94071 13.6815H3.68795C3.46049 13.6815 3.27539 13.4876 3.27539 13.2493V12.5786C3.27539 12.3404 3.46049 12.1465 3.68795 12.1465H3.94071C4.16817 12.1465 4.35327 12.3403 4.35327 12.5786V13.2493C4.35331 13.4876 4.16822 13.6815 3.94071 13.6815ZM3.73196 13.2032H3.89669V12.6247H3.73196V13.2032Z" fill="#6582FD"/>
<path d="M2.17262 13.6815C2.04652 13.6815 1.94434 13.5744 1.94434 13.4423V12.3856C1.94434 12.2536 2.04652 12.1465 2.17262 12.1465C2.29873 12.1465 2.40091 12.2536 2.40091 12.3856V13.4423C2.40091 13.5744 2.29868 13.6815 2.17262 13.6815Z" fill="#6582FD"/>
<path d="M2.84254 13.6815C2.71644 13.6815 2.61426 13.5744 2.61426 13.4423V12.3856C2.61426 12.2536 2.71644 12.1465 2.84254 12.1465C2.96865 12.1465 3.07083 12.2536 3.07083 12.3856V13.4423C3.07083 13.5744 2.96865 13.6815 2.84254 13.6815Z" fill="#6582FD"/>
<path d="M2.80815 13.1531H2.21657C2.09046 13.1531 1.98828 13.046 1.98828 12.9139C1.98828 12.7819 2.09046 12.6748 2.21657 12.6748H2.80815C2.93425 12.6748 3.03644 12.7819 3.03644 12.9139C3.03644 13.046 2.93425 13.1531 2.80815 13.1531Z" fill="#6582FD"/>
<path d="M3.14918 6.26284C4.20993 6.26284 5.06984 5.36208 5.06984 4.25093C5.06984 3.13978 4.20993 2.23901 3.14918 2.23901C2.08843 2.23901 1.22852 3.13978 1.22852 4.25093C1.22852 5.36208 2.08843 6.26284 3.14918 6.26284Z" fill="#96FFD1"/>
<path d="M3.94071 5.01839H3.68795C3.46049 5.01839 3.27539 4.8245 3.27539 4.58623V3.91556C3.27539 3.67729 3.46049 3.4834 3.68795 3.4834H3.94071C4.16817 3.4834 4.35327 3.67729 4.35327 3.91556V4.58623C4.35331 4.8245 4.16822 5.01839 3.94071 5.01839ZM3.73196 4.54012H3.89669V3.96166H3.73196V4.54012Z" fill="#6582FD"/>
<path d="M2.17262 5.01839C2.04652 5.01839 1.94434 4.9113 1.94434 4.77925V3.72253C1.94434 3.59048 2.04652 3.4834 2.17262 3.4834C2.29873 3.4834 2.40091 3.59048 2.40091 3.72253V4.77925C2.40091 4.9113 2.29868 5.01839 2.17262 5.01839Z" fill="#6582FD"/>
<path d="M2.84254 5.01839C2.71644 5.01839 2.61426 4.9113 2.61426 4.77925V3.72253C2.61426 3.59048 2.71644 3.4834 2.84254 3.4834C2.96865 3.4834 3.07083 3.59048 3.07083 3.72253V4.77925C3.07083 4.9113 2.96865 5.01839 2.84254 5.01839Z" fill="#6582FD"/>
<path d="M2.80815 4.48998H2.21657C2.09046 4.48998 1.98828 4.3829 1.98828 4.25085C1.98828 4.1188 2.09046 4.01172 2.21657 4.01172H2.80815C2.93425 4.01172 3.03644 4.1188 3.03644 4.25085C3.03644 4.3829 2.93425 4.48998 2.80815 4.48998Z" fill="#6582FD"/>
<path d="M15.863 15.9232C16.9238 15.9232 17.7837 15.0225 17.7837 13.9113C17.7837 12.8002 16.9238 11.8994 15.863 11.8994C14.8023 11.8994 13.9424 12.8002 13.9424 13.9113C13.9424 15.0225 14.8023 15.9232 15.863 15.9232Z" fill="#01EBA4"/>
<path d="M15.4578 14.79C15.3317 14.79 15.2295 14.6829 15.2295 14.5509V13.2718C15.2295 13.1398 15.3317 13.0327 15.4578 13.0327C15.5839 13.0327 15.6861 13.1398 15.6861 13.2718V14.5509C15.6861 14.6829 15.5838 14.79 15.4578 14.79Z" fill="white"/>
<path d="M16.2683 14.79C16.1422 14.79 16.04 14.6829 16.04 14.5509V13.2718C16.04 13.1398 16.1422 13.0327 16.2683 13.0327C16.3944 13.0327 16.4966 13.1398 16.4966 13.2718V14.5509C16.4966 14.6829 16.3944 14.79 16.2683 14.79Z" fill="white"/>
<path d="M16.2266 14.1504H15.5105C15.3844 14.1504 15.2822 14.0433 15.2822 13.9113C15.2822 13.7792 15.3844 13.6721 15.5105 13.6721H16.2266C16.3527 13.6721 16.4548 13.7792 16.4548 13.9113C16.4548 14.0433 16.3527 14.1504 16.2266 14.1504Z" fill="white"/>
<path d="M20.8513 18.9499C21.9121 18.9499 22.772 18.0491 22.772 16.9379C22.772 15.8268 21.9121 14.926 20.8513 14.926C19.7906 14.926 18.9307 15.8268 18.9307 16.9379C18.9307 18.0491 19.7906 18.9499 20.8513 18.9499Z" fill="#01EBA4"/>
<path d="M20.4451 17.8166C20.319 17.8166 20.2168 17.7095 20.2168 17.5775V16.2985C20.2168 16.1664 20.319 16.0593 20.4451 16.0593C20.5712 16.0593 20.6734 16.1664 20.6734 16.2985V17.5775C20.6734 17.7095 20.5711 17.8166 20.4451 17.8166Z" fill="white"/>
<path d="M21.2566 17.8166C21.1305 17.8166 21.0283 17.7095 21.0283 17.5775V16.2985C21.0283 16.1664 21.1305 16.0593 21.2566 16.0593C21.3827 16.0593 21.4849 16.1664 21.4849 16.2985V17.5775C21.4849 17.7095 21.3827 17.8166 21.2566 17.8166Z" fill="white"/>
<path d="M21.2139 17.177H20.4978C20.3717 17.177 20.2695 17.0699 20.2695 16.9379C20.2695 16.8058 20.3717 16.6987 20.4978 16.6987H21.2139C21.34 16.6987 21.4421 16.8058 21.4421 16.9379C21.4421 17.0699 21.34 17.177 21.2139 17.177Z" fill="white"/>
<path d="M10.2022 12.4388C10.2375 12.4602 10.2769 12.4708 10.3163 12.4708C10.3557 12.4708 10.3952 12.4602 10.4305 12.4388L13.4433 10.6167C13.514 10.574 13.5575 10.495 13.5575 10.4096V6.7654C13.5575 6.67998 13.514 6.60102 13.4433 6.55831L10.4305 4.73617C10.3598 4.69341 10.2728 4.69341 10.2022 4.73617L7.18934 6.55831C7.11871 6.60102 7.0752 6.67998 7.0752 6.7654V10.4096C7.0752 10.495 7.11871 10.574 7.18934 10.6167L10.2022 12.4388ZM7.53177 6.90342L10.3163 5.21936L13.1009 6.90342V10.2715L10.3163 11.9556L7.53177 10.2715V6.90342Z" fill="#8686ED"/>
<path d="M21.5781 14.8199V12.6306C22.4006 12.3145 22.989 11.486 22.989 10.5163C22.989 9.27507 22.0249 8.26526 20.84 8.26526C20.7522 8.26526 20.6658 8.27143 20.5808 8.28224V6.76547C20.5808 6.68005 20.5372 6.60109 20.4666 6.55838L17.4537 4.73629C17.3831 4.69354 17.2961 4.69354 17.2255 4.73629L14.5474 6.35593C14.5207 6.16243 14.4229 5.98652 14.2764 5.86571L17.2045 4.09489C17.2878 4.04448 17.3914 4.04444 17.4748 4.09489L20.9864 6.21862C21.0697 6.26903 21.1216 6.36301 21.1216 6.46388V7.18419C21.1216 7.31624 21.2237 7.42332 21.3499 7.42332C21.476 7.42332 21.5781 7.31624 21.5781 7.18419V6.46388C21.5781 6.19265 21.4388 5.93994 21.2146 5.8044L17.7031 3.68072C17.4788 3.54503 17.2003 3.54508 16.9761 3.68072L13.828 5.58464L10.68 3.68052C10.4559 3.54508 10.1774 3.54503 9.95321 3.68057L6.80509 5.5844L5.26302 4.65221C5.28548 4.52193 5.2979 4.38802 5.2979 4.25105C5.2979 3.00981 4.33389 2 3.14895 2C1.96401 2 1 3.00981 1 4.25105C1 5.49228 1.96401 6.50209 3.14895 6.50209C3.67661 6.50209 4.1604 6.30184 4.53479 5.97007L6.07786 6.90345V10.2717L5.51993 10.6092C5.41072 10.6753 5.37333 10.8215 5.43638 10.9359C5.4787 11.0126 5.55536 11.0555 5.6343 11.0555C5.67302 11.0555 5.71229 11.0452 5.74822 11.0234L6.42029 10.6169C6.49093 10.5741 6.53444 10.4952 6.53444 10.4098V6.76542C6.53444 6.68001 6.49093 6.60104 6.42029 6.55833L4.85836 5.61357C4.96734 5.46388 5.05893 5.29954 5.12975 5.12383L6.69109 6.06764C6.76172 6.11034 6.8487 6.11034 6.91933 6.06764L10.1814 4.09484C10.2649 4.04448 10.3685 4.04444 10.4518 4.0948L13.9634 6.21881C14.0467 6.26918 14.0985 6.3632 14.0985 6.46412V10.7116C14.0985 10.8122 14.0467 10.906 13.9633 10.9565L10.4523 13.0801C10.3696 13.1299 10.2634 13.1296 10.1815 13.0804L6.91933 11.1076C6.8487 11.0648 6.76167 11.0648 6.69104 11.1076L5.1329 12.0498C4.80868 11.2364 4.04164 10.6632 3.14895 10.6632C1.96401 10.6632 1 11.673 1 12.9143C1 14.1555 1.96401 15.1653 3.14895 15.1653C4.33389 15.1653 5.2979 14.1555 5.2979 12.9143C5.2979 12.7806 5.28608 12.6497 5.26462 12.5224L6.80514 11.5908L9.95371 13.4949C10.0642 13.5614 10.1897 13.5965 10.3166 13.5965C10.4436 13.5965 10.5691 13.5614 10.6801 13.4946L14.1915 11.3707C14.4157 11.2352 14.555 10.9827 14.555 10.7116V6.90359L17.3396 5.21953L20.1242 6.90355V8.39415C19.2902 8.70373 18.691 9.53792 18.691 10.5163C18.691 10.7242 18.7186 10.9254 18.7692 11.1167L17.16 12.118C16.7993 11.831 16.3498 11.6602 15.8629 11.6602C14.678 11.6602 13.714 12.67 13.714 13.9112C13.714 15.1525 14.678 16.1623 15.8629 16.1623C17.0479 16.1623 18.0119 15.1525 18.0119 13.9112C18.0119 13.7316 17.9914 13.557 17.9532 13.3895L19.6125 12.3625C19.7691 12.4771 19.941 12.5704 20.1241 12.6385V14.8198C19.2959 15.1327 18.7021 15.964 18.7021 16.938C18.7021 18.1792 19.6661 19.189 20.851 19.189C22.036 19.189 23 18.1792 23 16.938C23.0001 15.964 22.4064 15.1327 21.5781 14.8199ZM3.14891 6.02378C2.21572 6.02378 1.45653 5.22852 1.45653 4.251C1.45653 3.27347 2.21567 2.47822 3.14891 2.47822C4.08214 2.47822 4.84128 3.27347 4.84128 4.251C4.84128 5.22852 4.08209 6.02378 3.14891 6.02378ZM3.14891 14.687C2.21572 14.687 1.45653 13.8917 1.45653 12.9142C1.45653 11.9367 2.21567 11.1414 3.14891 11.1414C4.08214 11.1414 4.84128 11.9367 4.84128 12.9142C4.84128 13.8917 4.08209 14.687 3.14891 14.687ZM21.1216 14.7055C21.0329 14.6937 20.9428 14.687 20.8511 14.687C20.7595 14.687 20.6694 14.6937 20.5808 14.7055V12.7509C20.6658 12.7617 20.7522 12.7674 20.84 12.7674C20.9355 12.7674 21.0293 12.7602 21.1216 12.7475V14.7055ZM15.8629 15.6841C14.9298 15.6841 14.1706 14.8888 14.1706 13.9113C14.1706 12.9338 14.9298 12.1385 15.8629 12.1385C16.7961 12.1385 17.5553 12.9338 17.5553 13.9113C17.5553 14.8888 16.7962 15.6841 15.8629 15.6841ZM17.7966 12.931C17.7178 12.7611 17.6193 12.603 17.5041 12.4602L18.9402 11.5667C19.0253 11.735 19.1304 11.8905 19.2519 12.0302L17.7966 12.931ZM19.1476 10.5164C19.1476 9.53883 19.9068 8.74357 20.84 8.74357C21.7732 8.74357 22.5324 9.53883 22.5324 10.5164C22.5324 11.4939 21.7732 12.2891 20.84 12.2891C19.9068 12.2891 19.1476 11.4938 19.1476 10.5164ZM20.8511 18.7108C19.918 18.7108 19.1588 17.9156 19.1588 16.9381C19.1588 15.9605 19.918 15.1653 20.8511 15.1653C21.7843 15.1653 22.5435 15.9605 22.5435 16.9381C22.5435 17.9156 21.7844 18.7108 20.8511 18.7108Z" fill="#8686ED"/>
<path d="M8.22047 7.08081C8.09437 7.08081 7.99219 7.18789 7.99219 7.31994V9.85522C7.99219 9.98727 8.09437 10.0944 8.22047 10.0944C8.34658 10.0944 8.44876 9.98727 8.44876 9.85522V7.31994C8.44876 7.18789 8.34653 7.08081 8.22047 7.08081Z" fill="#8686ED"/>
<path d="M10.4304 11.3301L12.5264 10.0625C12.6356 9.99644 12.673 9.85024 12.6099 9.73583C12.5469 9.62148 12.4073 9.58222 12.2981 9.64831L10.2021 10.9159C10.0929 10.982 10.0555 11.1282 10.1185 11.2426C10.1608 11.3193 10.2375 11.3622 10.3164 11.3622C10.3551 11.3622 10.3944 11.3518 10.4304 11.3301Z" fill="#8686ED"/>
<path d="M10.2021 6.25951L12.2981 7.5271C12.334 7.54886 12.3733 7.55919 12.412 7.55919C12.4909 7.55919 12.5676 7.51629 12.6099 7.43958C12.673 7.32518 12.6356 7.17897 12.5264 7.11292L10.4304 5.84533C10.3211 5.77924 10.1815 5.8185 10.1185 5.93286C10.0555 6.04721 10.0929 6.19346 10.2021 6.25951Z" fill="#8686ED"/>
<path d="M17.6687 19.6663H16.1775C16.0514 19.6663 15.9492 19.5592 15.9492 19.4271C15.9492 19.2951 16.0514 19.188 16.1775 19.188H17.6687C17.7948 19.188 17.897 19.2951 17.897 19.4271C17.897 19.5592 17.7948 19.6663 17.6687 19.6663Z" fill="#8686ED"/>
<path d="M15.595 20.637H14.867C14.7409 20.637 14.6387 20.5299 14.6387 20.3978C14.6387 20.2658 14.7409 20.1587 14.867 20.1587H15.595C15.7211 20.1587 15.8233 20.2658 15.8233 20.3978C15.8233 20.5299 15.7211 20.637 15.595 20.637Z" fill="#8686ED"/>
<path d="M17.6687 20.637H16.5603C16.4342 20.637 16.332 20.5299 16.332 20.3978C16.332 20.2658 16.4342 20.1587 16.5603 20.1587H17.6687C17.7948 20.1587 17.897 20.2658 17.897 20.3978C17.897 20.5299 17.7948 20.637 17.6687 20.637Z" fill="#8686ED"/>
<path d="M16.5314 17.5253C16.4929 17.5253 16.4538 17.515 16.418 17.4935L16.4135 17.4907C16.3041 17.425 16.2664 17.2788 16.3292 17.1643C16.392 17.0497 16.5315 17.0102 16.6408 17.076L16.6454 17.0787C16.7547 17.1445 16.7924 17.2906 16.7296 17.4052C16.6874 17.4822 16.6105 17.5253 16.5314 17.5253Z" fill="#8686ED"/>
<path d="M17.6682 18.2128C17.6293 18.2128 17.59 18.2024 17.554 18.1806L17.5495 18.1778C17.4403 18.1116 17.4031 17.9653 17.4664 17.851C17.5295 17.7368 17.6692 17.6977 17.7783 17.7639L17.7828 17.7667C17.8919 17.8329 17.9291 17.9792 17.8659 18.0935C17.8236 18.17 17.747 18.2128 17.6682 18.2128Z" fill="#8686ED"/>
<path d="M17.6641 17.5253C17.585 17.5253 17.5081 17.4822 17.4659 17.4052C17.4031 17.2906 17.4408 17.1445 17.5502 17.0787L17.5547 17.076C17.6641 17.0102 17.8036 17.0498 17.8664 17.1643C17.9291 17.2788 17.8914 17.425 17.7821 17.4907L17.7776 17.4935C17.7417 17.515 17.7026 17.5253 17.6641 17.5253Z" fill="#8686ED"/>
<path d="M16.5274 18.2128C16.4486 18.2128 16.372 18.17 16.3296 18.0934C16.2664 17.9792 16.3037 17.8329 16.4127 17.7666L16.4172 17.7639C16.5265 17.6977 16.666 17.7368 16.7292 17.851C16.7924 17.9653 16.7552 18.1116 16.6461 18.1778L16.6416 18.1805C16.6055 18.2024 16.5662 18.2128 16.5274 18.2128Z" fill="#8686ED"/>
<path d="M17.6641 17.5253C17.585 17.5253 17.5081 17.4822 17.4659 17.4052C17.4031 17.2906 17.4408 17.1445 17.5502 17.0787L17.5547 17.076C17.6641 17.0102 17.8036 17.0498 17.8664 17.1643C17.9291 17.2788 17.8914 17.425 17.7821 17.4907L17.7776 17.4935C17.7417 17.515 17.7026 17.5253 17.6641 17.5253Z" fill="#8686ED"/>
<path d="M16.5274 18.2128C16.4486 18.2128 16.372 18.17 16.3296 18.0934C16.2664 17.9792 16.3037 17.8329 16.4127 17.7666L16.4172 17.7639C16.5265 17.6977 16.666 17.7368 16.7292 17.851C16.7924 17.9653 16.7552 18.1116 16.6461 18.1778L16.6416 18.1805C16.6055 18.2024 16.5662 18.2128 16.5274 18.2128Z" fill="#8686ED"/>
<path d="M17.0984 17.1827C16.9723 17.1827 16.8701 17.0756 16.8701 16.9436V16.9381C16.8701 16.8061 16.9723 16.699 17.0984 16.699C17.2245 16.699 17.3267 16.8061 17.3267 16.9381V16.9436C17.3267 17.0756 17.2245 17.1827 17.0984 17.1827Z" fill="#8686ED"/>
<path d="M17.0984 18.5579C16.9723 18.5579 16.8701 18.4509 16.8701 18.3188V18.3134C16.8701 18.1813 16.9723 18.0742 17.0984 18.0742C17.2245 18.0742 17.3267 18.1813 17.3267 18.3134V18.3188C17.3267 18.4509 17.2245 18.5579 17.0984 18.5579Z" fill="#8686ED"/>
<path d="M11.7497 17.2729C11.6913 17.2729 11.6328 17.2495 11.5883 17.2028L11.1089 16.7007C11.0197 16.6073 11.0197 16.4558 11.1089 16.3625L11.5883 15.8603C11.6773 15.7669 11.822 15.7669 11.9111 15.8603L12.3905 16.3625C12.4796 16.4559 12.4796 16.6073 12.3905 16.7007L11.9111 17.2028C11.8666 17.2495 11.8081 17.2729 11.7497 17.2729ZM11.5932 16.5315L11.7497 16.6955L11.9063 16.5315L11.7497 16.3675L11.5932 16.5315Z" fill="#01EBA4"/>
<path d="M19.8932 21.9999C19.8348 21.9999 19.7763 21.9766 19.7318 21.9299L19.2524 21.4277C19.1633 21.3343 19.1633 21.1829 19.2524 21.0895L19.7318 20.5874C19.8209 20.494 19.9655 20.494 20.0546 20.5874L20.534 21.0895C20.6232 21.1829 20.6232 21.3344 20.534 21.4277L20.0546 21.9299C20.0101 21.9766 19.9516 21.9999 19.8932 21.9999ZM19.7367 21.2586L19.8932 21.4226L20.0498 21.2586L19.8932 21.0946L19.7367 21.2586Z" fill="#6582FD"/>
<path d="M20.0134 3.42159C19.955 3.42159 19.8966 3.39825 19.852 3.35157C19.7629 3.25817 19.7629 3.1068 19.852 3.01339L20.53 2.30317C20.6191 2.20982 20.7636 2.20982 20.8528 2.30317C20.942 2.39658 20.942 2.54795 20.8528 2.64135L20.1749 3.35157C20.1303 3.39821 20.0718 3.42159 20.0134 3.42159Z" fill="#FF5BA7"/>
<path d="M20.6914 3.42159C20.633 3.42159 20.5745 3.39825 20.53 3.35157L19.852 2.64135C19.7629 2.54795 19.7629 2.39653 19.852 2.30317C19.9411 2.20982 20.0857 2.20982 20.1749 2.30317L20.8528 3.01339C20.942 3.1068 20.942 3.25822 20.8528 3.35157C20.8083 3.39821 20.7498 3.42159 20.6914 3.42159Z" fill="#FF5BA7"/>
<path d="M6.9646 3.42159C6.90621 3.42159 6.84777 3.39825 6.8032 3.35157C6.71404 3.25817 6.71404 3.1068 6.8032 3.01339L7.48112 2.30317C7.57029 2.20982 7.7148 2.20982 7.80397 2.30317C7.89314 2.39658 7.89314 2.54795 7.80401 2.64135L7.12605 3.35157C7.08144 3.39821 7.023 3.42159 6.9646 3.42159Z" fill="#6582FD"/>
<path d="M7.64257 3.42159C7.58417 3.42159 7.52568 3.39825 7.48112 3.35157L6.8032 2.64135C6.71404 2.54795 6.71404 2.39653 6.8032 2.30317C6.89228 2.20982 7.03688 2.20982 7.12605 2.30317L7.80401 3.01339C7.89313 3.1068 7.89314 3.25822 7.80397 3.35157C7.75945 3.39821 7.70101 3.42159 7.64257 3.42159Z" fill="#6582FD"/>
<path d="M8.95777 16.1552C8.89937 16.1552 8.84088 16.1319 8.79637 16.0852C8.7072 15.9918 8.7072 15.8404 8.79637 15.747L9.47438 15.0368C9.56346 14.9435 9.7081 14.9435 9.79718 15.0368C9.88634 15.1302 9.88634 15.2816 9.79718 15.375L9.11917 16.0852C9.07465 16.1319 9.01621 16.1552 8.95777 16.1552Z" fill="#FF5BA7"/>
<path d="M9.63578 16.1552C9.57738 16.1552 9.51889 16.1319 9.47438 16.0852L8.79637 15.375C8.7072 15.2816 8.7072 15.1302 8.79637 15.0368C8.88545 14.9435 9.03009 14.9435 9.11917 15.0368L9.79718 15.747C9.88634 15.8404 9.88634 15.9919 9.79718 16.0852C9.75261 16.1319 9.69417 16.1552 9.63578 16.1552Z" fill="#FF5BA7"/>
</svg>
