<svg width="24" height="24" viewBox="0 0 24 24" fill="none" xmlns="http://www.w3.org/2000/svg">
<path d="M3.10938 10.5469H1.70312C1.31481 10.5469 1 10.8617 1 11.25C1 11.6383 1.31481 11.9531 1.70312 11.9531H3.10938C3.49769 11.9531 3.8125 11.6383 3.8125 11.25C3.8125 10.8617 3.49769 10.5469 3.10938 10.5469ZM22.7969 10.5469H21.3906C21.0023 10.5469 20.6875 10.8617 20.6875 11.25C20.6875 11.6383 21.0023 11.9531 21.3906 11.9531H22.7969C23.1852 11.9531 23.5 11.6383 23.5 11.25C23.5 10.8617 23.1852 10.5469 22.7969 10.5469ZM7.07078 3.68555C7.26555 4.02286 7.69595 4.13653 8.03125 3.94289C8.36753 3.74873 8.48275 3.3187 8.28859 2.98242L7.58547 1.76456C7.39136 1.42828 6.96128 1.31302 6.625 1.50722C6.28872 1.70138 6.1735 2.13141 6.36766 2.46769L7.07078 3.68555ZM4.68555 6.07078L3.46769 5.36766C3.13141 5.17345 2.70133 5.28872 2.50722 5.625C2.31306 5.96128 2.42828 6.39131 2.76456 6.58547L3.98242 7.28859C4.31758 7.48209 4.74812 7.36866 4.94289 7.03125C5.13705 6.69497 5.02183 6.26494 4.68555 6.07078ZM16.4688 3.94289C16.8039 4.13639 17.2344 4.023 17.4292 3.68555L18.1323 2.46769C18.3265 2.13141 18.2113 1.70138 17.875 1.50722C17.5387 1.31302 17.1086 1.42828 16.9145 1.76456L16.2114 2.98242C16.0172 3.3187 16.1324 3.74873 16.4688 3.94289ZM21.9928 5.625C21.7986 5.28867 21.3686 5.1735 21.0323 5.36766L19.8145 6.07078C19.4782 6.26494 19.363 6.69497 19.5572 7.03125C19.7519 7.36861 20.1823 7.48219 20.5176 7.28859L21.7354 6.58547C22.0717 6.39131 22.1869 5.96128 21.9928 5.625ZM12.25 2.8125C12.6383 2.8125 12.9531 2.49769 12.9531 2.10938V0.703125C12.9531 0.314812 12.6383 0 12.25 0C11.8617 0 11.5469 0.314812 11.5469 0.703125V2.10938C11.5469 2.49769 11.8617 2.8125 12.25 2.8125ZM12.25 4.21875C8.37297 4.21875 5.21875 7.37297 5.21875 11.25C5.21875 13.8061 6.43609 15.1514 7.51 16.3387C8.54406 17.4825 9.4375 18.4702 9.4375 20.4844L12.3438 21.4688L15.0625 20.4844C15.0625 18.4702 15.9559 17.4825 16.99 16.3387C18.0639 15.1514 19.2812 13.8061 19.2812 11.25C19.2812 7.37297 16.127 4.21875 12.25 4.21875Z" fill="url(#paint0_linear_2842_333)"/>
<path d="M16.3068 10.8108C16.0642 10.5076 15.6216 10.4585 15.3185 10.701L13.9999 11.7559L12.6814 10.701C12.4245 10.4956 12.0597 10.4956 11.8029 10.701L10.4843 11.7559L9.1658 10.701C8.86252 10.4584 8.42007 10.5076 8.17753 10.8108C7.93496 11.1141 7.98413 11.5565 8.28732 11.7991L10.0451 13.2053C10.302 13.4107 10.6668 13.4107 10.9236 13.2053L12.2422 12.1505L13.5608 13.2053C13.8176 13.4108 14.1824 13.4107 14.4392 13.2053L16.197 11.7991C16.5002 11.5565 16.5494 11.114 16.3068 10.8108ZM9.42961 21.1875C9.42961 21.4303 9.46055 21.6657 9.51867 21.8907C9.8318 23.1024 10.9343 24 12.2421 24C13.5499 24 14.6524 23.1024 14.9655 21.8907C15.0237 21.6657 15.0546 21.4303 15.0546 21.1875V20.4844H9.42961V21.1875Z" fill="url(#paint1_linear_2842_333)"/>
<defs>
<linearGradient id="paint0_linear_2842_333" x1="12.25" y1="21.4688" x2="12.25" y2="0" gradientUnits="userSpaceOnUse">
<stop stop-color="#FD5900"/>
<stop offset="1" stop-color="#FFDE00"/>
</linearGradient>
<linearGradient id="paint1_linear_2842_333" x1="12.2421" y1="24" x2="12.2421" y2="10.5469" gradientUnits="userSpaceOnUse">
<stop stop-color="#FFE59A"/>
<stop offset="1" stop-color="#FFFFD5"/>
</linearGradient>
</defs>
</svg>
