<svg width="24" height="24" viewBox="0 0 24 24" fill="none" xmlns="http://www.w3.org/2000/svg">
<path d="M22.9875 5.80597C23.0373 5.57727 22.9676 5.34861 22.7986 5.17958L21.307 3.68802L23.793 1.20209C24.0316 0.963447 24.0714 0.585587 23.8725 0.307195C23.8526 0.267398 23.8228 0.237586 23.793 0.207726C23.5941 0.00883511 23.2858 -0.0607745 23.0273 0.0585696L16.0667 3.0417C15.838 3.13114 15.6888 3.32014 15.6491 3.55878C15.5993 3.78749 15.6689 4.01624 15.838 4.18522L17.3295 5.67679L14.8436 8.16271C14.605 8.40136 14.5652 8.77922 14.7641 9.05761C14.784 9.09741 14.8137 9.12722 14.8436 9.15708C15.0425 9.35597 15.3507 9.42558 15.6093 9.30623L22.5699 6.3231C22.7986 6.23362 22.9478 6.04466 22.9875 5.80597Z" fill="#FFDA2D"/>
<path d="M14.8438 9.15707L23.7931 0.207764C23.823 0.237623 23.8528 0.267436 23.8726 0.307233C24.0715 0.585624 24.0317 0.963484 23.7931 1.20213L21.3072 3.68805L22.7987 5.17962C22.9678 5.34865 23.0374 5.57735 22.9877 5.80601C22.9479 6.0447 22.7988 6.23365 22.5701 6.32318L15.6095 9.30632C15.3509 9.42557 15.0426 9.35596 14.8438 9.15707Z" fill="#FDBF00"/>
<path d="M20.0714 16.8553L15.5967 21.33C12.0369 24.8898 6.22976 24.8898 2.66988 21.33C-0.890006 17.7701 -0.889912 11.963 2.66988 8.40312L7.14453 3.92847L10.1277 4.92283L11.122 7.90596L6.64737 12.3806C5.27515 13.7528 5.27515 15.9802 6.64737 17.3525C8.01959 18.7247 10.247 18.7247 11.6192 17.3525L16.0939 12.8778L19.077 13.8722L20.0714 16.8553Z" fill="#FF641A"/>
<path d="M20.0714 16.8554L15.5968 21.3301C12.037 24.8899 6.22981 24.89 2.66992 21.3301L6.64742 17.3526C8.01964 18.7248 10.2471 18.7248 11.6193 17.3526L16.0939 12.8779L19.0771 13.8723L20.0714 16.8554Z" fill="#F03800"/>
<path d="M13.608 5.42019C13.8828 5.14536 13.8828 4.70061 13.608 4.42583L10.6248 1.44269C10.35 1.16787 9.90524 1.16787 9.63046 1.44269L7.14453 3.92862L11.122 7.90612L13.608 5.42019Z" fill="#C2DAF9"/>
<path d="M22.5572 13.375L19.574 10.3919C19.2992 10.1171 18.8545 10.1171 18.5797 10.3919L16.0938 12.8778L20.0712 16.8553L22.5572 14.3694C22.832 14.0946 22.832 13.6499 22.5572 13.375Z" fill="#C7E0FF"/>
</svg>
