<svg width="24" height="24" viewBox="0 0 24 24" fill="none" xmlns="http://www.w3.org/2000/svg">
<path d="M12.8566 0.268687C12.604 0.0929062 12.3078 0 12 0C11.6922 0 11.3959 0.0929063 11.1435 0.268547C11.0513 0.332719 1.92188 7.104 1.92188 13.875C1.92188 16.5774 2.96723 19.1183 4.86539 21.0296C6.76772 22.9451 9.3015 24 12 24C14.6985 24 17.2323 22.9451 19.1346 21.0296C21.0328 19.1183 22.0781 16.5774 22.0781 13.875C22.0781 7.10245 12.9486 0.332672 12.8566 0.268687Z" fill="url(#paint0_linear_2842_356)"/>
<path d="M12.8566 0.268687C12.604 0.0929062 12.3078 0 12 0V24C14.6985 24 17.2323 22.9451 19.1346 21.0296C21.0328 19.1183 22.0781 16.5774 22.0781 13.875C22.0781 7.10245 12.9486 0.332672 12.8566 0.268687Z" fill="url(#paint1_linear_2842_356)"/>
<path d="M7.11905 3.71414C6.44508 2.84114 5.77988 2.16103 5.75184 2.13253C5.61966 1.99781 5.43877 1.92188 5.25 1.92188C5.06123 1.92188 4.88034 1.99781 4.74816 2.13253C4.72017 2.16103 4.05492 2.84114 3.38095 3.71414C2.39916 4.98586 1.92188 5.97891 1.92188 6.75C1.92188 8.58511 3.41489 10.0781 5.25 10.0781C7.08511 10.0781 8.57812 8.58511 8.57812 6.75C8.57812 5.97891 8.10084 4.98586 7.11905 3.71414Z" fill="#3CDCFF"/>
<path d="M9.375 11.2969C9.02297 11.2969 8.6903 11.3803 8.39484 11.5277C8.26622 11.3862 8.08125 11.2969 7.875 11.2969C7.48669 11.2969 7.17188 11.6117 7.17188 12V17.25C7.17188 17.6383 7.48669 17.9531 7.875 17.9531C8.26331 17.9531 8.57812 17.6383 8.57812 17.25V15.5534C8.82544 15.6497 9.09403 15.7031 9.375 15.7031C10.5898 15.7031 11.5781 14.7148 11.5781 13.5C11.5781 12.2852 10.5898 11.2969 9.375 11.2969ZM9.375 14.2969C8.93559 14.2969 8.57812 13.9394 8.57812 13.5C8.57812 13.0606 8.93559 12.7031 9.375 12.7031C9.81441 12.7031 10.1719 13.0606 10.1719 13.5C10.1719 13.9394 9.81441 14.2969 9.375 14.2969Z" fill="#EAF3FF"/>
<path d="M14.625 11.2969C14.344 11.2969 14.0754 11.3504 13.8281 11.4466V9.75C13.8281 9.36169 13.5133 9.04688 13.125 9.04688C12.7367 9.04688 12.4219 9.36169 12.4219 9.75V15C12.4219 15.3883 12.7367 15.7031 13.125 15.7031C13.5133 15.7031 13.8281 15.3883 13.8281 15V13.5C13.8281 13.0606 14.1856 12.7031 14.625 12.7031C15.0644 12.7031 15.4219 13.0606 15.4219 13.5V15C15.4219 15.3883 15.7367 15.7031 16.125 15.7031C16.5133 15.7031 16.8281 15.3883 16.8281 15V13.5C16.8281 12.2852 15.8398 11.2969 14.625 11.2969Z" fill="#EAF3FF"/>
<defs>
<linearGradient id="paint0_linear_2842_356" x1="12" y1="0" x2="12" y2="24" gradientUnits="userSpaceOnUse">
<stop stop-color="#4795F0"/>
<stop offset="1" stop-color="#9661FF"/>
</linearGradient>
<linearGradient id="paint1_linear_2842_356" x1="17.0391" y1="0" x2="17.0391" y2="24" gradientUnits="userSpaceOnUse">
<stop stop-color="#4795F0"/>
<stop offset="1" stop-color="#9661FF"/>
</linearGradient>
</defs>
</svg>
