<svg width="20" height="24" viewBox="0 0 20 24" fill="none" xmlns="http://www.w3.org/2000/svg">
<path d="M15.6159 5.27379C13.5908 2.70497 11.5921 0.703724 11.5079 0.619862C11.1107 0.223448 10.5672 0 10 0C9.43282 0 8.8893 0.223448 8.49211 0.619862C8.40803 0.703724 6.40915 2.70497 4.38408 5.27379C1.43408 9.01586 0 11.9379 0 14.2069C0 19.6068 4.48606 24 10 24C15.5139 24 20 19.6068 20 14.2069C20 11.9379 18.5659 9.01586 15.6159 5.27379Z" fill="#1DCFF7"/>
<path d="M7.20312 12.25C6.85109 12.25 6.51842 12.3334 6.22297 12.4809C6.09434 12.3393 5.90938 12.25 5.70312 12.25C5.31481 12.25 5 12.5648 5 12.9531V18.2031C5 18.5914 5.31481 18.9062 5.70312 18.9062C6.09144 18.9062 6.40625 18.5914 6.40625 18.2031V16.5065C6.65356 16.6028 6.92216 16.6562 7.20312 16.6562C8.41794 16.6562 9.40625 15.6679 9.40625 14.4531C9.40625 13.2383 8.41794 12.25 7.20312 12.25ZM7.20312 15.25C6.76372 15.25 6.40625 14.8925 6.40625 14.4531C6.40625 14.0137 6.76372 13.6562 7.20312 13.6562C7.64253 13.6562 8 14.0137 8 14.4531C8 14.8925 7.64253 15.25 7.20312 15.25Z" fill="#EAF3FF"/>
<path d="M12.4531 12.25C12.1722 12.25 11.9036 12.3035 11.6562 12.3998V10.7031C11.6562 10.3148 11.3414 10 10.9531 10C10.5648 10 10.25 10.3148 10.25 10.7031V15.9531C10.25 16.3414 10.5648 16.6562 10.9531 16.6562C11.3414 16.6562 11.6562 16.3414 11.6562 15.9531V14.4531C11.6562 14.0137 12.0137 13.6562 12.4531 13.6562C12.8925 13.6562 13.25 14.0137 13.25 14.4531V15.9531C13.25 16.3414 13.5648 16.6562 13.9531 16.6562C14.3414 16.6562 14.6562 16.3414 14.6562 15.9531V14.4531C14.6562 13.2383 13.6679 12.25 12.4531 12.25Z" fill="#EAF3FF"/>
<path d="M4.31769 1.08956C4.24105 1.03097 4.15116 1 4.05778 1C3.96438 1 3.8745 1.03097 3.79791 1.08952C3.76993 1.11091 1 3.368 1 5.625C1 6.52581 1.31717 7.37278 1.89308 8.00988C2.47027 8.64836 3.23903 9 4.05778 9C4.87652 9 5.64529 8.64836 6.22247 8.00988C6.79839 7.37278 7.11556 6.52581 7.11556 5.625C7.11556 3.36748 4.34559 1.11089 4.31769 1.08956Z" fill="url(#paint0_linear_2842_715)"/>
<path d="M4.31753 1.08956C4.24088 1.03097 4.151 1 4.05762 1V9C4.87636 9 5.64513 8.64836 6.22231 8.00988C6.79823 7.37278 7.1154 6.52581 7.1154 5.625C7.1154 3.36748 4.34543 1.11089 4.31753 1.08956Z" fill="url(#paint1_linear_2842_715)"/>
<defs>
<linearGradient id="paint0_linear_2842_715" x1="4.05778" y1="1" x2="4.05778" y2="9" gradientUnits="userSpaceOnUse">
<stop stop-color="#4795F0"/>
<stop offset="1" stop-color="#9661FF"/>
</linearGradient>
<linearGradient id="paint1_linear_2842_715" x1="5.58651" y1="1" x2="5.58651" y2="9" gradientUnits="userSpaceOnUse">
<stop stop-color="#4795F0"/>
<stop offset="1" stop-color="#9661FF"/>
</linearGradient>
</defs>
</svg>
