<svg width="21" height="20" viewBox="0 0 21 20" fill="none" xmlns="http://www.w3.org/2000/svg">
<path d="M20.9997 18.746C21.0004 18.8938 20.9719 19.0403 20.9159 19.177C20.8599 19.3138 20.7775 19.4382 20.6733 19.543C20.5692 19.6479 20.4454 19.7311 20.309 19.7881C20.1726 19.845 20.0263 19.8744 19.8785 19.8747H1.12126C0.8239 19.8732 0.539244 19.754 0.329521 19.5432C0.119798 19.3324 0.00206749 19.0471 0.00206749 18.7498C0.00206749 18.4524 0.119798 18.1671 0.329521 17.9563C0.539244 17.7455 0.8239 17.6263 1.12126 17.6248H19.8785C20.1758 17.6249 20.4609 17.7431 20.6711 17.9534C20.8814 18.1636 20.9996 18.4487 20.9997 18.746ZM0.967523 12.0673L10.3761 13.8636C10.4147 13.868 10.4535 13.8705 10.4924 13.871C10.5463 13.8707 10.6002 13.8669 10.6536 13.8598L20.0173 12.0711C20.1639 12.0527 20.3055 12.0054 20.4338 11.9321C20.5621 11.8587 20.6747 11.7608 20.765 11.6438C20.8554 11.5268 20.9217 11.3931 20.9602 11.2504C20.9986 11.1076 21.0085 10.9587 20.9893 10.8122C20.97 10.6656 20.9219 10.5243 20.8479 10.3964C20.7738 10.2685 20.6752 10.1565 20.5577 10.0668C20.4402 9.97719 20.3061 9.91164 20.1632 9.87397C20.0202 9.8363 19.8713 9.82726 19.7248 9.84737C19.6769 9.8503 10.5316 11.6313 10.4886 11.6211L1.24504 9.84362C1.08858 9.82734 0.930454 9.84396 0.780801 9.89241C0.631148 9.94086 0.493279 10.0201 0.376043 10.1249C0.258807 10.2298 0.164794 10.358 0.100041 10.5014C0.0352881 10.6447 0.00122481 10.8 3.79531e-05 10.9573C-0.00220437 11.2286 0.094982 11.4913 0.273237 11.6959C0.451493 11.9004 0.698474 12.0325 0.967523 12.0673ZM19.7547 13.5936L10.5411 14.6173C10.5138 14.621 10.486 14.621 10.4586 14.6173L1.24506 13.5936C0.951361 13.564 0.657872 13.6516 0.428341 13.8372C0.19881 14.0228 0.0517729 14.2914 0.019168 14.5848C-0.0134369 14.8782 0.071023 15.1726 0.254203 15.404C0.437383 15.6355 0.704489 15.7854 0.997504 15.821L10.3761 16.8635C10.4584 16.8729 10.5414 16.8729 10.6236 16.8635L20.0022 15.821C20.2976 15.7882 20.5678 15.6394 20.7535 15.4073C20.9391 15.1752 21.025 14.8789 20.9922 14.5836C20.9594 14.2882 20.8106 14.0179 20.5785 13.8323C20.3464 13.6466 20.0501 13.5607 19.7547 13.5936ZM10.2149 9.99362C10.2501 10.0348 10.2938 10.0678 10.343 10.0905C10.3922 10.1131 10.4457 10.1249 10.4999 10.1249C10.554 10.1249 10.6076 10.1131 10.6568 10.0905C10.706 10.0678 10.7497 10.0348 10.7849 9.99362L13.0348 7.36866C13.0802 7.31382 13.1092 7.24726 13.1185 7.17667C13.1277 7.10607 13.1168 7.0343 13.087 6.96964C13.0572 6.90497 13.0097 6.85004 12.9501 6.81117C12.8905 6.77229 12.821 6.75107 12.7498 6.74993H11.9998V0.75C11.9993 0.551265 11.9201 0.360835 11.7795 0.220308C11.639 0.079781 11.4486 0.000577778 11.2498 0H9.74989C9.55116 0.000577778 9.36073 0.079781 9.2202 0.220308C9.07967 0.360835 9.00047 0.551265 8.99989 0.75V6.74991H8.24994C8.17875 6.75105 8.10933 6.77227 8.04967 6.81114C7.99002 6.85001 7.94257 6.90494 7.91278 6.96961C7.88299 7.03428 7.87208 7.10605 7.8813 7.17664C7.89052 7.24724 7.91951 7.3138 7.96491 7.36864L10.2149 9.99362Z" fill="url(#paint0_linear_2842_510)"/>
<defs>
<linearGradient id="paint0_linear_2842_510" x1="-0.000194547" y1="9.93737" x2="20.9998" y2="9.93737" gradientUnits="userSpaceOnUse">
<stop stop-color="#00C0FF"/>
<stop offset="1" stop-color="#5558FF"/>
</linearGradient>
</defs>
</svg>
