<svg width="24" height="24" viewBox="0 0 24 24" fill="none" xmlns="http://www.w3.org/2000/svg">
<path d="M17.6159 5.27379C15.5908 2.70497 13.5921 0.703724 13.5079 0.619862C13.1107 0.223448 12.5672 0 12 0C11.4328 0 10.8893 0.223448 10.4921 0.619862C10.408 0.703724 8.40915 2.70497 6.38408 5.27379C3.43408 9.01586 2 11.9379 2 14.2069C2 19.6068 6.48606 24 12 24C17.5139 24 22 19.6068 22 14.2069C22 11.9379 20.5659 9.01586 17.6159 5.27379Z" fill="#1DCFF7"/>
<path d="M9.20312 12.25C8.85109 12.25 8.51842 12.3334 8.22297 12.4809C8.09434 12.3393 7.90938 12.25 7.70312 12.25C7.31481 12.25 7 12.5648 7 12.9531V18.2031C7 18.5914 7.31481 18.9062 7.70312 18.9062C8.09144 18.9062 8.40625 18.5914 8.40625 18.2031V16.5065C8.65356 16.6028 8.92216 16.6562 9.20312 16.6562C10.4179 16.6562 11.4062 15.6679 11.4062 14.4531C11.4062 13.2383 10.4179 12.25 9.20312 12.25ZM9.20312 15.25C8.76372 15.25 8.40625 14.8925 8.40625 14.4531C8.40625 14.0137 8.76372 13.6562 9.20312 13.6562C9.64253 13.6562 10 14.0137 10 14.4531C10 14.8925 9.64253 15.25 9.20312 15.25Z" fill="#EAF3FF"/>
<path d="M14.4531 12.25C14.1722 12.25 13.9036 12.3035 13.6562 12.3998V10.7031C13.6562 10.3148 13.3414 10 12.9531 10C12.5648 10 12.25 10.3148 12.25 10.7031V15.9531C12.25 16.3414 12.5648 16.6562 12.9531 16.6562C13.3414 16.6562 13.6562 16.3414 13.6562 15.9531V14.4531C13.6562 14.0137 14.0137 13.6562 14.4531 13.6562C14.8925 13.6562 15.25 14.0137 15.25 14.4531V15.9531C15.25 16.3414 15.5648 16.6562 15.9531 16.6562C16.3414 16.6562 16.6562 16.3414 16.6562 15.9531V14.4531C16.6562 13.2383 15.6679 12.25 14.4531 12.25Z" fill="#EAF3FF"/>
<path d="M6.31769 1.08956C6.24105 1.03097 6.15116 1 6.05778 1C5.96438 1 5.8745 1.03097 5.79791 1.08952C5.76993 1.11091 3 3.368 3 5.625C3 6.52581 3.31717 7.37278 3.89308 8.00988C4.47027 8.64836 5.23903 9 6.05778 9C6.87652 9 7.64529 8.64836 8.22247 8.00988C8.79839 7.37278 9.11556 6.52581 9.11556 5.625C9.11556 3.36748 6.34559 1.11089 6.31769 1.08956Z" fill="url(#paint0_linear_2842_700)"/>
<path d="M6.31753 1.08956C6.24088 1.03097 6.151 1 6.05762 1V9C6.87636 9 7.64513 8.64836 8.22231 8.00988C8.79823 7.37278 9.1154 6.52581 9.1154 5.625C9.1154 3.36748 6.34543 1.11089 6.31753 1.08956Z" fill="url(#paint1_linear_2842_700)"/>
<defs>
<linearGradient id="paint0_linear_2842_700" x1="6.05778" y1="1" x2="6.05778" y2="9" gradientUnits="userSpaceOnUse">
<stop stop-color="#4795F0"/>
<stop offset="1" stop-color="#9661FF"/>
</linearGradient>
<linearGradient id="paint1_linear_2842_700" x1="7.58651" y1="1" x2="7.58651" y2="9" gradientUnits="userSpaceOnUse">
<stop stop-color="#4795F0"/>
<stop offset="1" stop-color="#9661FF"/>
</linearGradient>
</defs>
</svg>
