<svg width="24" height="24" viewBox="0 0 24 24" fill="none" xmlns="http://www.w3.org/2000/svg">
<g clip-path="url(#clip0_2842_724)">
<path d="M11.0347 0C10.3011 0 9.59196 0.264748 9.03785 0.7454C8.48375 1.22615 8.12164 1.89092 8.01828 2.6172L8.00952 2.67879C7.71022 4.78163 7.13535 8.82078 6.91406 10.2191C6.16026 10.3403 5.46371 10.6913 4.90979 11.2371C4.21342 11.9232 3.82146 12.8391 3.80613 13.8158C3.77421 15.8439 5.39696 17.5312 7.42349 17.5771C7.57457 17.5805 7.74233 17.575 7.91727 17.5606L8.3217 16.8659L9.41965 17.2018C10.1927 17.9236 10.924 18.328 11.9999 18.328L14.5717 8.06244L11.9999 0L11.0347 0Z" fill="#FCCABB"/>
<path d="M19.09 11.2371C18.5362 10.6913 17.8395 10.3403 17.0858 10.2191C16.8645 8.82073 16.2896 4.78159 15.9903 2.67879L15.9815 2.61725C15.8782 1.89092 15.5161 1.22619 14.962 0.745447C14.4079 0.264748 13.6987 0 12.9651 0H12V18.328C13.0758 18.328 13.8098 17.9236 14.5829 17.2017L15.5854 16.9217L16.0825 17.5606C16.2573 17.575 16.4252 17.5806 16.5764 17.577C18.6028 17.5311 20.2256 15.8438 20.1937 13.8158C20.1784 12.839 19.7864 11.9232 19.09 11.2371Z" fill="#FDBBA7"/>
<path d="M9.41955 17.2019C9.03977 16.7887 8.75599 16.281 8.60885 15.7092C8.51205 15.3331 8.12885 15.1067 7.75263 15.2035C7.37655 15.3003 7.15015 15.6837 7.24699 16.0597C7.38762 16.6062 7.61726 17.1109 7.91768 17.5605C8.43879 17.5177 9.0236 17.3967 9.41955 17.2019Z" fill="#FDBBA7"/>
<path d="M16.7527 16.0597C16.8495 15.6837 16.6231 15.3003 16.247 15.2035C15.8709 15.1067 15.4876 15.3331 15.3908 15.7092C15.2424 16.2855 14.9555 16.7968 14.5713 17.2117C14.575 17.2083 14.5786 17.2051 14.5824 17.2017C14.9781 17.3965 15.5614 17.5177 16.082 17.5605C16.3824 17.111 16.612 16.6062 16.7527 16.0597Z" fill="#FDA38A"/>
<path d="M9.37498 24.0001C9.29 24.0001 9.20356 23.9846 9.11956 23.9518C8.75778 23.8107 8.579 23.403 8.72019 23.0412L9.47019 21.1193C9.61137 20.7576 10.019 20.5788 10.3808 20.7199C10.7426 20.8611 10.9214 21.2688 10.7802 21.6306L10.0302 23.5524C9.92178 23.8302 9.65619 24.0001 9.37498 24.0001Z" fill="#97CAFD"/>
<path d="M14.6254 23.9999C14.3441 23.9999 14.0786 23.83 13.9702 23.5522L13.2202 21.6303C13.079 21.2686 13.2578 20.8609 13.6196 20.7197C13.9814 20.5785 14.3891 20.7573 14.5302 21.1191L15.2802 23.041C15.4214 23.4027 15.2426 23.8104 14.8808 23.9516C14.7969 23.9844 14.7104 23.9999 14.6254 23.9999Z" fill="#7E93FD"/>
<path d="M18.75 22.0779C18.57 22.0779 18.3901 22.0093 18.2528 21.8719L16.7528 20.3719C16.4782 20.0973 16.4782 19.6522 16.7528 19.3776C17.0274 19.103 17.4726 19.103 17.7472 19.3776L19.2472 20.8776C19.5218 21.1522 19.5218 21.5973 19.2472 21.8719C19.1099 22.0093 18.9299 22.0779 18.75 22.0779Z" fill="#7E93FD"/>
<path d="M5.24998 22.0779C5.07002 22.0779 4.89007 22.0093 4.75282 21.8719C4.47823 21.5973 4.47823 21.1522 4.75282 20.8776L6.25282 19.3776C6.52737 19.103 6.97259 19.103 7.24718 19.3776C7.52177 19.6522 7.52177 20.0973 7.24718 20.3719L5.74718 21.8719C5.60988 22.0093 5.42993 22.0779 5.24998 22.0779Z" fill="#97CAFD"/>
</g>
<defs>
<clipPath id="clip0_2842_724">
<rect width="24" height="24" fill="white"/>
</clipPath>
</defs>
</svg>
