<svg width="17" height="24" viewBox="0 0 17 24" fill="none" xmlns="http://www.w3.org/2000/svg">
<path d="M7.22905 0C6.49546 0 5.78629 0.264748 5.23219 0.7454C4.67808 1.22615 4.31598 1.89092 4.21262 2.6172L4.20385 2.67879C3.90456 4.78163 3.32969 8.82078 3.10839 10.2191C2.3546 10.3403 1.65804 10.6913 1.10413 11.2371C0.407757 11.9232 0.015791 12.8391 0.000462998 13.8158C-0.0314586 15.8439 1.59129 17.5312 3.61783 17.5771C3.7689 17.5805 3.93667 17.575 4.1116 17.5606L4.51604 16.8659L5.61398 17.2018C6.38708 17.9236 7.11838 18.328 8.1942 18.328L10.766 8.06244L8.1942 0L7.22905 0Z" fill="#FCCABB"/>
<path d="M15.2844 11.2371C14.7305 10.6913 14.0339 10.3403 13.2801 10.2191C13.0588 8.82073 12.4839 4.78159 12.1846 2.67879L12.1759 2.61725C12.0725 1.89092 11.7104 1.22619 11.1563 0.745447C10.6022 0.264748 9.89307 0 9.15948 0H8.19434V18.328C9.27016 18.328 10.0042 17.9236 10.7773 17.2017L11.7797 16.9217L12.2768 17.5606C12.4517 17.575 12.6195 17.5806 12.7707 17.577C14.7971 17.5311 16.4199 15.8438 16.388 13.8158C16.3727 12.839 15.9807 11.9232 15.2844 11.2371Z" fill="#FDBBA7"/>
<path d="M5.61389 17.2019C5.23411 16.7887 4.95033 16.281 4.80319 15.7092C4.70639 15.3331 4.32319 15.1067 3.94697 15.2035C3.57089 15.3003 3.34448 15.6837 3.44133 16.0597C3.58195 16.6062 3.81159 17.1109 4.11202 17.5605C4.63312 17.5177 5.21794 17.3967 5.61389 17.2019Z" fill="#FDBBA7"/>
<path d="M12.947 16.0597C13.0438 15.6837 12.8174 15.3003 12.4414 15.2035C12.0652 15.1067 11.682 15.3331 11.5851 15.7092C11.4368 16.2855 11.1499 16.7968 10.7656 17.2117C10.7693 17.2083 10.773 17.2051 10.7767 17.2017C11.1725 17.3965 11.7558 17.5177 12.2763 17.5605C12.5767 17.111 12.8064 16.6062 12.947 16.0597Z" fill="#FDA38A"/>
<path d="M5.56932 24.0001C5.48433 24.0001 5.3979 23.9846 5.3139 23.9518C4.95212 23.8107 4.77333 23.403 4.91452 23.0412L5.66452 21.1193C5.80571 20.7576 6.21329 20.5788 6.57516 20.7199C6.93694 20.8611 7.11572 21.2688 6.97458 21.6306L6.22458 23.5524C6.11612 23.8302 5.85052 24.0001 5.56932 24.0001Z" fill="#97CAFD"/>
<path d="M10.8197 23.9999C10.5385 23.9999 10.2729 23.83 10.1645 23.5522L9.41452 21.6303C9.27333 21.2686 9.45216 20.8609 9.81394 20.7197C10.1757 20.5785 10.5834 20.7573 10.7246 21.1191L11.4746 23.041C11.6158 23.4027 11.4369 23.8104 11.0752 23.9516C10.9912 23.9844 10.9047 23.9999 10.8197 23.9999Z" fill="#7E93FD"/>
<path d="M14.9443 22.0779C14.7644 22.0779 14.5844 22.0093 14.4472 21.8719L12.9472 20.3719C12.6726 20.0973 12.6726 19.6522 12.9472 19.3776C13.2217 19.103 13.6669 19.103 13.9415 19.3776L15.4415 20.8776C15.7161 21.1522 15.7161 21.5973 15.4415 21.8719C15.3042 22.0093 15.1243 22.0779 14.9443 22.0779Z" fill="#7E93FD"/>
<path d="M1.44431 22.0779C1.26436 22.0779 1.08441 22.0093 0.947156 21.8719C0.672563 21.5973 0.672563 21.1522 0.947156 20.8776L2.44716 19.3776C2.7217 19.103 3.16692 19.103 3.44152 19.3776C3.71611 19.6522 3.71611 20.0973 3.44152 20.3719L1.94152 21.8719C1.80422 22.0093 1.62427 22.0779 1.44431 22.0779Z" fill="#97CAFD"/>
</svg>
