<svg width="227" height="45" viewBox="0 0 227 45" fill="none" xmlns="http://www.w3.org/2000/svg">
<path d="M4 38.7183L27.1842 38.7183C30.9138 38.7183 34.4893 37.2301 37.1176 34.5838L51.7707 19.8297C55.8407 15.7317 62.0095 14.5537 67.3032 16.8636L80.8996 22.7964C83.7965 24.0605 87.0359 24.3071 90.0908 23.4962L103.899 19.8306C108.649 18.5697 113.712 19.8915 117.239 23.3132L131.272 36.9256C137.328 42.8004 147.166 42.0232 152.224 35.2704L163.881 19.7098C166.963 15.5955 172.052 13.5012 177.137 14.2544L195.942 17.0398C199.248 17.5294 202.619 16.8205 205.448 15.0413L223 4.00055" stroke="url(#paint0_linear_5322_190)" stroke-width="8" stroke-linecap="round"/>
<defs>
<linearGradient id="paint0_linear_5322_190" x1="-1.5" y1="39.5006" x2="233.5" y2="1.50056" gradientUnits="userSpaceOnUse">
<stop stop-color="#CBCFE6"/>
<stop offset="1" stop-color="#ADB5E1"/>
</linearGradient>
</defs>
</svg>
