<svg width="24" height="24" viewBox="0 0 24 24" fill="none" xmlns="http://www.w3.org/2000/svg">
<path fill-rule="evenodd" clip-rule="evenodd" d="M11.4636 1C10.8656 1 10.2924 1.23973 9.86962 1.66645C9.44679 2.09317 9.20925 2.67162 9.20925 3.2751V14.6066C7.88814 15.3891 7 16.8381 7 18.4946C7 20.9813 9.00066 23 11.4644 23C13.9281 23 15.9287 20.9813 15.9287 18.4946C15.9287 16.8381 15.0406 15.3891 13.7195 14.6066V3.2751C13.7195 2.67162 13.4819 2.09317 13.0591 1.66645C12.6366 1.23973 12.0616 1 11.4636 1ZM11.4636 1.75862C11.8624 1.75862 12.2457 1.91831 12.5276 2.2028C12.8095 2.48728 12.9678 2.87303 12.9678 3.2751V14.83C12.9678 14.9719 13.0459 15.1016 13.1703 15.1669C14.3618 15.7908 15.177 17.0475 15.177 18.4946C15.177 20.5626 13.5135 22.2414 11.4644 22.2414C9.41522 22.2414 7.7517 20.5626 7.7517 18.4946C7.7517 17.0475 8.56693 15.7908 9.75837 15.1669C9.88278 15.1016 9.96095 14.9719 9.96095 14.83V3.2751C9.96095 2.87303 10.1192 2.48728 10.4011 2.2028C10.683 1.91831 11.0652 1.75862 11.4636 1.75862ZM11.0885 15.9133C9.83955 16.0973 8.87925 17.1837 8.87925 18.4946C8.87925 19.9344 10.0376 21.1034 11.4644 21.1034C12.8911 21.1034 14.0494 19.9344 14.0494 18.4946C14.0494 17.1837 13.0892 16.0973 11.8402 15.9133V6.12069C11.8402 5.91131 11.6718 5.74138 11.4644 5.74138C11.2569 5.74138 11.0885 5.91131 11.0885 6.12069V15.9133ZM15.2229 13.4213H17.6241C17.8316 13.4213 18 13.2513 18 13.042C18 12.8326 17.8316 12.6627 17.6241 12.6627H15.2229C15.0154 12.6627 14.847 12.8326 14.847 13.042C14.847 13.2513 15.0154 13.4213 15.2229 13.4213ZM15.2229 10.9979H16.4237C16.6308 10.9979 16.7995 10.8279 16.7995 10.6186C16.7995 10.4092 16.6308 10.2392 16.4237 10.2392H15.2229C15.0154 10.2392 14.847 10.4092 14.847 10.6186C14.847 10.8279 15.0154 10.9979 15.2229 10.9979ZM15.2229 8.57445H17.6241C17.8316 8.57445 18 8.40451 18 8.19514C18 7.98576 17.8316 7.81583 17.6241 7.81583H15.2229C15.0154 7.81583 14.847 7.98576 14.847 8.19514C14.847 8.40451 15.0154 8.57445 15.2229 8.57445ZM15.2229 6.15103H16.4237C16.6308 6.15103 16.7995 5.9811 16.7995 5.77172C16.7995 5.56235 16.6308 5.39241 16.4237 5.39241H15.2229C15.0154 5.39241 14.847 5.56235 14.847 5.77172C14.847 5.9811 15.0154 6.15103 15.2229 6.15103ZM15.2229 3.72762H17.6241C17.8316 3.72762 18 3.55769 18 3.34831C18 3.13893 17.8316 2.969 17.6241 2.969H15.2229C15.0154 2.969 14.847 3.13893 14.847 3.34831C14.847 3.55769 15.0154 3.72762 15.2229 3.72762Z" fill="url(#paint0_linear_2842_351)" stroke="url(#paint1_linear_2842_351)" stroke-width="0.4"/>
<defs>
<linearGradient id="paint0_linear_2842_351" x1="12.5" y1="1" x2="12.5" y2="23" gradientUnits="userSpaceOnUse">
<stop stop-color="#4A7CFF"/>
<stop offset="1" stop-color="#56B6FB"/>
</linearGradient>
<linearGradient id="paint1_linear_2842_351" x1="12.5" y1="1" x2="12.5" y2="23" gradientUnits="userSpaceOnUse">
<stop stop-color="#4A7CFF"/>
<stop offset="1" stop-color="#56B6FB"/>
</linearGradient>
</defs>
</svg>
