<svg width="18" height="24" viewBox="0 0 18 24" fill="none" xmlns="http://www.w3.org/2000/svg">
<path d="M15.1274 0H2.87252C1.28606 0 0 1.35417 0 3.0247V20.9754C0 22.6458 1.28606 24 2.87252 24H15.1274C16.7139 24 17.9999 22.6458 17.9999 20.9754V3.0247C17.9999 1.35417 16.7139 0 15.1274 0Z" fill="#0593FC"/>
<path d="M15.1274 0H10.7871C11.9781 0 12.9997 0.763211 13.4351 1.85048H14.9582C15.6939 1.85048 16.2926 2.48083 16.2926 3.25555V17.0305C16.2926 17.8053 15.6939 18.4356 14.9582 18.4356H13.6597V20.9753C13.6597 22.6458 12.3736 23.9999 10.7872 23.9999H15.1274C16.7139 23.9999 17.9999 22.6458 17.9999 20.9753V3.02465C17.9999 1.35417 16.7138 0 15.1274 0Z" fill="#0182FC"/>
<path d="M3.04241 18.4357C2.30665 18.4357 1.70801 17.8054 1.70801 17.0306V3.25566C1.70801 2.48088 2.30665 1.85059 3.04241 1.85059H14.959C15.6947 1.85059 16.2934 2.48094 16.2934 3.25566V17.0306C16.2934 17.8054 15.6947 18.4357 14.959 18.4357H3.04241V18.4357Z" fill="white"/>
<path d="M14.9577 1.85059H13.4346C13.5791 2.21161 13.6591 2.60836 13.6591 3.02481V3.61114H13.6975C14.0292 3.61114 14.2981 3.8943 14.2981 4.24359V16.0427C14.2981 16.392 14.0292 16.6752 13.6975 16.6752H13.6591V18.4357H14.9577C15.6934 18.4357 16.2921 17.8053 16.2921 17.0306V3.25566C16.292 2.48094 15.6934 1.85059 14.9577 1.85059Z" fill="#FAF7F7"/>
<path d="M13.6991 16.6751H4.30279C3.97106 16.6751 3.70215 16.3919 3.70215 16.0427V4.24353C3.70215 3.89424 3.97106 3.61108 4.30279 3.61108H13.6991C14.0308 3.61108 14.2997 3.89424 14.2997 4.24353V16.0427C14.2998 16.3919 14.0308 16.6751 13.6991 16.6751Z" fill="#EFE2DD"/>
<path d="M13.6978 3.61108H10.7021C11.0339 3.61108 11.3028 3.89424 11.3028 4.24353V16.0427C11.3028 16.3919 11.0339 16.6751 10.7021 16.6751H13.6978C14.0296 16.6751 14.2985 16.3919 14.2985 16.0427V4.24359C14.2985 3.8943 14.0296 3.61108 13.6978 3.61108Z" fill="#E1D3CE"/>
<path d="M6.15517 22.3272H2.84483C2.10212 22.3272 1.5 21.6932 1.5 20.9112C1.5 20.1291 2.10212 19.4951 2.84483 19.4951H6.15517C6.89788 19.4951 7.5 20.1291 7.5 20.9112C7.5 21.6932 6.89788 22.3272 6.15517 22.3272Z" fill="#8AC9FE"/>
<path d="M4.50003 19.4951H2.84483C2.10212 19.4951 1.5 20.1291 1.5 20.9112C1.5 21.6932 2.10212 22.3272 2.84483 22.3272H4.50003V19.4951Z" fill="#B3DAFE"/>
<path d="M6.48235 20.7702L5.45544 20.1459C5.352 20.083 5.22266 20.1616 5.22266 20.2874V21.536C5.22266 21.6617 5.35195 21.7404 5.45544 21.6775L6.48235 21.0532C6.58578 20.9903 6.58578 20.833 6.48235 20.7702Z" fill="white"/>
<path d="M2.51801 21.0535L3.54491 21.6777C3.64835 21.7406 3.7777 21.662 3.7777 21.5362V20.2877C3.7777 20.1619 3.6484 20.0833 3.54491 20.1461L2.51801 20.7704C2.41457 20.8333 2.41457 20.9905 2.51801 21.0535Z" fill="white"/>
<path d="M14.9399 22.6541C15.8014 22.6541 16.4999 21.9187 16.4999 21.0115C16.4999 20.1043 15.8014 19.3689 14.9399 19.3689C14.0783 19.3689 13.3799 20.1043 13.3799 21.0115C13.3799 21.9187 14.0783 22.6541 14.9399 22.6541Z" fill="#FE9738"/>
<path d="M14.9412 19.3689C14.7496 19.3689 14.5661 19.4055 14.3965 19.4721C14.9894 19.7047 15.4117 20.3061 15.4117 21.0116C15.4117 21.717 14.9894 22.3183 14.3965 22.551C14.5661 22.6176 14.7496 22.6542 14.9412 22.6542C15.8028 22.6542 16.5012 21.9188 16.5012 21.0116C16.5012 20.1044 15.8028 19.3689 14.9412 19.3689Z" fill="#FE860A"/>
<path d="M9.22887 21.2121H8.54452C8.45626 21.2121 8.38477 21.1367 8.38477 21.0438V20.3232C8.38477 20.2303 8.45631 20.155 8.54452 20.155H9.22887C9.31713 20.155 9.38862 20.2304 9.38862 20.3232V21.0438C9.38862 21.1367 9.31713 21.2121 9.22887 21.2121Z" fill="#00F2A6"/>
<path d="M10.7787 21.2123H10.0943C10.0061 21.2123 9.93457 21.137 9.93457 21.0441V20.3235C9.93457 20.2306 10.0061 20.1553 10.0943 20.1553H10.7787C10.8669 20.1553 10.9384 20.2306 10.9384 20.3235V21.0441C10.9385 21.137 10.8669 21.2123 10.7787 21.2123Z" fill="#0182FC"/>
<path d="M12.3285 21.2123H11.6441C11.5559 21.2123 11.4844 21.137 11.4844 21.0441V20.3235C11.4844 20.2306 11.5559 20.1553 11.6441 20.1553H12.3285C12.4167 20.1553 12.4882 20.2306 12.4882 20.3235V21.0441C12.4882 21.137 12.4167 21.2123 12.3285 21.2123Z" fill="#0182FC"/>
<path d="M10.0113 12.8441L10.0113 12.1598C10.0113 12.0715 10.0866 12 10.1795 12L10.9001 12C10.9931 12 11.0684 12.0715 11.0684 12.1598L11.0684 12.8441C11.0684 12.9324 10.993 13.0039 10.9001 13.0039L10.1796 13.0039C10.0866 13.0039 10.0113 12.9323 10.0113 12.8441Z" fill="#B9ACAC"/>
<path d="M11.0684 12.8441L11.0684 12.4033C11.0684 12.4916 10.993 12.5631 10.9001 12.5631L10.1796 12.5631C10.0866 12.5631 10.0113 12.4915 10.0113 12.4033L10.0113 12.8441C10.0113 12.9323 10.0867 13.0038 10.1796 13.0038L10.9001 13.0038C10.993 13.0038 11.0684 12.9323 11.0684 12.8441Z" fill="#9E9797"/>
<path d="M8.50548 12.8441L8.50548 12.1598C8.50548 12.0715 8.58081 12 8.67369 12L9.39428 12C9.48722 12 9.5625 12.0715 9.5625 12.1598L9.5625 12.8441C9.5625 12.9324 9.48716 13.0039 9.39428 13.0039L8.67369 13.0039C8.58081 13.0039 8.50548 12.9323 8.50548 12.8441Z" fill="#B9ACAC"/>
<path d="M6.99962 12.8441L6.99962 12.1598C6.99962 12.0715 7.07495 12 7.16783 12L7.88843 12C7.98136 12 8.05664 12.0715 8.05664 12.1598L8.05664 12.8441C8.05664 12.9324 7.9813 13.0039 7.88843 13.0039L7.16783 13.0039C7.07495 13.0039 6.99962 12.9323 6.99962 12.8441Z" fill="#B9ACAC"/>
<path d="M13.2011 10.5888H5.15975C5.0715 10.5888 5 10.5134 5 10.4206V9.80371C5 9.71078 5.07155 9.6355 5.15975 9.6355H13.2011C13.2894 9.6355 13.3609 9.71083 13.3609 9.80371V10.4206C13.3609 10.5134 13.2894 10.5888 13.2011 10.5888Z" fill="#B9ACAC"/>
<path d="M13.2011 8.95327H5.15975C5.0715 8.95327 5 8.87794 5 8.78506V8.16822C5 8.07528 5.07155 8 5.15975 8H13.2011C13.2894 8 13.3609 8.07534 13.3609 8.16822V8.78506C13.3609 8.87794 13.2894 8.95327 13.2011 8.95327Z" fill="#B9ACAC"/>
</svg>
