<svg width="24" height="24" viewBox="0 0 24 24" fill="none" xmlns="http://www.w3.org/2000/svg">
<path d="M6.15218 1.13257C6.36903 2.1776 7.53327 2.58948 8.27249 1.88286C8.3974 1.76341 8.58456 1.91141 8.51883 2.07767C8.13004 3.06182 8.8496 4.14044 9.82918 4.04199C9.99476 4.0254 10.0663 4.26472 9.92325 4.3573C9.07763 4.9048 9.07763 6.23806 9.92325 6.78535C10.0663 6.87793 9.99476 7.11725 9.82918 7.10066C8.8496 7.0022 8.13004 8.08082 8.51883 9.06497C8.58456 9.23145 8.3974 9.37924 8.27249 9.25979C7.53327 8.55316 6.36884 8.96526 6.15218 10.0101C6.11556 10.1868 5.88444 10.1868 5.84782 10.0101C5.63116 8.96505 4.46692 8.55316 3.72751 9.25979C3.6026 9.37924 3.41544 9.23145 3.48117 9.06497C3.86996 8.08082 3.1504 7.0022 2.17082 7.10066C2.00524 7.11725 1.93373 6.87793 2.07675 6.78535C2.92237 6.23806 2.92237 4.9048 2.07675 4.3573C1.93392 4.26472 2.00524 4.0254 2.17082 4.04199C3.1504 4.14044 3.86996 3.06182 3.48117 2.07767C3.41544 1.91141 3.6026 1.76341 3.72751 1.88286C4.46692 2.58948 5.63116 2.1776 5.84782 1.13257C5.88444 0.95581 6.11556 0.95581 6.15218 1.13257Z" fill="#FD8F31"/>
<path d="M9.9223 6.78535C9.07668 6.23806 9.07668 4.9048 9.9223 4.3573C10.0653 4.26493 9.99381 4.0254 9.82824 4.0422C8.84884 4.14065 8.12929 3.06182 8.51788 2.07767C8.58361 1.91141 8.39664 1.76341 8.27154 1.88286C7.53233 2.58969 6.36808 2.1776 6.15123 1.13257C6.11461 0.95581 5.88349 0.95581 5.84687 1.13257C5.76668 1.51905 5.55697 1.81841 5.28711 2.00735C6.24433 2.84518 6.85749 4.12995 6.85749 5.57153C6.85749 7.01291 6.24433 8.29789 5.28711 9.13572C5.55697 9.32445 5.76668 9.62402 5.84687 10.0103C5.88349 10.187 6.1148 10.187 6.15123 10.0103C6.36808 8.96526 7.53233 8.55337 8.27154 9.26C8.39664 9.37945 8.58361 9.23166 8.51788 9.06518C8.12929 8.08103 8.84884 7.00241 9.82824 7.10087C9.99381 7.11746 10.0653 6.87793 9.9223 6.78535Z" fill="#FF7F1F"/>
<path d="M7.71997 5.57131C7.71997 6.60647 6.94953 7.44535 5.99905 7.44535C5.04876 7.44535 4.27832 6.60647 4.27832 5.57131C4.27832 4.53635 5.04876 3.69727 5.99905 3.69727C6.94953 3.69727 7.71997 4.53635 7.71997 5.57131Z" fill="#FCCF3F"/>
<path d="M17.6256 14.7823V2.91376C17.6256 1.30444 16.321 0 14.7119 0C13.1025 0 11.7981 1.30444 11.7981 2.91376V14.7823C10.4944 15.6995 9.64258 17.2156 9.64258 18.9307C9.64258 21.7304 11.9122 24 14.7119 24C17.5115 24 19.7811 21.7304 19.7811 18.9307C19.7811 17.2156 18.9291 15.6995 17.6256 14.7823Z" fill="url(#paint0_linear_2842_405)"/>
<path d="M14.7119 22.3398C12.7814 22.3398 11.2109 20.7692 11.2109 18.8389C11.2109 17.3729 12.1219 16.0677 13.4888 15.5585V2.91382C13.4888 2.23926 14.0374 1.69067 14.7119 1.69067C15.3863 1.69067 15.9351 2.23926 15.9351 2.91382V15.5585C17.3018 16.0676 18.2129 17.3727 18.2129 18.8387C18.2129 20.7692 16.6424 22.3398 14.7119 22.3398Z" fill="#F3E8D7"/>
<path d="M13.4888 5.15015V15.5584C12.1219 16.0674 11.2109 17.3726 11.2109 18.8386C11.2109 20.769 12.7814 22.3395 14.7119 22.3395C16.6424 22.3395 18.2129 20.769 18.2129 18.8386C18.2129 17.3726 17.3018 16.0674 15.9351 15.5584V5.15015H13.4888Z" fill="#FC4E51"/>
<path d="M21.6616 8.44751H19.5604C19.3603 8.44751 19.1982 8.28528 19.1982 8.08533C19.1982 7.88538 19.3603 7.72314 19.5604 7.72314H21.6616C21.8615 7.72314 22.0237 7.88538 22.0237 8.08533C22.0237 8.28528 21.8615 8.44751 21.6616 8.44751Z" fill="#0D6E9A"/>
<path d="M20.5144 5.51221H19.5604C19.3603 5.51221 19.1982 5.34998 19.1982 5.15002C19.1982 4.95007 19.3603 4.78784 19.5604 4.78784H20.5144C20.7144 4.78784 20.8766 4.95007 20.8766 5.15002C20.8766 5.34998 20.7144 5.51221 20.5144 5.51221Z" fill="#0D6E9A"/>
<path d="M20.8524 2.5769H19.5604C19.3603 2.5769 19.1982 2.41467 19.1982 2.21472C19.1982 2.01477 19.3603 1.85254 19.5604 1.85254H20.8524C21.0526 1.85254 21.2146 2.01477 21.2146 2.21472C21.2146 2.41467 21.0526 2.5769 20.8524 2.5769Z" fill="#0D6E9A"/>
<path d="M20.8524 14.3184H19.5604C19.3603 14.3184 19.1982 14.1561 19.1982 13.9562C19.1982 13.756 19.3603 13.594 19.5604 13.594H20.8524C21.0526 13.594 21.2146 13.756 21.2146 13.9562C21.2146 14.1561 21.0526 14.3184 20.8524 14.3184Z" fill="#0D6E9A"/>
<path d="M20.5144 11.3831H19.5604C19.3603 11.3831 19.1982 11.2208 19.1982 11.0209C19.1982 10.8209 19.3603 10.6587 19.5604 10.6587H20.5144C20.7144 10.6587 20.8766 10.8209 20.8766 11.0209C20.8766 11.2208 20.7144 11.3831 20.5144 11.3831Z" fill="#0D6E9A"/>
<path d="M15.9351 15.5584V5.15015H13.4888V15.5584C13.4888 15.5584 15.1798 16.343 15.1798 18.8386C15.1798 20.2261 14.3685 21.4277 13.1953 21.9938C13.6544 22.2154 14.1689 22.3395 14.7118 22.3395C16.6423 22.3395 18.213 20.769 18.213 18.8386C18.213 17.3726 17.3018 16.0676 15.9351 15.5584Z" fill="#E5394B"/>
<defs>
<linearGradient id="paint0_linear_2842_405" x1="14.7119" y1="0" x2="14.7119" y2="24" gradientUnits="userSpaceOnUse">
<stop stop-color="#E96216"/>
<stop offset="1" stop-color="#FFD66B"/>
</linearGradient>
</defs>
</svg>
