<svg width="24" height="24" viewBox="0 0 24 24" fill="none" xmlns="http://www.w3.org/2000/svg">
<path d="M18.1274 0H5.87252C4.28606 0 3 1.35417 3 3.0247V20.9754C3 22.6458 4.28606 24 5.87252 24H18.1274C19.7139 24 20.9999 22.6458 20.9999 20.9754V3.0247C20.9999 1.35417 19.7139 0 18.1274 0Z" fill="#0593FC"/>
<path d="M18.1274 0H13.7871C14.9781 0 15.9997 0.763211 16.4351 1.85048H17.9582C18.6939 1.85048 19.2926 2.48083 19.2926 3.25555V17.0305C19.2926 17.8053 18.6939 18.4356 17.9582 18.4356H16.6597V20.9753C16.6597 22.6458 15.3736 23.9999 13.7872 23.9999H18.1274C19.7139 23.9999 20.9999 22.6458 20.9999 20.9753V3.02465C20.9999 1.35417 19.7138 0 18.1274 0Z" fill="#0182FC"/>
<path d="M6.04241 18.4357C5.30665 18.4357 4.70801 17.8054 4.70801 17.0306V3.25566C4.70801 2.48088 5.30665 1.85059 6.04241 1.85059H17.959C18.6947 1.85059 19.2934 2.48094 19.2934 3.25566V17.0306C19.2934 17.8054 18.6947 18.4357 17.959 18.4357H6.04241V18.4357Z" fill="white"/>
<path d="M17.9577 1.85059H16.4346C16.5791 2.21161 16.6591 2.60836 16.6591 3.02481V3.61114H16.6975C17.0292 3.61114 17.2981 3.8943 17.2981 4.24359V16.0427C17.2981 16.392 17.0292 16.6752 16.6975 16.6752H16.6591V18.4357H17.9577C18.6934 18.4357 19.2921 17.8053 19.2921 17.0306V3.25566C19.292 2.48094 18.6934 1.85059 17.9577 1.85059Z" fill="#FAF7F7"/>
<path d="M16.6991 16.6751H7.30279C6.97106 16.6751 6.70215 16.3919 6.70215 16.0427V4.24353C6.70215 3.89424 6.97106 3.61108 7.30279 3.61108H16.6991C17.0308 3.61108 17.2997 3.89424 17.2997 4.24353V16.0427C17.2998 16.3919 17.0308 16.6751 16.6991 16.6751Z" fill="#EFE2DD"/>
<path d="M16.6978 3.61108H13.7021C14.0339 3.61108 14.3028 3.89424 14.3028 4.24353V16.0427C14.3028 16.3919 14.0339 16.6751 13.7021 16.6751H16.6978C17.0296 16.6751 17.2985 16.3919 17.2985 16.0427V4.24359C17.2985 3.8943 17.0296 3.61108 16.6978 3.61108Z" fill="#E1D3CE"/>
<path d="M9.15517 22.3272H5.84483C5.10212 22.3272 4.5 21.6932 4.5 20.9112C4.5 20.1291 5.10212 19.4951 5.84483 19.4951H9.15517C9.89788 19.4951 10.5 20.1291 10.5 20.9112C10.5 21.6932 9.89788 22.3272 9.15517 22.3272Z" fill="#8AC9FE"/>
<path d="M7.50003 19.4951H5.84483C5.10212 19.4951 4.5 20.1291 4.5 20.9112C4.5 21.6932 5.10212 22.3272 5.84483 22.3272H7.50003V19.4951Z" fill="#B3DAFE"/>
<path d="M9.48235 20.7702L8.45544 20.1459C8.352 20.083 8.22266 20.1616 8.22266 20.2874V21.536C8.22266 21.6617 8.35195 21.7404 8.45544 21.6775L9.48235 21.0532C9.58578 20.9903 9.58578 20.833 9.48235 20.7702Z" fill="white"/>
<path d="M5.51801 21.0535L6.54491 21.6777C6.64835 21.7406 6.7777 21.662 6.7777 21.5362V20.2877C6.7777 20.1619 6.6484 20.0833 6.54491 20.1461L5.51801 20.7704C5.41457 20.8333 5.41457 20.9905 5.51801 21.0535Z" fill="white"/>
<path d="M17.9399 22.6541C18.8014 22.6541 19.4999 21.9187 19.4999 21.0115C19.4999 20.1043 18.8014 19.3689 17.9399 19.3689C17.0783 19.3689 16.3799 20.1043 16.3799 21.0115C16.3799 21.9187 17.0783 22.6541 17.9399 22.6541Z" fill="#FE9738"/>
<path d="M17.9412 19.3689C17.7496 19.3689 17.5661 19.4055 17.3965 19.4721C17.9894 19.7047 18.4117 20.3061 18.4117 21.0116C18.4117 21.717 17.9894 22.3183 17.3965 22.551C17.5661 22.6176 17.7496 22.6542 17.9412 22.6542C18.8028 22.6542 19.5012 21.9188 19.5012 21.0116C19.5012 20.1044 18.8028 19.3689 17.9412 19.3689Z" fill="#FE860A"/>
<path d="M12.2289 21.2121H11.5445C11.4563 21.2121 11.3848 21.1367 11.3848 21.0438V20.3232C11.3848 20.2303 11.4563 20.155 11.5445 20.155H12.2289C12.3171 20.155 12.3886 20.2304 12.3886 20.3232V21.0438C12.3886 21.1367 12.3171 21.2121 12.2289 21.2121Z" fill="#00F2A6"/>
<path d="M13.7787 21.2123H13.0943C13.0061 21.2123 12.9346 21.137 12.9346 21.0441V20.3235C12.9346 20.2306 13.0061 20.1553 13.0943 20.1553H13.7787C13.8669 20.1553 13.9384 20.2306 13.9384 20.3235V21.0441C13.9385 21.137 13.8669 21.2123 13.7787 21.2123Z" fill="#0182FC"/>
<path d="M15.3285 21.2123H14.6441C14.5559 21.2123 14.4844 21.137 14.4844 21.0441V20.3235C14.4844 20.2306 14.5559 20.1553 14.6441 20.1553H15.3285C15.4167 20.1553 15.4882 20.2306 15.4882 20.3235V21.0441C15.4882 21.137 15.4167 21.2123 15.3285 21.2123Z" fill="#0182FC"/>
<path d="M13.0113 12.8441L13.0113 12.1598C13.0113 12.0715 13.0866 12 13.1795 12L13.9001 12C13.9931 12 14.0684 12.0715 14.0684 12.1598L14.0684 12.8441C14.0684 12.9324 13.993 13.0039 13.9001 13.0039L13.1796 13.0039C13.0866 13.0039 13.0113 12.9323 13.0113 12.8441Z" fill="#B9ACAC"/>
<path d="M14.0684 12.8441L14.0684 12.4033C14.0684 12.4916 13.993 12.5631 13.9001 12.5631L13.1796 12.5631C13.0866 12.5631 13.0113 12.4915 13.0113 12.4033L13.0113 12.8441C13.0113 12.9323 13.0867 13.0038 13.1796 13.0038L13.9001 13.0038C13.993 13.0038 14.0684 12.9323 14.0684 12.8441Z" fill="#9E9797"/>
<path d="M11.5055 12.8441L11.5055 12.1598C11.5055 12.0715 11.5808 12 11.6737 12L12.3943 12C12.4872 12 12.5625 12.0715 12.5625 12.1598L12.5625 12.8441C12.5625 12.9324 12.4872 13.0039 12.3943 13.0039L11.6737 13.0039C11.5808 13.0039 11.5055 12.9323 11.5055 12.8441Z" fill="#B9ACAC"/>
<path d="M9.99962 12.8441L9.99962 12.1598C9.99962 12.0715 10.075 12 10.1678 12L10.8884 12C10.9814 12 11.0566 12.0715 11.0566 12.1598L11.0566 12.8441C11.0566 12.9324 10.9813 13.0039 10.8884 13.0039L10.1678 13.0039C10.075 13.0039 9.99962 12.9323 9.99962 12.8441Z" fill="#B9ACAC"/>
<path d="M16.2011 10.5888H8.15975C8.0715 10.5888 8 10.5134 8 10.4206V9.80371C8 9.71078 8.07155 9.6355 8.15975 9.6355H16.2011C16.2894 9.6355 16.3609 9.71083 16.3609 9.80371V10.4206C16.3609 10.5134 16.2894 10.5888 16.2011 10.5888Z" fill="#B9ACAC"/>
<path d="M16.2011 8.95327H8.15975C8.0715 8.95327 8 8.87794 8 8.78506V8.16822C8 8.07528 8.07155 8 8.15975 8H16.2011C16.2894 8 16.3609 8.07534 16.3609 8.16822V8.78506C16.3609 8.87794 16.2894 8.95327 16.2011 8.95327Z" fill="#B9ACAC"/>
</svg>
