<svg width="24" height="24" viewBox="0 0 24 24" fill="none" xmlns="http://www.w3.org/2000/svg">
<path d="M23.272 15.0534L16.0707 4.13645C15.6395 3.48273 15.0395 2.94362 14.3274 2.56986C13.6152 2.19611 12.8143 2 12 2C11.1857 2 10.3848 2.19611 9.67262 2.56986C8.96047 2.94362 8.36054 3.48273 7.92928 4.13645L0.727955 15.0534C0.274494 15.741 0.0237014 16.5308 0.00159892 17.3411C-0.0205036 18.1513 0.18689 18.9523 0.602259 19.6611C1.01763 20.3699 1.62584 20.9606 2.36379 21.3718C3.10173 21.7831 3.94252 22 4.79892 22H19.2016C20.0579 21.9999 20.8986 21.783 21.6365 21.3717C22.3744 20.9603 22.9825 20.3697 23.3979 19.6609C23.8132 18.9521 24.0205 18.1511 23.9984 17.3409C23.9763 16.5308 23.7255 15.7409 23.272 15.0534ZM14.7784 13.2653L12.3789 17.8071C12.265 18.0226 12.0653 18.1864 11.8237 18.2626C11.5822 18.3387 11.3185 18.3209 11.0908 18.2131C10.8631 18.1053 10.69 17.9163 10.6096 17.6877C10.5291 17.4591 10.5479 17.2096 10.6618 16.9941L12.3669 13.7649H10.0807C9.91668 13.7652 9.75537 13.7256 9.61213 13.6501C9.46888 13.5746 9.34847 13.4656 9.26238 13.3335C9.17629 13.2014 9.12738 13.0507 9.12034 12.8956C9.11329 12.7406 9.14833 12.5864 9.22212 12.4478L11.6216 7.90609C11.7355 7.6906 11.9352 7.52676 12.1768 7.45061C12.4183 7.37447 12.6819 7.39225 12.9096 7.50006C13.1373 7.60786 13.3105 7.79686 13.3909 8.02547C13.4714 8.25407 13.4526 8.50357 13.3387 8.71906L11.6336 11.9482H13.9198C14.0838 11.948 14.2451 11.9875 14.3884 12.0631C14.5316 12.1386 14.652 12.2476 14.7381 12.3797C14.8242 12.5117 14.8731 12.6625 14.8801 12.8175C14.8872 12.9726 14.8521 13.1268 14.7784 13.2653Z" fill="url(#paint0_linear_2842_522)"/>
<defs>
<linearGradient id="paint0_linear_2842_522" x1="3.91975" y1="7.76257" x2="19.1913" y2="23.8991" gradientUnits="userSpaceOnUse">
<stop stop-color="#FF6781"/>
<stop offset="1" stop-color="#FFAE35"/>
</linearGradient>
</defs>
</svg>
