<svg width="24" height="20" viewBox="0 0 24 20" fill="none" xmlns="http://www.w3.org/2000/svg">
<path d="M23.272 13.0534L16.0707 2.13645C15.6395 1.48273 15.0395 0.94362 14.3274 0.569864C13.6152 0.196108 12.8143 0 12 0C11.1857 0 10.3848 0.196108 9.67262 0.569864C8.96047 0.94362 8.36054 1.48273 7.92928 2.13645L0.727955 13.0534C0.274494 13.741 0.0237014 14.5308 0.00159892 15.3411C-0.0205036 16.1513 0.18689 16.9523 0.602259 17.6611C1.01763 18.3699 1.62584 18.9606 2.36379 19.3718C3.10173 19.7831 3.94252 20 4.79892 20H19.2016C20.0579 19.9999 20.8986 19.783 21.6365 19.3717C22.3744 18.9603 22.9825 18.3697 23.3979 17.6609C23.8132 16.9521 24.0205 16.1511 23.9984 15.3409C23.9763 14.5308 23.7255 13.7409 23.272 13.0534ZM14.7784 11.2653L12.3789 15.8071C12.265 16.0226 12.0653 16.1864 11.8237 16.2626C11.5822 16.3387 11.3185 16.3209 11.0908 16.2131C10.8631 16.1053 10.69 15.9163 10.6096 15.6877C10.5291 15.4591 10.5479 15.2096 10.6618 14.9941L12.3669 11.7649H10.0807C9.91668 11.7652 9.75537 11.7256 9.61213 11.6501C9.46888 11.5746 9.34847 11.4656 9.26238 11.3335C9.17629 11.2014 9.12738 11.0507 9.12034 10.8956C9.11329 10.7406 9.14833 10.5864 9.22212 10.4478L11.6216 5.90609C11.7355 5.6906 11.9352 5.52676 12.1768 5.45061C12.4183 5.37447 12.6819 5.39225 12.9096 5.50006C13.1373 5.60786 13.3105 5.79686 13.3909 6.02547C13.4714 6.25407 13.4526 6.50357 13.3387 6.71906L11.6336 9.94823H13.9198C14.0838 9.94801 14.2451 9.98754 14.3884 10.0631C14.5316 10.1386 14.652 10.2476 14.7381 10.3797C14.8242 10.5117 14.8731 10.6625 14.8801 10.8175C14.8872 10.9726 14.8521 11.1268 14.7784 11.2653Z" fill="url(#paint0_linear_2842_523)"/>
<defs>
<linearGradient id="paint0_linear_2842_523" x1="3.91975" y1="5.76257" x2="19.1913" y2="21.8991" gradientUnits="userSpaceOnUse">
<stop stop-color="#FF6781"/>
<stop offset="1" stop-color="#FFAE35"/>
</linearGradient>
</defs>
</svg>
