<svg width="324" height="174" viewBox="0 0 324 174" fill="none" xmlns="http://www.w3.org/2000/svg">
<g clip-path="url(#clip0_209_701)">
<path fill-rule="evenodd" clip-rule="evenodd" d="M53.1339 74.4276C52.6305 69.9877 52.7081 65.4473 53.4181 60.8553C59.1642 23.6956 104.156 -2.76857 153.91 1.74603C179.793 4.09463 201.866 14.3644 216.279 28.91C246.229 23.9647 273.867 29.2575 288.782 45.1514C297.327 54.2576 300.549 65.6209 299.069 77.7507C313.436 86.6867 322.528 98.5297 323.513 111.858C325.788 142.643 283.952 169.694 230.069 172.277C209.494 173.264 190.138 170.54 173.943 165.082C164.245 165.289 155.069 164.304 146.825 162.11C131.615 168.864 112.588 172.944 91.9199 173.086C41.8086 173.429 1.02417 150.494 0.825288 121.859C0.680412 100.999 22.1126 82.8684 53.1339 74.4276Z" fill="#BDBBFE" fill-opacity="0.15"/>
<path d="M161.975 150.816C225.875 150.816 277.676 147.813 277.676 144.107C277.676 140.401 225.875 137.397 161.975 137.397C98.0753 137.397 46.2744 140.401 46.2744 144.107C46.2744 147.813 98.0753 150.816 161.975 150.816Z" fill="#C7C7CC"/>
<path d="M241.388 125.804H237.808V137.504H241.388V125.804Z" fill="#171F71"/>
<g opacity="0.2">
<path d="M241.388 125.804H237.808V137.504H241.388V125.804Z" fill="white"/>
</g>
<path d="M239.55 127.683C233.977 127.684 228.492 126.316 223.581 123.7L225.276 120.564C230.596 123.388 236.642 124.574 242.644 123.971C248.645 123.367 254.33 121.002 258.972 117.176C263.615 113.35 267.005 108.237 268.71 102.49C270.414 96.7429 270.357 90.6215 268.545 84.9067C267.584 81.8429 266.129 78.9543 264.236 76.3539C261.528 72.6183 257.997 69.5453 253.913 67.3683L255.602 64.2329C257.486 65.2383 259.271 66.4149 260.937 67.7477C263.289 69.6359 265.376 71.8287 267.143 74.2675C269.26 77.1756 270.886 80.4067 271.958 83.8339C273.563 88.8878 273.946 94.2463 273.075 99.4746C272.205 104.703 270.107 109.654 266.95 113.926C263.793 118.198 259.667 121.671 254.907 124.063C250.146 126.456 244.885 127.7 239.55 127.695V127.683Z" fill="#171F71"/>
<g opacity="0.3">
<path d="M239.55 127.683C233.977 127.684 228.492 126.316 223.581 123.7L225.276 120.564C230.596 123.388 236.642 124.574 242.644 123.971C248.645 123.367 254.33 121.002 258.972 117.176C263.615 113.35 267.005 108.237 268.71 102.49C270.414 96.7429 270.357 90.6215 268.545 84.9067C267.584 81.8429 266.129 78.9543 264.236 76.3539C261.528 72.6183 257.997 69.5453 253.913 67.3683L255.602 64.2329C257.486 65.2383 259.271 66.4149 260.937 67.7477C263.289 69.6359 265.376 71.8287 267.143 74.2675C269.26 77.1756 270.886 80.4067 271.958 83.8339C273.563 88.8878 273.946 94.2463 273.075 99.4746C272.205 104.703 270.107 109.654 266.95 113.926C263.793 118.198 259.667 121.671 254.907 124.063C250.146 126.456 244.885 127.7 239.55 127.695V127.683Z" fill="white"/>
</g>
<path d="M222.43 126.664C222.282 126.665 222.136 126.629 222.006 126.557C221.802 126.445 221.65 126.259 221.582 126.037C221.514 125.816 221.536 125.577 221.642 125.371L255.977 61.7496C256.033 61.6464 256.108 61.5551 256.199 61.4808C256.289 61.4065 256.394 61.3508 256.506 61.3166C256.619 61.2825 256.737 61.2707 256.854 61.282C256.971 61.2932 257.085 61.3272 257.189 61.3821C257.293 61.437 257.384 61.5116 257.459 61.6018C257.534 61.6919 257.59 61.7958 257.625 61.9076C257.659 62.0193 257.671 62.1367 257.659 62.2529C257.648 62.3692 257.614 62.4822 257.559 62.5853L223.217 126.183C223.142 126.327 223.029 126.447 222.89 126.531C222.752 126.616 222.592 126.662 222.43 126.664Z" fill="#171F71"/>
<g opacity="0.4">
<path d="M222.43 126.664C222.282 126.665 222.136 126.629 222.006 126.557C221.802 126.445 221.65 126.259 221.582 126.037C221.514 125.816 221.536 125.577 221.642 125.371L255.977 61.7496C256.033 61.6464 256.108 61.5551 256.199 61.4808C256.289 61.4065 256.394 61.3508 256.506 61.3166C256.619 61.2825 256.737 61.2707 256.854 61.282C256.971 61.2932 257.085 61.3272 257.189 61.3821C257.293 61.437 257.384 61.5116 257.459 61.6018C257.534 61.6919 257.59 61.7958 257.625 61.9076C257.659 62.0193 257.671 62.1367 257.659 62.2529C257.648 62.3692 257.614 62.4822 257.559 62.5853L223.217 126.183C223.142 126.327 223.029 126.447 222.89 126.531C222.752 126.616 222.592 126.662 222.43 126.664Z" fill="white"/>
</g>
<path d="M233.052 136.639H246.144C246.565 136.639 246.968 136.805 247.266 137.101C247.564 137.396 247.731 137.797 247.731 138.216V141.12H231.47V138.216C231.47 137.798 231.637 137.398 231.933 137.103C232.229 136.807 232.632 136.64 233.052 136.639Z" fill="#171F71"/>
<path d="M240.941 67.9907C246.113 68.2542 251.09 70.0353 255.243 73.1086C259.396 76.1818 262.538 80.4094 264.272 85.2565C266.007 90.1037 266.255 95.3527 264.985 100.34C263.716 105.327 260.986 109.828 257.141 113.274C253.296 116.72 248.508 118.957 243.384 119.7C238.259 120.443 233.028 119.661 228.351 117.451C223.674 115.241 219.762 111.704 217.11 107.285C214.457 102.867 213.183 97.7671 213.449 92.6298C213.806 85.7416 216.902 79.276 222.058 74.6554C227.213 70.0347 234.006 67.6374 240.941 67.9907Z" fill="#407BFF"/>
<path opacity="0.2" d="M265.746 95.2971C265.467 100.724 263.482 105.928 260.071 110.176C256.659 114.424 251.992 117.502 246.727 118.979C241.462 120.455 235.863 120.254 230.718 118.405C225.574 116.556 221.142 113.152 218.047 108.671C214.952 104.19 213.35 98.858 213.465 93.4251C213.58 87.9922 215.407 82.7318 218.689 78.384C221.97 74.0362 226.542 70.8198 231.76 69.1872C236.979 67.5546 242.581 67.5881 247.779 69.2829C250.428 70.1431 252.919 71.4241 255.154 73.0763C258.632 75.6216 261.42 78.9837 263.268 82.8616C265.117 86.7395 265.968 91.0122 265.746 95.2971Z" fill="white"/>
<path opacity="0.5" d="M254.85 72.8392C254.81 72.819 254.772 72.7952 254.737 72.768C254.664 72.7053 254.584 72.6516 254.498 72.608C253.412 72.0153 253.717 74.1076 252.708 74.5817C251.7 75.0559 249.921 74.2024 250.136 73.586C250.351 72.9696 248.31 71.2566 247.749 70.984C247.485 70.8898 247.202 70.8601 246.924 70.8975C246.646 70.9348 246.381 71.0381 246.152 71.1985C245.922 71.3589 245.735 71.5718 245.606 71.8192C245.477 72.0666 245.41 72.3412 245.41 72.6199C245.326 74.398 246.311 75.453 246.037 75.9924C245.762 76.5318 245.768 76.6977 243.96 77.5571C242.152 78.4166 240.845 77.3201 239.753 78.298C238.661 79.276 240.075 79.8213 239.64 82.1922C239.204 84.563 238.559 82.8619 237.253 83.1168C235.946 83.3717 236.692 81.8069 236.859 80.8941C237.026 79.9813 235.665 79.7087 235.069 79.6376C234.472 79.5665 232.98 79.3886 233.171 77.5512C233.362 75.7138 233.266 73.9949 230.73 74.1372C229.424 74.2202 228.713 72.3591 228.343 70.4861C225.033 72.053 222.09 74.2913 219.703 77.0568C217.317 79.8222 215.54 83.0536 214.487 86.5427C214.625 86.513 214.744 86.7027 214.935 87.1769C215.532 88.6587 216.087 90.1404 216.844 91.0414C217.179 91.397 217.411 91.8357 217.516 92.3114C217.621 92.787 217.595 93.282 217.441 93.7441C217.125 94.4732 215.585 94.9296 215.555 95.4334C215.526 95.9372 214.081 96.6188 213.855 97.0811C213.836 97.1325 213.8 97.1764 213.754 97.2063C213.708 97.2362 213.653 97.2505 213.598 97.2471C214.049 100.779 215.228 104.18 217.06 107.239C218.893 110.299 221.34 112.95 224.25 115.028C224.9 113.345 226.04 112.012 226.804 111.97C228.403 111.887 233.338 111.111 231.524 108.947C229.71 106.784 227.771 104.798 227.771 104.798C228.15 104.228 228.577 103.691 229.048 103.192C229.34 103.008 228.391 102.469 230.056 102.291C231.721 102.113 231.846 102.101 231.148 101.307C230.45 100.513 229.298 101.117 230.062 100.122C230.826 99.126 231.661 98.3436 232.485 99.4461C233.308 100.549 232.807 101.135 233.081 101.461C233.356 101.787 235.82 101.283 235.82 101.283C235.82 101.283 236.459 102.167 236.184 102.362C235.732 102.887 235.319 103.443 234.949 104.028C234.75 104.581 234.425 105.082 234 105.492C233.499 105.782 235.373 107.673 235.934 107.963C236.495 108.254 236.728 108.491 237.211 108.366C237.694 108.242 238.631 107.24 238.971 106.938C239.311 106.636 241.358 107.377 241.358 107.377C242.127 107.819 242.848 108.337 243.512 108.924C243.843 109.249 244.274 109.455 244.737 109.506C245.199 109.558 245.666 109.453 246.06 109.208C246.484 108.829 246.46 107.797 247.254 108.153C248.048 108.509 248.316 108.876 248.865 110.791C249.414 112.705 252.678 115.514 252.272 116.7C254.686 115.38 256.872 113.685 258.747 111.68C256.438 110.915 255.578 110.032 255.232 109.528C254.785 108.87 255.047 108.864 255.298 107.75C255.548 106.636 257.655 105.972 257.995 105.67C258.335 105.367 259.976 103.34 260.782 103.127C261.587 102.913 261.528 101.847 261.528 101.847C261.528 101.847 261.677 102.125 262.005 101.42C262.333 100.714 261.975 99.9913 263.061 99.0134C263.763 98.4808 264.58 98.1194 265.448 97.9583C265.591 97.0651 265.684 96.1648 265.729 95.2615C265.813 93.6785 265.749 92.0911 265.538 90.5198L262.697 91.5926C262.032 91.6041 261.367 91.5405 260.716 91.4029C260.406 91.2251 258.926 90.2768 257.78 90.8576C256.635 91.4385 256.521 90.4724 254.373 90.1227C252.225 89.773 255.429 86.7561 255.93 86.3056C256.432 85.8551 256.527 86.0922 257.977 85.375C259.427 84.6579 259.171 83.5436 259.171 83.5436C258.292 82.2772 257.259 81.1227 256.097 80.1058C254.689 79.0034 256.694 78.8907 260.185 77.8891C258.658 75.9621 256.862 74.2616 254.85 72.8392ZM245.303 105.735C244.801 106.487 244.109 105.587 244.109 105.587C242.074 104.994 241.877 103.352 242.57 102.73C243.262 102.107 243.602 99.9854 244.688 100.833C245.563 101.481 246.478 102.075 247.427 102.611C247.427 102.611 248.62 99.5527 248.674 102.398C248.728 105.243 250.357 104.377 248.71 105.249C247.063 106.12 245.816 104.964 245.315 105.717L245.303 105.735ZM253.257 106.505C253.266 107.232 253.184 107.957 253.012 108.663L251.485 109.439C250.345 108.497 250.787 107.068 251.407 106.938C252.028 106.808 253.185 105.67 253.275 106.487L253.257 106.505ZM250.458 84.5275C250.858 85.3039 249.641 85.8077 248.292 87.7696C246.944 89.7315 246.114 88.1311 246.114 88.1311C246.114 88.1311 243.381 85.9618 244.27 85.0135C245.159 84.0651 244.491 82.8145 245.804 82.0914C246.621 81.6409 247.433 82.0321 248.191 82.8679C248.949 83.7036 250.076 83.7392 250.47 84.5097L250.458 84.5275Z" fill="white"/>
<path opacity="0.2" d="M247.778 69.283C248.154 77.1068 245.63 85.5529 240.093 92.8077C233.964 100.839 225.419 105.735 216.904 106.968C214.265 102.404 213.082 97.1525 213.51 91.9067C213.938 86.661 215.958 81.6676 219.302 77.5855C222.646 73.5034 227.158 70.5246 232.242 69.0424C237.326 67.5601 242.743 67.644 247.778 69.283Z" fill="white"/>
<g opacity="0.3">
<path d="M233.052 136.639H246.144C246.565 136.639 246.968 136.805 247.266 137.101C247.564 137.396 247.731 137.797 247.731 138.216V141.12H231.47V138.216C231.47 137.798 231.637 137.398 231.933 137.103C232.229 136.807 232.632 136.64 233.052 136.639Z" fill="white"/>
</g>
<path d="M225.986 140.266H253.208C253.699 140.266 254.169 140.46 254.516 140.804C254.863 141.149 255.058 141.616 255.058 142.104V145.12H224.136V142.104C224.136 141.616 224.331 141.149 224.678 140.804C225.025 140.46 225.495 140.266 225.986 140.266Z" fill="#171F71"/>
<g opacity="0.4">
<path d="M225.986 140.266H253.208C253.699 140.266 254.169 140.46 254.516 140.804C254.863 141.149 255.058 141.616 255.058 142.104V145.12H224.136V142.104C224.136 141.616 224.331 141.149 224.678 140.804C225.025 140.46 225.495 140.266 225.986 140.266Z" fill="white"/>
</g>
<path d="M80.7005 119.758H106.789V108.52H80.7005V119.758Z" fill="#407BFF"/>
<path opacity="0.8" d="M80.7005 119.758H106.789V108.52H80.7005V119.758Z" fill="white"/>
<path opacity="0.2" d="M104.694 109.623H80.7061V108.521H104.67L104.694 109.623Z" fill="black"/>
<path opacity="0.2" d="M104.7 110.577L83.0508 111.034L104.7 111.496V110.577Z" fill="black"/>
<path opacity="0.2" d="M104.7 114.732L81.7739 115.117L104.7 115.443V114.732Z" fill="black"/>
<path opacity="0.2" d="M104.7 117.162L81.9771 117.618L104.7 118.075V117.162Z" fill="black"/>
<path opacity="0.2" d="M80.7061 112.177L102.683 112.841L80.7061 113.292V112.177Z" fill="black"/>
<path d="M138.923 114.08C138.922 115.43 138.381 116.724 137.42 117.679C136.459 118.633 135.156 119.17 133.797 119.172H79.4946C79.3949 119.172 79.2993 119.211 79.2288 119.281C79.1583 119.351 79.1187 119.446 79.1187 119.545V119.948C79.1187 120.047 79.1583 120.142 79.2288 120.212C79.2993 120.282 79.3949 120.321 79.4946 120.321H134.072C134.902 120.321 135.723 120.157 136.489 119.84C137.255 119.523 137.95 119.058 138.534 118.473C139.119 117.888 139.581 117.194 139.895 116.431C140.208 115.668 140.367 114.851 140.361 114.027C140.325 112.359 139.631 110.772 138.427 109.609C137.224 108.446 135.608 107.799 133.929 107.809H79.5006C79.4009 107.809 79.3052 107.849 79.2347 107.919C79.1642 107.989 79.1246 108.084 79.1246 108.183V108.586C79.1246 108.685 79.164 108.781 79.2344 108.852C79.3047 108.923 79.4003 108.963 79.5006 108.965H133.642C135.021 108.962 136.347 109.495 137.334 110.452C138.321 111.408 138.892 112.711 138.923 114.08Z" fill="#171F71"/>
<path opacity="0.4" d="M138.923 114.08C138.922 115.43 138.381 116.724 137.42 117.679C136.459 118.633 135.156 119.17 133.797 119.172H79.4946C79.3949 119.172 79.2993 119.211 79.2288 119.281C79.1583 119.351 79.1187 119.446 79.1187 119.545V119.948C79.1187 120.047 79.1583 120.142 79.2288 120.212C79.2993 120.282 79.3949 120.321 79.4946 120.321H134.072C134.902 120.321 135.723 120.157 136.489 119.84C137.255 119.523 137.95 119.058 138.534 118.473C139.119 117.888 139.581 117.194 139.895 116.431C140.208 115.668 140.367 114.851 140.361 114.027C140.325 112.359 139.631 110.772 138.427 109.609C137.224 108.446 135.608 107.799 133.929 107.809H79.5006C79.4009 107.809 79.3052 107.849 79.2347 107.919C79.1642 107.989 79.1246 108.084 79.1246 108.183V108.586C79.1246 108.685 79.164 108.781 79.2344 108.852C79.3047 108.923 79.4003 108.963 79.5006 108.965H133.642C135.021 108.962 136.347 109.495 137.334 110.452C138.321 111.408 138.892 112.711 138.923 114.08Z" fill="white"/>
<path d="M158.723 114.145C158.724 114.884 158.578 115.617 158.294 116.3C158.01 116.983 157.593 117.604 157.067 118.126C156.541 118.649 155.916 119.064 155.229 119.347C154.541 119.63 153.804 119.776 153.06 119.776H104.689V108.515H153.024C153.772 108.51 154.512 108.652 155.204 108.933C155.895 109.214 156.524 109.628 157.054 110.151C157.584 110.675 158.004 111.297 158.29 111.983C158.577 112.668 158.724 113.403 158.723 114.145Z" fill="#407BFF"/>
<path opacity="0.7" d="M104.689 108.521V119.782H153.054C154.558 119.782 156 119.189 157.063 118.133C158.126 117.077 158.723 115.645 158.723 114.151C158.723 112.658 158.126 111.226 157.063 110.17C156 109.114 154.558 108.521 153.054 108.521H104.689Z" fill="white"/>
<path opacity="0.2" d="M104.701 111.496V110.577L152.905 110.962L104.701 111.496Z" fill="black"/>
<path opacity="0.2" d="M104.701 115.443V114.732L126.338 115.503L104.701 115.443Z" fill="black"/>
<path opacity="0.2" d="M104.701 118.075V117.162L139.591 117.696L104.701 118.075Z" fill="black"/>
<path opacity="0.2" d="M153.138 109.617C154.068 109.62 154.965 109.964 155.656 110.583C155.355 111.165 155.117 111.777 154.946 112.409L106.61 112.782L154.856 112.901C154.782 113.292 154.744 113.688 154.743 114.086C154.745 114.553 154.799 115.018 154.904 115.473L122.334 116.184L155.208 116.558C155.491 117.339 155.857 118.089 156.3 118.792C157.293 118.11 158.04 117.13 158.433 115.996C158.826 114.863 158.844 113.634 158.486 112.489C158.127 111.344 157.409 110.343 156.438 109.632C155.466 108.92 154.291 108.535 153.084 108.532H104.689V109.629L153.138 109.617Z" fill="black"/>
<path d="M158.275 114.08C158.274 115.43 157.733 116.724 156.772 117.679C155.811 118.633 154.509 119.17 153.15 119.172H103.883C103.784 119.172 103.688 119.211 103.617 119.281C103.547 119.351 103.507 119.446 103.507 119.545V119.948C103.507 120.047 103.547 120.142 103.617 120.212C103.688 120.282 103.784 120.321 103.883 120.321H153.412C154.242 120.321 155.063 120.157 155.829 119.84C156.595 119.523 157.29 119.058 157.875 118.473C158.459 117.888 158.922 117.194 159.235 116.431C159.549 115.668 159.707 114.851 159.702 114.027C159.666 112.359 158.971 110.772 157.767 109.609C156.564 108.446 154.948 107.799 153.269 107.809H103.883C103.784 107.809 103.688 107.849 103.617 107.919C103.547 107.989 103.507 108.084 103.507 108.183V108.586C103.507 108.685 103.547 108.781 103.617 108.852C103.687 108.923 103.783 108.963 103.883 108.965H153.024C154.398 108.969 155.716 109.506 156.697 110.462C157.678 111.417 158.244 112.716 158.275 114.08Z" fill="#171F71"/>
<path d="M152.905 112.652V117.162L151.258 115.532L149.665 117.115V112.652H152.905Z" fill="#407BFF"/>
<path d="M87.8132 144.569H158.216V133.314H87.8132V144.569Z" fill="#407BFF"/>
<path opacity="0.7" d="M87.8132 144.569H158.216V133.314H87.8132V144.569Z" fill="white"/>
<path opacity="0.2" d="M87.813 136.295V135.376L136.017 135.762L87.813 136.295Z" fill="black"/>
<path opacity="0.2" d="M87.813 140.237V139.531L109.456 140.302L87.813 140.237Z" fill="black"/>
<path opacity="0.2" d="M87.813 142.874V141.961L122.703 142.489L87.813 142.874Z" fill="black"/>
<path opacity="0.2" d="M142.48 133.296L143.476 141.706L142.283 140.408C141.877 141.943 141.119 143.363 140.069 144.557C139.312 143.576 138.709 142.487 138.279 141.327L105.399 140.954L137.968 140.242C137.867 139.787 137.813 139.322 137.807 138.856C137.81 138.458 137.85 138.061 137.927 137.67L89.6808 137.552L138.016 137.172C138.185 136.542 138.423 135.931 138.726 135.353C138.034 134.731 137.135 134.387 136.202 134.386H87.813V133.296H142.48Z" fill="black"/>
<path d="M141.394 138.879C141.393 139.548 141.26 140.21 141.001 140.827C140.743 141.445 140.365 142.006 139.888 142.478C139.412 142.95 138.846 143.324 138.224 143.58C137.602 143.835 136.935 143.966 136.262 143.965H87.0015C86.9002 143.965 86.8031 144.005 86.7315 144.076C86.6599 144.147 86.6196 144.244 86.6196 144.344V144.747C86.6212 144.847 86.6621 144.942 86.7336 145.012C86.805 145.082 86.9013 145.121 87.0015 145.121H163.64C164.47 145.12 165.291 144.956 166.057 144.639C166.823 144.322 167.518 143.857 168.103 143.272C168.687 142.687 169.149 141.993 169.463 141.23C169.776 140.467 169.935 139.65 169.93 138.826C169.89 137.158 169.192 135.572 167.984 134.412C166.777 133.252 165.159 132.61 163.479 132.626H87.0015C86.9013 132.626 86.805 132.665 86.7336 132.735C86.6621 132.805 86.6212 132.9 86.6196 133V133.403C86.6212 133.502 86.6621 133.597 86.7336 133.667C86.805 133.737 86.9013 133.776 87.0015 133.776H136.113C137.489 133.774 138.812 134.307 139.799 135.26C140.786 136.214 141.358 137.513 141.394 138.879Z" fill="#407BFF"/>
<path opacity="0.2" d="M141.394 138.879C141.393 139.548 141.26 140.21 141.001 140.827C140.743 141.445 140.365 142.006 139.888 142.478C139.412 142.95 138.846 143.324 138.224 143.58C137.602 143.835 136.935 143.966 136.262 143.965H87.0015C86.9002 143.965 86.8031 144.005 86.7315 144.076C86.6599 144.147 86.6196 144.244 86.6196 144.344V144.747C86.6212 144.847 86.6621 144.942 86.7336 145.012C86.805 145.082 86.9013 145.121 87.0015 145.121H163.64C164.47 145.12 165.291 144.956 166.057 144.639C166.823 144.322 167.518 143.857 168.103 143.272C168.687 142.687 169.149 141.993 169.463 141.23C169.776 140.467 169.935 139.65 169.93 138.826C169.89 137.158 169.192 135.572 167.984 134.412C166.777 133.252 165.159 132.61 163.479 132.626H87.0015C86.9013 132.626 86.805 132.665 86.7336 132.735C86.6621 132.805 86.6212 132.9 86.6196 133V133.403C86.6212 133.502 86.6621 133.597 86.7336 133.667C86.805 133.737 86.9013 133.776 87.0015 133.776H136.113C137.489 133.774 138.812 134.307 139.799 135.26C140.786 136.214 141.358 137.513 141.394 138.879Z" fill="black"/>
<path d="M141.394 138.879C141.393 139.548 141.26 140.21 141.001 140.827C140.743 141.445 140.365 142.006 139.888 142.478C139.412 142.95 138.846 143.324 138.224 143.58C137.602 143.835 136.935 143.966 136.262 143.965H87.0015C86.9002 143.965 86.8031 144.005 86.7315 144.076C86.6599 144.147 86.6196 144.244 86.6196 144.344V144.747C86.6212 144.847 86.6621 144.942 86.7336 145.012C86.805 145.082 86.9013 145.121 87.0015 145.121H136.53C137.36 145.121 138.182 144.958 138.947 144.641C139.713 144.324 140.408 143.859 140.993 143.274C141.577 142.689 142.039 141.994 142.351 141.231C142.664 140.467 142.821 139.65 142.814 138.826C142.775 137.158 142.076 135.572 140.869 134.412C139.662 133.252 138.043 132.61 136.363 132.626H87.0015C86.9013 132.626 86.805 132.665 86.7336 132.735C86.6621 132.805 86.6212 132.9 86.6196 133V133.403C86.6212 133.502 86.6621 133.597 86.7336 133.667C86.805 133.737 86.9013 133.776 87.0015 133.776H136.113C137.489 133.774 138.812 134.307 139.799 135.26C140.786 136.214 141.358 137.513 141.394 138.879Z" fill="#407BFF"/>
<path d="M136.017 137.451V141.961L134.376 140.331L132.783 141.914V137.451H136.017Z" fill="#407BFF"/>
<path opacity="0.2" d="M141.394 138.879C141.393 139.548 141.26 140.21 141.001 140.827C140.743 141.445 140.365 142.006 139.888 142.478C139.412 142.95 138.846 143.324 138.224 143.58C137.602 143.835 136.935 143.966 136.262 143.965H87.0015C86.9002 143.965 86.8031 144.005 86.7315 144.076C86.6599 144.147 86.6196 144.244 86.6196 144.344V144.747C86.6212 144.847 86.6621 144.942 86.7336 145.012C86.805 145.082 86.9013 145.121 87.0015 145.121H136.53C137.36 145.121 138.182 144.958 138.947 144.641C139.713 144.324 140.408 143.859 140.993 143.274C141.577 142.689 142.039 141.994 142.351 141.231C142.664 140.467 142.821 139.65 142.814 138.826C142.775 137.158 142.076 135.572 140.869 134.412C139.662 133.252 138.043 132.61 136.363 132.626H87.0015C86.9013 132.626 86.805 132.665 86.7336 132.735C86.6621 132.805 86.6212 132.9 86.6196 133V133.403C86.6212 133.502 86.6621 133.597 86.7336 133.667C86.805 133.737 86.9013 133.776 87.0015 133.776H136.113C137.489 133.774 138.812 134.307 139.799 135.26C140.786 136.214 141.358 137.513 141.394 138.879Z" fill="white"/>
<path d="M85.7424 132.176H156.145V120.92L85.7424 120.92V132.176Z" fill="#407BFF"/>
<path opacity="0.8" d="M85.7424 132.176H156.145V120.92L85.7424 120.92V132.176Z" fill="white"/>
<path opacity="0.2" d="M85.7363 123.896V122.977L133.94 123.362L85.7363 123.896Z" fill="black"/>
<path opacity="0.2" d="M85.7363 127.837V127.132L107.379 127.902L85.7363 127.837Z" fill="black"/>
<path opacity="0.2" d="M85.7363 130.475V129.562L120.627 130.09L85.7363 130.475Z" fill="black"/>
<path opacity="0.2" d="M140.403 120.92L141.423 129.307L140.23 128.033C139.824 129.567 139.066 130.987 138.016 132.182C137.258 131.201 136.654 130.112 136.226 128.952L103.346 128.578L135.916 127.873C135.816 127.415 135.764 126.948 135.76 126.48C135.761 126.082 135.799 125.685 135.874 125.294L87.628 125.176L135.963 124.803C136.132 124.17 136.37 123.558 136.673 122.977C135.983 122.358 135.086 122.015 134.155 122.017H85.7363V120.914L140.403 120.92Z" fill="black"/>
<path d="M139.299 126.48C139.298 127.148 139.165 127.81 138.907 128.428C138.648 129.045 138.27 129.606 137.794 130.078C137.317 130.55 136.751 130.925 136.129 131.18C135.507 131.435 134.84 131.566 134.167 131.565H84.9248C84.8245 131.567 84.7289 131.607 84.6586 131.678C84.5882 131.749 84.5488 131.845 84.5488 131.944V132.348C84.5488 132.447 84.5884 132.542 84.6589 132.612C84.7294 132.682 84.8251 132.721 84.9248 132.721H157.726C158.556 132.72 159.377 132.557 160.143 132.239C160.909 131.922 161.604 131.458 162.189 130.873C162.773 130.288 163.236 129.594 163.549 128.831C163.863 128.068 164.021 127.25 164.016 126.426C163.966 124.758 163.258 123.176 162.044 122.022C160.831 120.868 159.209 120.234 157.529 120.256H84.9248C84.8251 120.256 84.7294 120.296 84.6589 120.366C84.5884 120.436 84.5488 120.531 84.5488 120.63V121.033C84.5488 121.132 84.5882 121.228 84.6586 121.299C84.7289 121.37 84.8245 121.41 84.9248 121.412H134.036C135.403 121.414 136.717 121.944 137.698 122.889C138.68 123.835 139.254 125.122 139.299 126.48Z" fill="#407BFF"/>
<path opacity="0.4" d="M139.299 126.48C139.298 127.148 139.165 127.81 138.907 128.428C138.648 129.045 138.27 129.606 137.794 130.078C137.317 130.55 136.751 130.925 136.129 131.18C135.507 131.435 134.84 131.566 134.167 131.565H84.9248C84.8245 131.567 84.7289 131.607 84.6586 131.678C84.5882 131.749 84.5488 131.845 84.5488 131.944V132.348C84.5488 132.447 84.5884 132.542 84.6589 132.612C84.7294 132.682 84.8251 132.721 84.9248 132.721H157.726C158.556 132.72 159.377 132.557 160.143 132.239C160.909 131.922 161.604 131.458 162.189 130.873C162.773 130.288 163.236 129.594 163.549 128.831C163.863 128.068 164.021 127.25 164.016 126.426C163.966 124.758 163.258 123.176 162.044 122.022C160.831 120.868 159.209 120.234 157.529 120.256H84.9248C84.8251 120.256 84.7294 120.296 84.6589 120.366C84.5884 120.436 84.5488 120.531 84.5488 120.63V121.033C84.5488 121.132 84.5882 121.228 84.6586 121.299C84.7289 121.37 84.8245 121.41 84.9248 121.412H134.036C135.403 121.414 136.717 121.944 137.698 122.889C138.68 123.835 139.254 125.122 139.299 126.48Z" fill="white"/>
<path d="M139.299 126.48C139.298 127.149 139.165 127.81 138.907 128.428C138.648 129.045 138.27 129.606 137.794 130.078C137.317 130.551 136.751 130.925 136.129 131.18C135.507 131.435 134.84 131.566 134.167 131.565H84.9248C84.8245 131.567 84.7289 131.608 84.6586 131.679C84.5882 131.75 84.5488 131.845 84.5488 131.945V132.348C84.5488 132.447 84.5884 132.542 84.6589 132.612C84.7294 132.682 84.8251 132.721 84.9248 132.721H134.454C135.283 132.72 136.105 132.557 136.871 132.24C137.637 131.922 138.332 131.458 138.916 130.873C139.501 130.288 139.963 129.594 140.277 128.831C140.59 128.068 140.749 127.251 140.743 126.427C140.693 124.768 139.993 123.194 138.791 122.041C137.589 120.888 135.981 120.248 134.31 120.256H84.9248C84.8251 120.256 84.7294 120.296 84.6589 120.366C84.5884 120.436 84.5488 120.531 84.5488 120.63V121.033C84.5488 121.132 84.5882 121.228 84.6586 121.299C84.7289 121.37 84.8245 121.411 84.9248 121.412H134.036C135.403 121.415 136.717 121.944 137.698 122.89C138.68 123.835 139.254 125.122 139.299 126.48Z" fill="#407BFF"/>
<path d="M130.038 123.451V127.961L128.391 126.326L126.804 127.908V123.451H130.038Z" fill="#171F71"/>
<path opacity="0.6" d="M139.299 126.48C139.298 127.149 139.165 127.81 138.907 128.428C138.648 129.045 138.27 129.606 137.794 130.078C137.317 130.551 136.751 130.925 136.129 131.18C135.507 131.435 134.84 131.566 134.167 131.565H84.9248C84.8245 131.567 84.7289 131.608 84.6586 131.679C84.5882 131.75 84.5488 131.845 84.5488 131.945V132.348C84.5488 132.447 84.5884 132.542 84.6589 132.612C84.7294 132.682 84.8251 132.721 84.9248 132.721H134.454C135.283 132.72 136.105 132.557 136.871 132.24C137.637 131.922 138.332 131.458 138.916 130.873C139.501 130.288 139.963 129.594 140.277 128.831C140.59 128.068 140.749 127.251 140.743 126.427C140.693 124.768 139.993 123.194 138.791 122.041C137.589 120.888 135.981 120.248 134.31 120.256H84.9248C84.8251 120.256 84.7294 120.296 84.6589 120.366C84.5884 120.436 84.5488 120.531 84.5488 120.63V121.033C84.5488 121.132 84.5882 121.228 84.6586 121.299C84.7289 121.37 84.8245 121.411 84.9248 121.412H134.036C135.403 121.415 136.717 121.944 137.698 122.89C138.68 123.835 139.254 125.122 139.299 126.48Z" fill="white"/>
<path d="M85.719 94.9651H111.808V83.7272H85.719V94.9651Z" fill="#407BFF"/>
<path opacity="0.7" d="M85.719 94.9651H111.808V83.7272H85.719V94.9651Z" fill="white"/>
<path opacity="0.2" d="M109.712 84.8241H85.7241V83.7217H109.688L109.712 84.8241Z" fill="black"/>
<path opacity="0.2" d="M109.718 85.7783L88.0693 86.2406L109.718 86.697V85.7783Z" fill="black"/>
<path opacity="0.2" d="M109.718 89.939L86.7925 90.3183L109.718 90.6443V89.939Z" fill="black"/>
<path opacity="0.2" d="M109.718 92.3691L86.9951 92.8255L109.718 93.2819V92.3691Z" fill="black"/>
<path opacity="0.2" d="M85.7241 87.3843L107.695 88.0422L85.7241 88.4986V87.3843Z" fill="black"/>
<path d="M143.942 89.2871C143.939 90.637 143.397 91.9305 142.435 92.8838C141.473 93.8372 140.169 94.3726 138.81 94.3726H84.5073C84.4076 94.3726 84.312 94.4119 84.2415 94.482C84.171 94.552 84.1313 94.647 84.1313 94.746V95.1491C84.1313 95.2481 84.171 95.3431 84.2415 95.4131C84.312 95.4831 84.4076 95.5225 84.5073 95.5225H139.085C139.914 95.5233 140.736 95.3608 141.502 95.0446C142.268 94.7283 142.964 94.2645 143.549 93.6798C144.133 93.0951 144.596 92.4012 144.909 91.6381C145.222 90.8751 145.38 90.0579 145.374 89.2338C145.335 87.5652 144.636 85.9788 143.429 84.8176C142.222 83.6564 140.604 83.0136 138.923 83.0281H84.5192C84.419 83.0296 84.3234 83.0703 84.253 83.1412C84.1827 83.2122 84.1433 83.3078 84.1433 83.4074V83.8105C84.1433 83.9095 84.1829 84.0045 84.2534 84.0745C84.3239 84.1445 84.4195 84.1839 84.5192 84.1839H138.661C140.037 84.1819 141.36 84.7144 142.347 85.6679C143.334 86.6214 143.906 87.9202 143.942 89.2871Z" fill="#407BFF"/>
<path opacity="0.4" d="M143.942 89.2871C143.939 90.637 143.397 91.9305 142.435 92.8838C141.473 93.8372 140.169 94.3726 138.81 94.3726H84.5073C84.4076 94.3726 84.312 94.4119 84.2415 94.482C84.171 94.552 84.1313 94.647 84.1313 94.746V95.1491C84.1313 95.2481 84.171 95.3431 84.2415 95.4131C84.312 95.4831 84.4076 95.5225 84.5073 95.5225H139.085C139.914 95.5233 140.736 95.3608 141.502 95.0446C142.268 94.7283 142.964 94.2645 143.549 93.6798C144.133 93.0951 144.596 92.4012 144.909 91.6381C145.222 90.8751 145.38 90.0579 145.374 89.2338C145.335 87.5652 144.636 85.9788 143.429 84.8176C142.222 83.6564 140.604 83.0136 138.923 83.0281H84.5192C84.419 83.0296 84.3234 83.0703 84.253 83.1412C84.1827 83.2122 84.1433 83.3078 84.1433 83.4074V83.8105C84.1433 83.9095 84.1829 84.0045 84.2534 84.0745C84.3239 84.1445 84.4195 84.1839 84.5192 84.1839H138.661C140.037 84.1819 141.36 84.7144 142.347 85.6679C143.334 86.6214 143.906 87.9202 143.942 89.2871Z" fill="white"/>
<path d="M163.765 89.3523C163.765 90.8441 163.169 92.2748 162.107 93.3296C161.045 94.3845 159.604 94.9771 158.102 94.9771H109.767V83.7156H158.102C158.847 83.7156 159.585 83.8614 160.272 84.1449C160.96 84.4283 161.585 84.8437 162.111 85.3672C162.637 85.8908 163.054 86.5123 163.338 87.1961C163.622 87.8799 163.767 88.6126 163.765 89.3523Z" fill="#407BFF"/>
<path opacity="0.5" d="M109.713 83.7217V94.9832H158.078C159.582 94.9832 161.024 94.39 162.087 93.334C163.15 92.278 163.747 90.8458 163.747 89.3525C163.747 87.8591 163.15 86.4269 162.087 85.3709C161.024 84.3149 159.582 83.7217 158.078 83.7217H109.713Z" fill="white"/>
<path opacity="0.2" d="M109.719 86.697V85.7783L157.923 86.1636L109.719 86.697Z" fill="black"/>
<path opacity="0.2" d="M109.719 90.6443V89.939L131.356 90.7036L109.719 90.6443Z" fill="black"/>
<path opacity="0.2" d="M109.719 93.2819V92.3691L144.609 92.8966L109.719 93.2819Z" fill="black"/>
<path opacity="0.2" d="M158.156 84.8241C159.086 84.8249 159.982 85.1668 160.674 85.7843C160.374 86.3668 160.136 86.9786 159.964 87.6099L111.628 87.9892L159.874 88.1078C159.708 88.9551 159.725 89.8276 159.922 90.6683L127.352 91.3736L160.226 91.753C160.51 92.5322 160.876 93.2793 161.318 93.9816C162.311 93.2989 163.058 92.3194 163.451 91.1857C163.844 90.052 163.862 88.8232 163.503 87.6784C163.145 86.5336 162.427 85.5324 161.456 84.8208C160.484 84.1091 159.309 83.724 158.102 83.7217H109.713V84.8241H158.156Z" fill="black"/>
<path d="M163.294 89.2871C163.291 90.6359 162.75 91.9285 161.789 92.8817C160.828 93.8349 159.526 94.371 158.168 94.3726H108.902C108.802 94.3726 108.706 94.4119 108.636 94.482C108.565 94.552 108.526 94.647 108.526 94.746V95.1491C108.526 95.2481 108.565 95.3431 108.636 95.4131C108.706 95.4831 108.802 95.5225 108.902 95.5225H158.431C159.26 95.5233 160.082 95.3608 160.848 95.0446C161.614 94.7283 162.31 94.2645 162.895 93.6798C163.479 93.0951 163.942 92.4012 164.255 91.6381C164.568 90.8751 164.727 90.0579 164.72 89.2338C164.681 87.5652 163.983 85.9788 162.776 84.8176C161.568 83.6564 159.95 83.0136 158.27 83.0281H108.902C108.802 83.0296 108.706 83.0703 108.636 83.1412C108.565 83.2122 108.526 83.3078 108.526 83.4074V83.8105C108.526 83.9095 108.565 84.0045 108.636 84.0745C108.706 84.1445 108.802 84.1839 108.902 84.1839H158.013C159.39 84.1803 160.714 84.7124 161.701 85.6662C162.688 86.62 163.26 87.9197 163.294 89.2871Z" fill="#407BFF"/>
<path d="M157.923 87.8525V92.369L156.276 90.7331L154.683 92.3157V87.8525H157.923Z" fill="#407BFF"/>
<path d="M87.6819 107.377L158.084 107.377V96.1211L87.6819 96.1211V107.377Z" fill="#407BFF"/>
<path opacity="0.7" d="M87.6819 107.377L158.084 107.377V96.1211L87.6819 96.1211V107.377Z" fill="white"/>
<path opacity="0.2" d="M87.6758 99.0964V98.1777L135.88 98.563L87.6758 99.0964Z" fill="black"/>
<path opacity="0.2" d="M87.6758 103.044V102.333L109.319 103.103L87.6758 103.044Z" fill="black"/>
<path opacity="0.2" d="M87.6758 105.676V104.769L122.566 105.296L87.6758 105.676Z" fill="black"/>
<path opacity="0.2" d="M142.343 96.1211L143.363 104.514L142.169 103.234C141.764 104.768 141.006 106.188 139.956 107.383C139.197 106.402 138.594 105.313 138.165 104.152L105.285 103.779L137.855 103.068C137.755 102.61 137.703 102.143 137.7 101.675C137.7 101.277 137.738 100.88 137.813 100.489L89.5674 100.365L137.903 99.9915C138.073 99.3593 138.311 98.7472 138.613 98.1659C137.921 97.5484 137.025 97.2065 136.095 97.2057H87.6758V96.1033L142.343 96.1211Z" fill="black"/>
<path d="M141.256 101.681C141.255 103.032 140.713 104.327 139.751 105.281C138.789 106.236 137.485 106.772 136.125 106.772H86.8642C86.7645 106.772 86.6689 106.811 86.5984 106.881C86.5279 106.951 86.4883 107.046 86.4883 107.145V107.549C86.4883 107.648 86.5279 107.743 86.5984 107.813C86.6689 107.883 86.7645 107.922 86.8642 107.922H163.503C164.333 107.923 165.155 107.76 165.922 107.444C166.688 107.127 167.384 106.663 167.969 106.077C168.554 105.492 169.016 104.797 169.329 104.034C169.642 103.27 169.799 102.452 169.792 101.627C169.753 99.9593 169.054 98.3735 167.847 97.2133C166.64 96.053 165.021 95.4115 163.342 95.4275H86.8642C86.764 95.4291 86.6684 95.4698 86.598 95.5407C86.5277 95.6117 86.4883 95.7073 86.4883 95.8069V96.2099C86.4883 96.309 86.5279 96.4039 86.5984 96.474C86.6689 96.544 86.7645 96.5833 86.8642 96.5833H135.975C137.351 96.5813 138.673 97.1131 139.66 98.0653C140.646 99.0175 141.219 100.315 141.256 101.681Z" fill="#171F71"/>
<path opacity="0.2" d="M141.256 101.681C141.255 103.032 140.713 104.327 139.751 105.281C138.789 106.236 137.485 106.772 136.125 106.772H86.8642C86.7645 106.772 86.6689 106.811 86.5984 106.881C86.5279 106.951 86.4883 107.046 86.4883 107.145V107.549C86.4883 107.648 86.5279 107.743 86.5984 107.813C86.6689 107.883 86.7645 107.922 86.8642 107.922H163.503C164.333 107.923 165.155 107.76 165.922 107.444C166.688 107.127 167.384 106.663 167.969 106.077C168.554 105.492 169.016 104.797 169.329 104.034C169.642 103.27 169.799 102.452 169.792 101.627C169.753 99.9593 169.054 98.3735 167.847 97.2133C166.64 96.053 165.021 95.4115 163.342 95.4275H86.8642C86.764 95.4291 86.6684 95.4698 86.598 95.5407C86.5277 95.6117 86.4883 95.7073 86.4883 95.8069V96.2099C86.4883 96.309 86.5279 96.4039 86.5984 96.474C86.6689 96.544 86.7645 96.5833 86.8642 96.5833H135.975C137.351 96.5813 138.673 97.1131 139.66 98.0653C140.646 99.0175 141.219 100.315 141.256 101.681Z" fill="white"/>
<path d="M141.256 101.681C141.255 103.031 140.713 104.326 139.751 105.281C138.789 106.236 137.485 106.772 136.125 106.772H86.8642C86.7645 106.772 86.6689 106.811 86.5984 106.881C86.5279 106.951 86.4883 107.046 86.4883 107.145V107.548C86.4883 107.647 86.5279 107.742 86.5984 107.812C86.6689 107.882 86.7645 107.922 86.8642 107.922H136.393C137.223 107.923 138.045 107.76 138.812 107.443C139.579 107.127 140.274 106.662 140.859 106.077C141.444 105.492 141.906 104.797 142.219 104.033C142.532 103.27 142.69 102.452 142.683 101.627C142.64 99.9602 141.941 98.3762 140.734 97.2166C139.528 96.057 137.911 95.4145 136.232 95.4274H86.8642C86.764 95.429 86.6684 95.4697 86.598 95.5406C86.5277 95.6116 86.4883 95.7072 86.4883 95.8068V96.2098C86.4883 96.3089 86.5279 96.4038 86.5984 96.4739C86.6689 96.5439 86.7645 96.5832 86.8642 96.5832H135.975C137.351 96.5812 138.673 97.113 139.66 98.0652C140.646 99.0174 141.219 100.315 141.256 101.681Z" fill="#171F71"/>
<path d="M135.88 100.252V104.769L134.239 103.133L132.646 104.715V100.252H135.88Z" fill="#171F71"/>
<path opacity="0.4" d="M141.256 101.681C141.255 103.031 140.713 104.326 139.751 105.281C138.789 106.236 137.485 106.772 136.125 106.772H86.8642C86.7645 106.772 86.6689 106.811 86.5984 106.881C86.5279 106.951 86.4883 107.046 86.4883 107.145V107.548C86.4883 107.647 86.5279 107.742 86.5984 107.812C86.6689 107.882 86.7645 107.922 86.8642 107.922H136.393C137.223 107.923 138.045 107.76 138.812 107.443C139.579 107.127 140.274 106.662 140.859 106.077C141.444 105.492 141.906 104.797 142.219 104.033C142.532 103.27 142.69 102.452 142.683 101.627C142.64 99.9602 141.941 98.3762 140.734 97.2166C139.528 96.057 137.911 95.4145 136.232 95.4274H86.8642C86.764 95.429 86.6684 95.4697 86.598 95.5406C86.5277 95.6116 86.4883 95.7072 86.4883 95.8068V96.2098C86.4883 96.3089 86.5279 96.4038 86.5984 96.4739C86.6689 96.5439 86.7645 96.5832 86.8642 96.5832H135.975C137.351 96.5812 138.673 97.113 139.66 98.0652C140.646 99.0174 141.219 100.315 141.256 101.681Z" fill="white"/>
<path d="M225.819 136.675L229.626 136.793L233.141 136.9L233.774 141.861L229.316 141.991L225.038 142.116L225.819 136.675Z" fill="#E4897B"/>
<path opacity="0.2" d="M225.819 136.675L229.626 136.793L229.316 141.991L225.038 142.116L225.819 136.675Z" fill="black"/>
<path d="M233.857 136.117C233.698 136.495 233.498 136.855 233.26 137.19C233.251 137.208 233.237 137.223 233.218 137.231C233.2 137.24 233.179 137.242 233.159 137.237C233.138 137.235 233.119 137.226 233.103 137.212C233.087 137.199 233.075 137.18 233.07 137.16C233.022 136.994 232.652 135.483 233.07 135.038C233.116 134.989 233.174 134.952 233.239 134.93C233.303 134.908 233.372 134.903 233.439 134.914C233.546 134.917 233.651 134.95 233.741 135.007C233.831 135.064 233.904 135.145 233.952 135.24C234.029 135.534 233.995 135.846 233.857 136.117ZM233.26 135.187C233.046 135.424 233.141 136.259 233.26 136.87C233.696 136.165 233.857 135.601 233.755 135.329C233.725 135.268 233.678 135.217 233.62 135.181C233.562 135.146 233.496 135.127 233.427 135.127C233.395 135.119 233.361 135.12 233.329 135.131C233.297 135.141 233.269 135.161 233.249 135.187H233.26Z" fill="#407BFF"/>
<path d="M233.291 137.172C233.296 137.186 233.296 137.2 233.291 137.214C233.276 137.222 233.26 137.227 233.243 137.227C233.226 137.227 233.21 137.222 233.195 137.214C233.153 137.214 231.876 136.84 231.614 136.26C231.581 136.185 231.564 136.104 231.564 136.022C231.564 135.941 231.581 135.86 231.614 135.785C231.648 135.702 231.709 135.632 231.789 135.588C231.868 135.544 231.96 135.528 232.049 135.542C232.551 135.614 233.207 136.58 233.302 137.095C233.307 137.108 233.308 137.122 233.305 137.135C233.303 137.149 233.298 137.161 233.291 137.172ZM231.793 135.957C231.76 136.037 231.76 136.127 231.793 136.206C231.948 136.55 232.64 136.84 233.046 136.983C232.867 136.503 232.348 135.851 232.02 135.797C231.96 135.797 231.876 135.797 231.805 135.928L231.793 135.957Z" fill="#407BFF"/>
<path opacity="0.6" d="M233.857 136.117C233.698 136.495 233.498 136.855 233.26 137.19C233.251 137.208 233.237 137.223 233.218 137.231C233.2 137.24 233.179 137.242 233.159 137.237C233.138 137.235 233.119 137.226 233.103 137.212C233.087 137.199 233.075 137.18 233.07 137.16C233.022 136.994 232.652 135.483 233.07 135.038C233.116 134.989 233.174 134.952 233.239 134.93C233.303 134.908 233.372 134.903 233.439 134.914C233.546 134.917 233.651 134.95 233.741 135.007C233.831 135.064 233.904 135.145 233.952 135.24C234.029 135.534 233.995 135.846 233.857 136.117ZM233.26 135.187C233.046 135.424 233.141 136.259 233.26 136.87C233.696 136.165 233.857 135.601 233.755 135.329C233.725 135.268 233.678 135.217 233.62 135.181C233.562 135.146 233.496 135.127 233.427 135.127C233.395 135.119 233.361 135.12 233.329 135.131C233.297 135.141 233.269 135.161 233.249 135.187H233.26Z" fill="white"/>
<path opacity="0.6" d="M233.291 137.172C233.296 137.186 233.296 137.2 233.291 137.214C233.276 137.222 233.26 137.227 233.243 137.227C233.226 137.227 233.21 137.222 233.195 137.214C233.153 137.214 231.876 136.84 231.614 136.26C231.581 136.185 231.564 136.104 231.564 136.022C231.564 135.941 231.581 135.86 231.614 135.785C231.648 135.702 231.709 135.632 231.789 135.588C231.868 135.544 231.96 135.528 232.049 135.542C232.551 135.614 233.207 136.58 233.302 137.095C233.307 137.108 233.308 137.122 233.305 137.135C233.303 137.149 233.298 137.161 233.291 137.172ZM231.793 135.957C231.76 136.037 231.76 136.127 231.793 136.206C231.948 136.55 232.64 136.84 233.046 136.983C232.867 136.503 232.348 135.851 232.02 135.797C231.96 135.797 231.876 135.797 231.805 135.928L231.793 135.957Z" fill="white"/>
<path d="M232.563 137.35L230.772 142.092C230.74 142.171 230.741 142.259 230.773 142.337C230.805 142.416 230.867 142.479 230.945 142.513L234.657 144.149C234.856 144.22 235.075 144.212 235.268 144.126C235.461 144.04 235.612 143.882 235.689 143.686C236.286 142.009 236.483 141.185 237.253 139.081C238.026 137.245 238.668 135.358 239.174 133.432C239.55 131.565 237.688 131.251 237.384 132.004C236.608 133.782 234.49 135.839 233.1 136.686C232.849 136.84 232.66 137.074 232.563 137.35Z" fill="#171F71"/>
<path d="M187.891 129.011L190.105 131.281C190.105 131.281 215.299 133.693 228.97 136.141L227.234 144.664H180.784L187.891 129.011Z" fill="#171F71"/>
<path opacity="0.2" d="M187.891 129.011L190.105 131.281C190.105 131.281 215.299 133.693 228.97 136.141L227.234 144.664H180.784L187.891 129.011Z" fill="white"/>
<path d="M214.899 133.604L216.075 137.208L217.161 140.527L212.679 142.803L211.05 138.672L209.481 134.719L214.899 133.604Z" fill="#E4897B"/>
<path d="M217.973 140.764C217.567 140.728 217.167 140.646 216.779 140.521C216.759 140.518 216.741 140.508 216.727 140.493C216.713 140.478 216.704 140.459 216.702 140.438C216.699 140.418 216.702 140.397 216.71 140.378C216.719 140.36 216.732 140.343 216.749 140.332C216.899 140.243 218.247 139.449 218.79 139.698C218.851 139.727 218.904 139.771 218.944 139.826C218.983 139.881 219.009 139.945 219.017 140.012C219.046 140.116 219.046 140.227 219.017 140.331C218.987 140.436 218.93 140.53 218.85 140.604C218.588 140.764 218.275 140.821 217.973 140.764ZM218.695 139.911C218.402 139.775 217.621 140.106 217.072 140.409C217.877 140.616 218.474 140.628 218.707 140.409C218.754 140.361 218.787 140.302 218.804 140.238C218.821 140.173 218.82 140.105 218.802 140.041C218.8 140.008 218.789 139.977 218.77 139.95C218.751 139.922 218.725 139.901 218.695 139.887V139.911Z" fill="#407BFF"/>
<path d="M216.791 140.527H216.749C216.72 140.505 216.701 140.473 216.695 140.438C216.695 140.397 216.695 139.075 217.16 138.66C217.223 138.608 217.297 138.57 217.377 138.549C217.456 138.529 217.539 138.526 217.62 138.541C217.71 138.549 217.795 138.586 217.861 138.647C217.927 138.709 217.97 138.79 217.983 138.879C218.055 139.377 217.321 140.284 216.85 140.521C216.841 140.526 216.831 140.53 216.821 140.531C216.811 140.532 216.8 140.53 216.791 140.527ZM217.53 138.749C217.488 138.746 217.445 138.752 217.405 138.766C217.365 138.781 217.329 138.803 217.298 138.832C217.005 139.075 216.928 139.822 216.91 140.243C217.352 139.923 217.66 139.452 217.775 138.921C217.775 138.861 217.733 138.784 217.584 138.755L217.53 138.749Z" fill="#407BFF"/>
<path opacity="0.6" d="M217.973 140.764C217.567 140.728 217.167 140.646 216.779 140.521C216.759 140.518 216.741 140.508 216.727 140.493C216.713 140.478 216.704 140.459 216.702 140.438C216.699 140.418 216.702 140.397 216.71 140.378C216.719 140.36 216.732 140.343 216.749 140.332C216.899 140.243 218.247 139.449 218.79 139.698C218.851 139.727 218.904 139.771 218.944 139.826C218.983 139.881 219.009 139.945 219.017 140.012C219.046 140.116 219.046 140.227 219.017 140.331C218.987 140.436 218.93 140.53 218.85 140.604C218.588 140.764 218.275 140.821 217.973 140.764ZM218.695 139.911C218.402 139.775 217.621 140.106 217.072 140.409C217.877 140.616 218.474 140.628 218.707 140.409C218.754 140.361 218.787 140.302 218.804 140.238C218.821 140.173 218.82 140.105 218.802 140.041C218.8 140.008 218.789 139.977 218.77 139.95C218.751 139.922 218.725 139.901 218.695 139.887V139.911Z" fill="white"/>
<path opacity="0.6" d="M216.791 140.527H216.749C216.72 140.505 216.701 140.473 216.695 140.438C216.695 140.397 216.695 139.075 217.16 138.66C217.223 138.608 217.297 138.57 217.377 138.549C217.456 138.529 217.539 138.526 217.62 138.541C217.71 138.549 217.795 138.586 217.861 138.647C217.927 138.709 217.97 138.79 217.983 138.879C218.055 139.377 217.321 140.284 216.85 140.521C216.841 140.526 216.831 140.53 216.821 140.531C216.811 140.532 216.8 140.53 216.791 140.527ZM217.53 138.749C217.488 138.746 217.445 138.752 217.405 138.766C217.365 138.781 217.329 138.803 217.298 138.832C217.005 139.075 216.928 139.822 216.91 140.243C217.352 139.923 217.66 139.452 217.775 138.921C217.775 138.861 217.733 138.784 217.584 138.755L217.53 138.749Z" fill="white"/>
<path d="M216.409 139.893L211.301 139.579C211.259 139.574 211.216 139.577 211.175 139.589C211.134 139.601 211.095 139.62 211.062 139.647C211.029 139.673 211.001 139.706 210.981 139.743C210.96 139.78 210.947 139.821 210.943 139.863L210.442 143.87C210.43 144.08 210.502 144.286 210.641 144.445C210.78 144.603 210.976 144.701 211.188 144.718C212.978 144.801 213.825 144.747 216.075 144.872C218.069 145.077 220.075 145.14 222.078 145.061C223.981 144.878 223.748 143.011 222.925 142.922C220.98 142.702 218.396 141.28 217.173 140.201C216.959 140.018 216.691 139.909 216.409 139.893Z" fill="#171F71"/>
<path opacity="0.2" d="M214.899 133.604L216.075 137.208L211.05 138.672L209.481 134.719L214.899 133.604Z" fill="black"/>
<path d="M201.115 108.55L199.879 108.207C199.65 108.142 199.408 108.133 199.175 108.181C198.941 108.228 198.722 108.33 198.537 108.479L196.782 109.884C196.438 110.161 196.164 110.516 195.985 110.919C195.805 111.322 195.725 111.762 195.75 112.201L195.786 112.759C197.797 113.464 200.494 112.759 200.494 112.759L201.282 112.646C201.446 112.628 201.604 112.577 201.748 112.497C201.892 112.417 202.018 112.309 202.119 112.18C202.22 112.051 202.294 111.903 202.337 111.744C202.38 111.586 202.39 111.421 202.368 111.259L202.159 109.7C202.116 109.429 201.994 109.175 201.809 108.971C201.623 108.767 201.382 108.621 201.115 108.55Z" fill="#E4897B"/>
<path opacity="0.1" d="M201.115 108.55L199.879 108.207C199.65 108.142 199.408 108.133 199.175 108.181C198.941 108.228 198.722 108.33 198.537 108.479L196.782 109.884C196.438 110.161 196.164 110.516 195.985 110.919C195.805 111.322 195.725 111.762 195.75 112.201L195.786 112.759C197.797 113.464 200.494 112.759 200.494 112.759L201.282 112.646C201.446 112.628 201.604 112.577 201.748 112.497C201.892 112.417 202.018 112.309 202.119 112.18C202.22 112.051 202.294 111.903 202.337 111.744C202.38 111.586 202.39 111.421 202.368 111.259L202.159 109.7C202.116 109.429 201.994 109.175 201.809 108.971C201.623 108.767 201.382 108.621 201.115 108.55Z" fill="black"/>
<path d="M163.019 132.371C163.019 132.371 161.378 144.664 176.356 144.664C191.763 144.664 190.361 134.173 187.294 127.938L163.019 132.371Z" fill="#171F71"/>
<path opacity="0.4" d="M163.019 132.371C163.019 132.371 161.378 144.664 176.356 144.664C191.763 144.664 190.361 134.173 187.294 127.938L163.019 132.371Z" fill="white"/>
<path d="M180.187 102.422L184.871 105.148C186.423 106.049 187.998 106.956 189.502 107.679C189.693 107.78 189.866 107.851 190.039 107.928L190.308 108.052L190.528 108.135C190.69 108.2 190.821 108.242 190.952 108.283C191.083 108.325 191.292 108.355 191.459 108.402C192.235 108.562 193.124 108.669 194.007 108.781C195.797 108.995 197.629 109.196 199.455 109.457C199.759 109.499 200.039 109.646 200.245 109.872C200.451 110.099 200.57 110.39 200.581 110.695C200.593 110.999 200.496 111.298 200.307 111.539C200.119 111.78 199.851 111.947 199.551 112.012C197.691 112.42 195.805 112.696 193.906 112.836C192.914 112.918 191.917 112.939 190.922 112.901C190.63 112.901 190.385 112.865 190.063 112.818L189.58 112.741L189.138 112.628L188.702 112.504L188.321 112.379C188.064 112.29 187.807 112.207 187.575 112.112C185.776 111.394 184.021 110.573 182.318 109.653C180.647 108.758 179.042 107.833 177.43 106.814C176.877 106.44 176.489 105.868 176.348 105.218C176.207 104.568 176.322 103.889 176.671 103.322C177.02 102.754 177.576 102.342 178.222 102.17C178.869 101.998 179.558 102.079 180.145 102.398L180.187 102.422Z" fill="#E4897B"/>
<path opacity="0.1" d="M180.187 101.995L184.871 104.727C186.423 105.628 187.998 106.535 189.502 107.258C189.693 107.359 189.866 107.43 190.039 107.507L190.308 107.631L190.528 107.714C190.689 107.78 190.821 107.821 190.952 107.863C191.083 107.904 191.292 107.934 191.459 107.981C192.235 108.141 193.124 108.248 194.007 108.36C195.797 108.574 197.629 108.775 199.455 109.036C199.758 109.082 200.034 109.23 200.238 109.457C200.442 109.684 200.559 109.974 200.571 110.277C200.582 110.581 200.486 110.878 200.3 111.119C200.114 111.36 199.849 111.529 199.551 111.597C197.691 112.005 195.805 112.281 193.906 112.42C192.914 112.503 191.917 112.524 190.922 112.486C190.63 112.486 190.385 112.45 190.063 112.403L189.58 112.326L189.138 112.213L188.702 112.089L188.321 111.964C188.064 111.875 187.807 111.792 187.575 111.697C185.776 110.979 184.021 110.157 182.318 109.238C180.647 108.343 179.042 107.418 177.43 106.399C176.877 106.025 176.489 105.453 176.348 104.803C176.207 104.153 176.322 103.474 176.671 102.907C177.02 102.339 177.576 101.927 178.222 101.755C178.869 101.583 179.558 101.664 180.145 101.983L180.187 101.995Z" fill="black"/>
<path d="M188.153 106.357L185.122 112.45H185.003H184.853H184.818C184.621 112.415 184.334 112.356 183.982 112.267C183.875 112.267 183.755 112.219 183.636 112.19H183.553L183.183 112.095L182.693 111.959C181.725 111.698 180.781 111.357 179.871 110.939C179.722 110.856 179.566 110.779 179.429 110.696C179.141 110.544 178.869 110.364 178.618 110.157C178.58 110.128 178.545 110.094 178.516 110.056L178.445 109.991C178.398 109.943 178.356 109.892 178.319 109.837L178.23 109.718C178.205 109.686 178.183 109.653 178.164 109.617C178.122 109.552 178.075 109.487 178.033 109.41L177.902 109.167L177.776 108.906C177.776 108.906 177.776 108.859 177.746 108.835C177.711 108.77 177.687 108.705 177.657 108.639C177.627 108.574 177.579 108.45 177.544 108.343C177.508 108.236 177.466 108.147 177.436 108.047C177.406 107.946 177.359 107.827 177.329 107.721C176.41 104.757 175.067 100.81 176.66 100.81C182.031 100.81 186.077 104.656 187.664 106.014C187.98 106.197 188.153 106.357 188.153 106.357Z" fill="#407BFF"/>
<path opacity="0.2" d="M184.854 112.397H184.818C184.621 112.361 184.334 112.302 183.982 112.213C183.875 112.213 183.756 112.166 183.636 112.136H183.553L183.183 112.041L182.693 111.905C181.725 111.645 180.781 111.304 179.871 110.885C179.722 110.802 179.567 110.725 179.429 110.642C179.141 110.491 178.869 110.31 178.618 110.103C178.58 110.074 178.546 110.04 178.516 110.002L178.445 109.937C178.398 109.89 178.356 109.838 178.319 109.783L178.23 109.664C178.205 109.633 178.183 109.599 178.164 109.564C178.123 109.498 178.075 109.433 178.033 109.356L177.902 109.113L177.776 108.852C177.776 108.852 177.776 108.805 177.747 108.781L178.976 103.168C178.976 103.168 183.666 106.772 184.842 112.379C184.846 112.385 184.85 112.391 184.854 112.397Z" fill="black"/>
<path d="M161.217 133.776C161.217 133.776 158.639 114.104 159.499 109.854C160.358 105.604 162.023 99.7188 176.66 100.715C178.327 100.947 179.865 101.732 181.025 102.943C182.185 104.153 182.899 105.718 183.051 107.383C183.833 113.488 187.89 129.011 187.89 129.011L161.217 133.776Z" fill="#407BFF"/>
<path opacity="0.6" d="M187.89 129.011L161.223 133.782C161.223 133.782 158.639 114.098 159.504 109.86C160.238 106.233 161.551 101.408 171.033 100.703C172.908 100.567 174.791 100.567 176.666 100.703C178.188 100.913 179.607 101.589 180.725 102.636C181.844 103.683 182.607 105.05 182.908 106.547C182.967 106.808 183.015 107.074 183.051 107.359C183.284 109.137 183.797 111.763 184.405 114.554C184.447 114.75 184.495 114.952 184.543 115.147C184.638 115.598 184.74 116.054 184.841 116.516C185.104 117.654 185.366 118.798 185.635 119.907C185.724 120.286 185.814 120.665 185.903 121.033C185.957 121.288 186.023 121.537 186.082 121.786C187.067 125.857 187.89 129.011 187.89 129.011Z" fill="white"/>
<path opacity="0.2" d="M185.635 119.936C169.404 123.439 163.556 112.35 163.556 112.35C164.014 111.532 164.518 110.74 165.066 109.979C165.458 110.444 165.895 110.869 166.373 111.247C168.384 112.824 170.95 113.618 173.354 114.389C176.96 115.525 180.785 115.804 184.519 115.201C184.614 115.651 184.716 116.107 184.817 116.57C185.104 117.684 185.366 118.828 185.635 119.936Z" fill="black"/>
<path d="M168.312 109.653C171.893 111.769 175.873 113.802 179.978 114.738L179.477 114.709C180.418 114.638 181.35 114.473 182.258 114.217C184.382 113.654 186.536 112.948 188.648 112.261L191.889 111.2C192.188 111.103 192.512 111.117 192.802 111.239C193.091 111.362 193.326 111.584 193.463 111.866C193.6 112.147 193.63 112.469 193.547 112.77C193.463 113.072 193.273 113.333 193.01 113.505C192.02 114.146 191.017 114.691 190.027 115.284C187.431 116.767 184.692 117.99 181.852 118.935C181.01 119.224 180.122 119.358 179.232 119.332C174.279 118.632 169.685 116.617 165.508 113.997C165.221 113.812 164.974 113.573 164.781 113.293C164.588 113.013 164.452 112.698 164.381 112.365C164.311 112.033 164.307 111.69 164.369 111.357C164.432 111.023 164.56 110.705 164.747 110.42C164.933 110.136 165.174 109.891 165.456 109.699C165.738 109.507 166.055 109.372 166.39 109.302C166.724 109.232 167.069 109.227 167.405 109.29C167.741 109.352 168.062 109.479 168.348 109.665L168.312 109.653Z" fill="#DC897C"/>
<path d="M160.602 107.632C160.752 105.954 162.392 102.659 167.274 101.787L168.933 103.767C168.933 103.767 168.527 106.482 169.667 107.211C171.92 108.712 174.044 110.397 176.016 112.249L173.068 118.994C173.068 118.994 159.88 116.066 160.602 107.632Z" fill="#407BFF"/>
<path d="M168.539 100.999C166.677 101.319 166.486 102.025 167.155 102.884C167.823 103.744 171.29 105.67 174.476 104.004C177.663 102.339 176.111 99.7072 168.539 100.999Z" fill="#407BFF"/>
<path d="M182.908 106.571C179.841 103.346 175.27 102.321 175.27 102.321C175.27 102.321 167.614 102.428 171.034 100.703C172.909 100.567 174.791 100.567 176.667 100.703C178.192 100.915 179.613 101.594 180.732 102.645C181.851 103.697 182.612 105.069 182.908 106.571Z" fill="#407BFF"/>
<path d="M166.217 93.8569C166.826 95.2441 167.296 96.6874 167.62 98.166C167.86 99.1534 167.909 100.177 167.763 101.183C167.763 101.183 167.035 103.097 170.341 103.666C172.31 104.004 175.27 103.542 175.27 101.616L173.909 101.408C173.909 101.408 173.867 101.313 173.808 101.135C173.545 100.377 172.93 97.9348 174.876 96.3937C177.537 94.3192 166.217 93.8569 166.217 93.8569Z" fill="#E4897B"/>
<path opacity="0.2" d="M166.217 93.8569C166.826 95.2441 167.296 96.6874 167.62 98.166C169.41 99.6833 171.516 101.017 173.79 101.13C173.527 100.371 172.912 97.9289 174.858 96.3878C177.537 94.3193 166.217 93.8569 166.217 93.8569Z" fill="black"/>
<path d="M179.208 83.2117C179.208 83.2117 181.834 85.8374 180.306 89.2336C178.779 92.6299 174.644 84.9839 174.644 84.9839L179.208 83.2117Z" fill="#171F71"/>
<path d="M164.63 89.204C165.633 94.0464 165.937 96.9092 169.064 99.0549C173.778 102.267 180.306 99.1201 180.969 94.0642C181.565 89.5122 179.835 82.37 174.154 81.1431C168.473 79.9162 163.634 84.3674 164.63 89.204Z" fill="#E4897B"/>
<path d="M173.313 91.0119C173.343 91.5039 173.629 91.895 173.957 91.8713C174.285 91.8476 174.518 91.4387 174.488 90.9408C174.458 90.4429 174.172 90.0695 173.85 90.0873C173.528 90.1051 173.313 90.52 173.313 91.0119Z" fill="#171F71"/>
<path d="M178.332 89.8918C178.332 90.3838 178.648 90.7691 178.976 90.7513C179.304 90.7335 179.536 90.3127 179.506 89.8207C179.476 89.3288 179.19 88.9435 178.868 88.9613C178.546 88.9791 178.302 89.3999 178.332 89.8918Z" fill="#171F71"/>
<path d="M174.196 87.4021C174.233 87.3536 174.255 87.2963 174.262 87.2362C174.256 87.1591 174.22 87.0873 174.163 87.0355C174.105 86.9837 174.029 86.9558 173.952 86.9576C173.487 86.967 173.032 87.0879 172.625 87.3097C172.217 87.5316 171.87 87.848 171.613 88.2319C171.573 88.298 171.562 88.3769 171.581 88.4513C171.6 88.5257 171.648 88.5896 171.714 88.6291C171.781 88.6652 171.86 88.6749 171.934 88.6562C172.008 88.6375 172.072 88.5919 172.114 88.5283C172.325 88.2256 172.607 87.9785 172.935 87.8081C173.264 87.6377 173.629 87.5493 173.999 87.5503C174.082 87.5277 174.152 87.4747 174.196 87.4021Z" fill="#171F71"/>
<path d="M180.324 86.7978C180.382 86.7777 180.434 86.743 180.474 86.6971C180.515 86.6322 180.529 86.554 180.514 86.4788C180.498 86.4036 180.454 86.3374 180.39 86.294C180.01 86.0291 179.571 85.8599 179.11 85.8011C178.65 85.7422 178.182 85.7955 177.747 85.9562C177.676 85.9862 177.619 86.043 177.59 86.1141C177.561 86.1851 177.562 86.2647 177.592 86.3355C177.626 86.4036 177.685 86.4569 177.756 86.4852C177.828 86.5136 177.907 86.5152 177.979 86.4896C178.329 86.3671 178.703 86.3317 179.069 86.3865C179.435 86.4413 179.782 86.5846 180.08 86.8038C180.159 86.8314 180.246 86.8293 180.324 86.7978Z" fill="#171F71"/>
<path d="M177.228 91.3083L178.743 92.3337C178.743 92.3337 178.403 92.9265 177.031 93.1754L177.228 91.3083Z" fill="#DE5753"/>
<path d="M163.121 86.9577C162.763 87.7816 162.524 89.133 162.823 91.2786C162.971 92.5087 163.432 93.681 164.163 94.6848C164.894 95.6887 165.87 96.491 167 97.0161L168.247 93.1753C168.247 93.1753 170.795 92.3988 170.795 88.2321C170.795 86.8214 170.162 86.2998 170.162 86.2998L163.121 86.9577Z" fill="#171F71"/>
<path d="M169.136 92.0253C169.136 92.0253 167.847 89.3225 166.451 90.2472C165.054 91.1718 165.508 95.7298 167.644 95.6527C169.78 95.5757 170.144 93.4656 169.136 92.0253Z" fill="#E4897B"/>
<path d="M177.036 95.0305C176.159 95.0305 173.611 94.8882 172.191 93.3057C172.167 93.2737 172.155 93.2338 172.159 93.1938C172.163 93.1539 172.181 93.1168 172.212 93.0899C172.242 93.063 172.281 93.0484 172.321 93.0488C172.362 93.0493 172.4 93.0648 172.43 93.0923C174.023 94.8705 177.287 94.7104 177.323 94.7104C177.36 94.7175 177.393 94.7371 177.416 94.7657C177.44 94.7944 177.453 94.8304 177.453 94.8675C177.453 94.9046 177.44 94.9406 177.416 94.9692C177.393 94.9979 177.36 95.0174 177.323 95.0246L177.036 95.0305Z" fill="#171F71"/>
<path d="M170.156 86.2998C170.156 86.2998 171.541 86.9695 172.489 86.525C173.438 86.0805 172.31 84.9839 172.31 84.9839C172.31 84.9839 174.178 85.8078 175.515 85.4166C176.851 85.0254 175.921 83.3836 175.921 83.3836C175.921 83.3836 177.209 84.569 178.307 84.7113C179.405 84.8536 179.185 83.2117 179.185 83.2117C179.185 83.2117 180.533 84.1008 181.058 83.2117C181.583 82.3227 179.023 81.2321 179.023 81.2321C179.023 81.2321 180.133 81.4988 180.294 80.6394C180.456 79.7799 178.015 78.7486 175.634 79.1813C175.692 79.0015 175.703 78.8097 175.664 78.6248C175.625 78.4399 175.539 78.2681 175.413 78.1263C174.984 77.6165 171.362 77.6165 169.906 78.719C169.906 78.719 169.947 78.0611 168.647 77.8003C167.346 77.5395 165.812 80.3549 165.812 80.3549C165.812 80.3549 163.855 80.3134 163.031 81.1728C162.208 82.0322 163.765 82.2456 163.765 82.2456C163.765 82.2456 161.51 83.1228 161.134 85.2803C160.758 87.4378 162.375 86.5487 162.375 86.5487C162.375 86.5487 161.486 88.1905 162.112 89.5419C162.739 90.8933 167.268 87.5919 167.268 87.5919C167.268 87.5919 167.268 89.1448 168.271 88.9848C170.156 88.6647 170.156 86.2998 170.156 86.2998Z" fill="#171F71"/>
<path d="M190.608 103.643L189.584 104.401L195.818 112.708L196.842 111.95L190.608 103.643Z" fill="#171F71"/>
<path d="M195.786 109.048L194.515 108.888C194.279 108.856 194.04 108.882 193.816 108.962C193.593 109.043 193.392 109.176 193.232 109.35L191.698 110.992C191.396 111.315 191.177 111.706 191.058 112.131C190.94 112.556 190.926 113.003 191.018 113.434L191.131 113.98C193.22 114.388 195.786 113.304 195.786 113.304L196.556 113.079C196.714 113.035 196.863 112.962 196.992 112.861C197.122 112.761 197.231 112.636 197.311 112.494C197.392 112.352 197.444 112.195 197.464 112.033C197.484 111.871 197.471 111.707 197.427 111.549L196.991 110.038C196.908 109.775 196.75 109.542 196.536 109.366C196.322 109.19 196.062 109.08 195.786 109.048Z" fill="#E4897B"/>
<path d="M185.91 120.185C187.53 118.02 189.273 115.948 191.131 113.98C193.656 111.401 197.134 109.902 199.486 111.472C199.486 111.472 201.198 110.145 202.964 110.394C204.731 110.643 207.834 115.046 207.834 115.046L204.85 116.617L194.199 120.488L187.563 124.405L185.91 120.185Z" fill="#171F71"/>
<path opacity="0.9" d="M207.845 115.046L204.862 116.623L194.198 120.493L187.545 124.435L185.892 120.185C187.514 118.021 189.257 115.949 191.113 113.98C192.063 112.996 193.175 112.18 194.401 111.567C196.191 110.702 198.041 110.518 199.479 111.472C199.479 111.472 201.192 110.145 202.958 110.394C203.907 110.524 205.232 111.846 206.258 113.049C207.171 114.092 207.845 115.046 207.845 115.046Z" fill="white"/>
<path opacity="0.1" d="M206.276 113.049L205.536 115.615L199.808 116.445H190.976L190.427 115.515C191.63 114.071 192.973 112.748 194.437 111.567C196.227 110.702 198.077 110.518 199.515 111.472C199.515 111.472 201.228 110.145 202.994 110.394C203.925 110.524 205.25 111.846 206.276 113.049Z" fill="black"/>
<path d="M208.938 115.046L204.456 118.603L187.39 125.235L187.229 125.3L185.558 121.957L190.559 116.107C190.559 116.107 195.064 110.601 199.909 112.296C199.909 112.296 203.102 110.886 205.28 111.461H205.333C207.428 112.101 208.938 115.046 208.938 115.046Z" fill="#407BFF"/>
<path opacity="0.2" d="M208.938 115.046L204.456 118.603L187.39 125.235L200.321 112.741C201.831 111.863 203.56 111.425 205.31 111.478C207.428 112.101 208.938 115.046 208.938 115.046Z" fill="black"/>
<path d="M172.794 131.784C172.794 131.784 192.432 112.693 200.602 113.28C208.771 113.867 216.564 135.803 216.564 135.803L209.469 138.577C209.469 138.577 200.62 127.232 199.569 127.232C198.519 127.232 191.466 138.103 187.903 141.167C184.341 144.231 181.16 144.723 179.68 144.723H176.959L172.794 131.784Z" fill="#171F71"/>
<path opacity="0.4" d="M172.794 131.784C172.794 131.784 192.432 112.693 200.602 113.28C208.771 113.867 216.564 135.803 216.564 135.803L209.469 138.577C209.469 138.577 200.62 127.232 199.569 127.232C198.519 127.232 191.466 138.103 187.903 141.167C184.341 144.231 181.16 144.723 179.68 144.723H176.959L172.794 131.784Z" fill="white"/>
<path d="M106.938 50.15C106.692 53.6937 106.15 57.2108 105.315 60.6648C103.984 64.2744 101.615 66.9772 99.0615 69.7155C98.8739 69.9733 98.591 70.1465 98.2748 70.1971C97.9587 70.2477 97.6353 70.1715 97.3757 69.9852C97.1162 69.7989 96.9418 69.5178 96.8909 69.2038C96.8399 68.8898 96.9167 68.5686 97.1042 68.3108C98.2022 66.0644 99.3837 63.8299 100.356 61.5538C100.814 60.584 101.091 59.5398 101.174 58.4717C101.269 57.6894 101.472 55.5556 101.55 54.7436C101.711 53.0603 101.884 51.3533 102.087 49.6759C102.18 49.0613 102.507 48.5058 103.001 48.1239C103.494 47.7421 104.117 47.5631 104.739 47.624C105.362 47.6848 105.937 47.9809 106.346 48.451C106.756 48.921 106.967 49.5293 106.938 50.15Z" fill="#EBC0BB"/>
<path d="M103.764 46.896C100.601 49.1009 100.184 54.8621 100.184 54.8621L105.948 56.1897L103.764 46.896Z" fill="#171F71"/>
<path d="M127.674 70.1422C127.674 70.1422 125.091 52.3608 122.901 48.9171C120.711 45.4734 117.351 40.8206 105.805 45.2067C105.805 45.2067 101.454 47.0382 102.928 52.4674C104.402 57.8967 106.479 72.2107 106.479 72.2107L127.674 70.1422Z" fill="#171F71"/>
<path opacity="0.6" d="M102.946 52.4674C103.382 54.0677 103.865 56.4326 104.337 58.9872C104.444 59.58 104.552 60.1727 104.659 60.7654C104.91 62.1642 105.148 63.5748 105.363 64.9144C105.405 65.1515 105.441 65.3826 105.482 65.6078C106.079 69.3182 106.503 72.2225 106.503 72.2225L127.674 70.1599C127.674 70.1599 125.091 52.3785 122.901 48.9289C120.711 45.4793 117.345 40.8265 105.811 45.2244C105.834 45.2126 101.478 47.0322 102.946 52.4674Z" fill="white"/>
<path d="M90.582 95.629L94.4547 105.859L97.1698 104.164L95.1052 93.7678L90.582 95.629Z" fill="#EEC1BB"/>
<path d="M126.48 67.9729L105.899 68.2455V70.3912C105.899 70.3912 90.9215 71.2565 86.6729 75.4766C82.4242 79.6968 91.387 100.133 91.387 100.133L96.7574 99.28L95.4745 82.8796C95.4745 82.8796 108.602 84.1717 112.976 84.1717C122.398 84.1717 126.48 67.9729 126.48 67.9729Z" fill="#407BFF"/>
<path d="M92.6884 103.82L97.1936 102.57C97.2301 102.558 97.2685 102.553 97.3068 102.555C97.3452 102.558 97.3826 102.568 97.4169 102.585C97.4513 102.602 97.4819 102.626 97.5071 102.655C97.5322 102.684 97.5514 102.717 97.5636 102.753L98.757 106.239C98.8087 106.423 98.7851 106.621 98.6913 106.788C98.5974 106.956 98.441 107.08 98.2558 107.133C96.6745 107.542 95.9047 107.661 93.9176 108.194C92.1755 108.758 90.3946 109.196 88.5889 109.504C86.8525 109.7 86.7033 107.987 87.3955 107.756C89.2102 106.992 90.7981 105.78 92.0081 104.235C92.1771 104.02 92.4187 103.873 92.6884 103.82Z" fill="#171F71"/>
<path d="M90.648 104.905C90.5633 104.856 90.494 104.784 90.4476 104.699C90.4013 104.613 90.3798 104.516 90.3854 104.419C90.3796 104.357 90.3896 104.294 90.4147 104.237C90.4397 104.18 90.4789 104.131 90.5286 104.093C90.9702 103.767 92.3188 104.223 92.4739 104.277C92.4912 104.283 92.5063 104.295 92.5178 104.309C92.5293 104.324 92.5368 104.341 92.5396 104.359C92.5434 104.378 92.54 104.398 92.53 104.414C92.5201 104.431 92.5043 104.443 92.4859 104.448C92.1607 104.633 91.8166 104.782 91.4595 104.893C91.1994 104.995 90.911 104.999 90.648 104.905ZM90.648 104.265C90.6227 104.282 90.6027 104.307 90.5901 104.335C90.5775 104.363 90.5728 104.394 90.5764 104.425C90.5734 104.486 90.5867 104.548 90.615 104.603C90.6432 104.658 90.6854 104.705 90.7375 104.739C90.9762 104.869 91.5132 104.739 92.1875 104.407C91.6385 104.241 90.8807 104.093 90.648 104.265Z" fill="#407BFF"/>
<path d="M92.4197 104.472C91.9543 104.354 91.1189 103.684 91.089 103.222C91.0841 103.139 91.1074 103.057 91.155 102.99C91.2027 102.922 91.2719 102.872 91.3516 102.848C91.4196 102.816 91.494 102.799 91.5694 102.799C91.6447 102.799 91.7191 102.816 91.7872 102.848C92.2944 103.127 92.5271 104.312 92.539 104.348C92.5459 104.362 92.5494 104.377 92.5494 104.392C92.5494 104.408 92.5459 104.423 92.539 104.437H92.4973C92.497 104.445 92.4943 104.454 92.4894 104.461C92.4845 104.469 92.4776 104.475 92.4696 104.478C92.4615 104.482 92.4526 104.483 92.4438 104.482C92.435 104.481 92.4266 104.478 92.4197 104.472ZM91.4232 103.067C91.2979 103.121 91.28 103.192 91.2859 103.251C91.3277 103.553 91.8826 104.075 92.3123 104.271C92.2168 103.891 92.002 103.245 91.7156 103.085C91.6832 103.065 91.6467 103.051 91.6085 103.046C91.5703 103.041 91.5315 103.044 91.4948 103.056L91.4232 103.067Z" fill="#407BFF"/>
<path opacity="0.2" d="M126.48 67.9729L105.899 68.2455V70.3912C105.899 70.3912 90.9215 71.2565 86.6729 75.4766C82.4242 79.6968 91.387 100.133 91.387 100.133L96.7574 99.28L95.4745 82.8796C95.4745 82.8796 108.602 84.1717 112.976 84.1717C122.398 84.1717 126.48 67.9729 126.48 67.9729Z" fill="black"/>
<path d="M96.1138 95.5696L97.9278 106.351L100.917 105.213V94.6094L96.1138 95.5696Z" fill="#EEC1BB"/>
<path d="M96.9909 105.545L101.168 103.447C101.236 103.408 101.317 103.397 101.393 103.417C101.469 103.437 101.534 103.486 101.574 103.554L103.453 106.73C103.541 106.902 103.557 107.101 103.498 107.284C103.439 107.467 103.309 107.62 103.137 107.708C101.669 108.42 100.935 108.686 99.0914 109.599C97.493 110.486 95.8341 111.26 94.1267 111.917C92.4618 112.444 91.9785 110.797 92.6408 110.429C94.2717 109.326 95.5907 107.826 96.4718 106.073C96.5818 105.845 96.7642 105.659 96.9909 105.545Z" fill="#171F71"/>
<path d="M95.2009 107.009C95.1079 106.978 95.0256 106.921 94.9634 106.846C94.9012 106.77 94.8615 106.679 94.8488 106.582C94.8317 106.523 94.8299 106.461 94.8434 106.401C94.857 106.34 94.8855 106.285 94.9264 106.238C95.2904 105.835 96.7166 106.013 96.8717 106.037C96.8897 106.041 96.9063 106.05 96.9199 106.062C96.9335 106.075 96.9436 106.091 96.9493 106.108C96.9551 106.126 96.9548 106.146 96.9483 106.164C96.9419 106.183 96.9296 106.198 96.9135 106.209C96.6326 106.453 96.3242 106.664 95.9945 106.837C95.7607 106.99 95.4777 107.052 95.2009 107.009ZM95.0756 106.381C95.0556 106.404 95.0419 106.432 95.0357 106.462C95.0294 106.492 95.0308 106.523 95.0398 106.553C95.0498 106.613 95.0754 106.67 95.1141 106.718C95.1528 106.766 95.2032 106.803 95.2606 106.825C95.5231 106.908 96.0184 106.683 96.6211 106.233C96.0244 106.173 95.2725 106.179 95.0756 106.393V106.381Z" fill="#407BFF"/>
<path d="M96.8535 106.244C96.3702 106.215 95.4214 105.717 95.302 105.278C95.2808 105.198 95.2868 105.114 95.3192 105.037C95.3516 104.961 95.4085 104.898 95.4811 104.857C95.5449 104.817 95.6167 104.79 95.6918 104.778C95.7669 104.767 95.8435 104.772 95.9167 104.792C96.4716 104.964 96.9311 106.078 96.949 106.114C96.9563 106.128 96.9601 106.143 96.9601 106.158C96.9601 106.174 96.9563 106.189 96.949 106.203C96.9429 106.207 96.9356 106.21 96.9281 106.21C96.9206 106.21 96.9133 106.207 96.9072 106.203C96.9065 106.209 96.9045 106.215 96.9014 106.221C96.8983 106.226 96.8941 106.231 96.8891 106.235C96.8841 106.239 96.8784 106.241 96.8723 106.243C96.8662 106.245 96.8598 106.245 96.8535 106.244ZM95.5944 105.029C95.481 105.106 95.4751 105.183 95.499 105.237C95.7841 105.64 96.209 105.925 96.6924 106.037C96.5253 105.687 96.1911 105.095 95.857 104.994C95.8214 104.978 95.7827 104.969 95.7436 104.969C95.7045 104.969 95.6659 104.978 95.6302 104.994L95.5944 105.029Z" fill="#407BFF"/>
<path d="M127.364 67.9729C127.364 67.9729 131.236 80.8289 122.59 83.3123C113.944 85.7958 102.302 82.8796 102.302 82.8796L101.609 99.203L96.1374 99.2859C96.1374 99.2859 91.3219 82.2869 92.5571 77.0651C93.7923 71.8433 111.801 70.2726 111.801 70.2726L111.885 67.9729H127.364Z" fill="#407BFF"/>
<path d="M104.021 67.9907L105.131 67.5284C105.335 67.4409 105.558 67.4038 105.781 67.4203C106.003 67.4368 106.218 67.5065 106.408 67.6232L108.198 68.7197C108.551 68.9383 108.848 69.237 109.062 69.5915C109.277 69.9459 109.404 70.346 109.433 70.7587L109.469 71.2743C107.679 72.1693 105.095 71.8315 105.095 71.8315H104.343C104.187 71.8363 104.032 71.8099 103.887 71.7538C103.742 71.6978 103.61 71.6134 103.499 71.5055C103.388 71.3976 103.299 71.2685 103.239 71.1259C103.179 70.9834 103.149 70.8302 103.149 70.6757V69.1998C103.157 68.9351 103.244 68.6788 103.4 68.4635C103.555 68.2481 103.771 68.0836 104.021 67.9907Z" fill="#EEC1BB"/>
<path d="M121.522 50.63C122.829 55.3065 123.061 60.5817 120.573 64.9559C119.768 66.1413 118.497 66.8229 117.59 67.4453C114.981 69.0035 112.215 70.2849 109.337 71.2683C109.05 71.4106 108.719 71.434 108.415 71.3334C108.111 71.2328 107.86 71.0164 107.717 70.7319C107.574 70.4474 107.55 70.118 107.651 69.8162C107.753 69.5144 107.97 69.2649 108.257 69.1227C111.073 67.06 114.666 64.9737 116.987 62.4843L116.724 62.8636C118.216 59.4852 117.685 55.4606 116.856 51.9458C116.719 51.341 116.822 50.7074 117.141 50.1751C117.461 49.6429 117.974 49.2524 118.574 49.0839C119.174 48.9155 119.817 48.9819 120.37 49.2694C120.922 49.557 121.343 50.0438 121.546 50.63H121.522Z" fill="#EBC0BB"/>
<path d="M83.8628 71.9146V73.3133C83.8628 73.6749 84.2865 73.8231 84.6445 73.8231H112.762C113.12 73.8231 113.556 73.6749 113.556 73.3133V71.9146H83.8628Z" fill="#407BFF"/>
<path opacity="0.4" d="M83.8628 71.9146V73.3133C83.8628 73.6749 84.2865 73.8231 84.6445 73.8231H112.762C113.12 73.8231 113.556 73.6749 113.556 73.3133V71.9146H83.8628Z" fill="white"/>
<path opacity="0.2" d="M83.8628 71.9146V73.3133C83.8628 73.6749 84.2865 73.8231 84.6445 73.8231H103.191C103.549 73.8231 103.978 73.6749 103.978 73.3133V71.9146H83.8628Z" fill="black"/>
<path d="M79.1547 57.4287L82.5023 72.5132C82.5651 72.7547 82.7059 72.969 82.9032 73.1232C83.1005 73.2774 83.3433 73.363 83.5943 73.3667H101.878C101.991 73.3634 102.103 73.3341 102.203 73.2811C102.304 73.2281 102.391 73.1528 102.457 73.061C102.523 72.9693 102.567 72.8636 102.586 72.7521C102.605 72.6407 102.597 72.5265 102.564 72.4184L99.2224 57.4287C99.1533 57.2001 99.0069 57.0021 98.808 56.8683C98.6091 56.7344 98.3698 56.6727 98.1304 56.6937H79.8469C79.3576 56.6937 79.0294 56.913 79.1547 57.4287Z" fill="#407BFF"/>
<path opacity="0.4" d="M79.1547 57.4285L82.5023 72.5131C82.5651 72.7545 82.7059 72.9688 82.9032 73.123C83.1005 73.2772 83.3433 73.3628 83.5943 73.3666H101.257C101.371 73.3644 101.483 73.3359 101.584 73.2832C101.686 73.2306 101.773 73.1552 101.839 73.0631C101.906 72.9711 101.95 72.8648 101.968 72.7529C101.986 72.6409 101.978 72.5263 101.943 72.4182L98.5958 57.4285C98.5289 57.1998 98.3839 57.0013 98.1858 56.8672C97.9876 56.7331 97.7486 56.6717 97.5098 56.6935H79.8469C79.3576 56.6935 79.0294 56.9128 79.1547 57.4285Z" fill="white"/>
<path opacity="0.2" d="M88.1709 65.0745C88.2233 65.6909 88.4956 66.2684 88.9386 66.7031C89.3817 67.1378 89.9665 67.401 90.5876 67.4454C91.608 67.4454 92.2167 66.3963 91.9243 65.0745C91.6319 63.7528 90.6175 62.7807 89.615 62.7393C89.9074 64.0314 89.2808 65.0745 88.2664 65.0745H88.1709Z" fill="black"/>
<path d="M108.096 48.9231C108.096 48.9231 104.366 46.1077 106.604 42.5751C107.875 40.5599 117.757 38.8351 119.326 40.9392C119.78 41.5418 120.06 42.2556 120.137 43.0041C120.214 43.7527 120.084 44.508 119.762 45.189C119.762 45.189 117.793 45.1475 116.396 45.189C115 45.2305 112.273 49.4447 108.096 48.9231Z" fill="#171F71"/>
<path d="M112.023 36.6064C112.005 37.968 112.123 39.328 112.375 40.6665C112.56 41.6208 113.097 43.4227 114.409 44.1517C114.409 44.1517 114.123 45.6809 111.933 47.0501C110.25 48.0992 108.77 48.4844 108.156 48.0992C107.541 47.7139 108.305 45.5268 108.305 45.5268C108.312 45.44 108.312 45.3528 108.305 45.266C108.263 44.5488 107.917 42.3024 105.769 41.7097C102.797 40.9095 112.023 36.6064 112.023 36.6064Z" fill="#EEC1BB"/>
<path opacity="0.2" d="M112.022 36.6064C112.005 37.968 112.123 39.328 112.374 40.6665C111.426 42.5395 110.137 44.3828 108.293 45.266C108.251 44.5488 107.905 42.3024 105.757 41.7097C102.797 40.9095 112.022 36.6064 112.022 36.6064Z" fill="black"/>
<path d="M98.1606 30.5193C98.1606 30.5193 96.6211 33.5599 98.9423 36.0908C101.264 38.6217 102.654 30.7564 102.654 30.7564L98.1606 30.5193Z" fill="#171F71"/>
<path d="M112.607 31.5921C113.138 36.1027 113.705 38.7047 111.587 41.4549C108.406 45.6039 101.801 44.7207 99.7598 40.4947C97.904 36.7013 97.3729 29.9622 101.974 27.2772C106.574 24.5922 112.082 27.0875 112.607 31.5921Z" fill="#EEC1BB"/>
<path d="M103.43 32.8962C103.39 32.8659 103.357 32.8275 103.334 32.7836C103.319 32.7231 103.328 32.6593 103.359 32.6053C103.39 32.5512 103.441 32.5111 103.501 32.4931C103.861 32.3824 104.242 32.3601 104.612 32.4283C104.982 32.4964 105.33 32.6529 105.626 32.8843C105.669 32.9286 105.694 32.9882 105.694 33.0503C105.694 33.1123 105.669 33.1719 105.626 33.2162C105.58 33.2571 105.52 33.2796 105.458 33.2796C105.397 33.2796 105.337 33.2571 105.291 33.2162C105.051 33.0376 104.771 32.9189 104.475 32.8705C104.179 32.822 103.876 32.845 103.591 32.9377C103.534 32.942 103.477 32.9274 103.43 32.8962Z" fill="#171F71"/>
<path d="M98.3156 34.5974C98.2651 34.6038 98.214 34.5911 98.1724 34.5618C98.124 34.5223 98.0927 34.4659 98.0849 34.4041C98.0771 34.3424 98.0935 34.28 98.1307 34.2299C98.3567 33.9308 98.6522 33.6905 98.992 33.5295C99.3318 33.3685 99.7057 33.2916 100.082 33.3053C100.113 33.3075 100.143 33.3159 100.171 33.33C100.199 33.3441 100.224 33.3637 100.244 33.3874C100.264 33.4112 100.279 33.4388 100.288 33.4684C100.297 33.4981 100.3 33.5293 100.297 33.5601C100.289 33.6214 100.259 33.6776 100.211 33.7172C100.163 33.7568 100.102 33.777 100.04 33.7735C99.7398 33.7681 99.4427 33.8355 99.1745 33.9697C98.9063 34.104 98.675 34.3011 98.5006 34.544C98.4754 34.5655 98.4458 34.5814 98.4139 34.5906C98.382 34.5998 98.3485 34.6021 98.3156 34.5974Z" fill="#171F71"/>
<path d="M101.842 37.2764L100.941 38.4618C100.941 38.4618 101.359 38.8471 102.469 38.6811L101.842 37.2764Z" fill="#D4827D"/>
<path d="M102.397 40.2397C102.852 40.7329 103.271 41.2578 103.651 41.8104L103.967 41.6622C105.423 40.9747 105.864 40.1745 105.918 39.5047C105.933 39.1753 105.872 38.8468 105.739 38.5445C105.667 38.3716 105.571 38.2099 105.453 38.0645C104.747 38.8842 103.872 39.5433 102.887 39.9967C102.594 40.1508 102.397 40.2397 102.397 40.2397Z" fill="#171F71"/>
<path d="M102.898 39.9908L103.28 40.4472C104.647 39.7952 105.518 39.1551 105.751 38.5387C105.679 38.3658 105.583 38.2041 105.464 38.0586C104.759 38.8783 103.884 39.5374 102.898 39.9908Z" fill="white"/>
<path d="M103.967 41.6565C105.423 40.969 105.864 40.1688 105.918 39.499C105.37 39.7699 104.875 40.1351 104.456 40.5778C104.185 40.879 104.015 41.2556 103.967 41.6565Z" fill="#DE5753"/>
<path d="M106.264 25.0189C106.161 25.0279 106.057 25.0279 105.954 25.0189L106.324 30.4956C106.36 31.0763 106.515 31.6435 106.779 32.1631C107.042 32.6827 107.409 33.1437 107.857 33.5184C108.31 34.7362 109.147 35.7758 110.244 36.482C112.386 36.4346 112.631 39.6293 112.631 39.6293C116.456 37.5608 115.943 22.6837 106.264 25.0189Z" fill="#171F71"/>
<path d="M109.493 35.3382C109.493 35.3382 109.839 32.6117 111.319 33.0148C112.798 33.4178 113.705 37.5312 111.862 38.0706C110.018 38.61 109.027 36.8852 109.493 35.3382Z" fill="#EEC1BB"/>
<path d="M103.836 35.8776C103.985 36.3103 104.348 36.583 104.641 36.4703C104.933 36.3577 105.046 35.931 104.897 35.4983C104.748 35.0656 104.378 34.787 104.086 34.9056C103.794 35.0241 103.681 35.439 103.836 35.8776Z" fill="#171F71"/>
<path d="M104.217 34.9054L103.131 34.8579C103.131 34.8579 103.883 35.4985 104.217 34.9054Z" fill="#171F71"/>
<path d="M99.5627 36.8497C99.7118 37.2883 100.075 37.561 100.368 37.4424C100.66 37.3239 100.773 36.9031 100.624 36.4645C100.475 36.0259 100.105 35.7591 99.8131 35.8717C99.5209 35.9844 99.4076 36.4111 99.5627 36.8497Z" fill="#171F71"/>
<path d="M99.9449 35.8538L98.8589 35.8123C98.8589 35.8123 99.6108 36.4469 99.9449 35.8538Z" fill="#171F71"/>
<path d="M100.446 31.2069C100.034 31.8293 99.9509 33.1214 99.9509 34.0935C100.715 33.9868 101.58 33.8504 102.469 33.7023C102.141 31.5981 102.523 30.8098 102.523 30.8098C102.559 31.7666 102.785 32.7069 103.185 33.5778C103.871 33.4533 104.558 33.317 105.22 33.1748C105.019 32.3325 104.933 31.4674 104.963 30.6024C105.227 31.4744 105.7 32.2697 106.342 32.9199L106.658 32.8369C106.658 32.8369 105.638 30.9284 106.658 29.3636C107.678 27.7988 105.954 25.0427 105.954 25.0427C105.954 25.0427 95.8097 25.2087 97.0628 34.4787C97.0628 34.4787 97.9459 34.378 99.2408 34.1942C99.303 33.0943 99.7264 32.045 100.446 31.2069Z" fill="#171F71"/>
<path d="M116.498 32.8369C116.692 33.6563 116.83 34.4881 116.91 35.3263C117.908 35.1989 118.877 34.9022 119.774 34.4491C119.804 32.6709 119.607 30.6024 119.607 30.6024C119.932 31.7674 120.162 32.9567 120.293 34.1586C120.408 34.0933 120.52 34.0221 120.627 33.9453C120.627 33.9453 119.643 23.1045 115.657 23.2764C111.67 23.4483 110.883 26.6371 110.883 26.6371L112.023 28.3204C112.023 28.3204 113.52 26.8327 114.409 28.0715C115.299 29.3103 116.14 35.35 116.14 35.35H116.486C116.528 34.212 116.498 32.8369 116.498 32.8369Z" fill="#171F71"/>
<path d="M119.38 46.896C121.928 46.896 123.718 50.0433 124.053 54.3227L116.295 56.0356C116.295 56.0356 113.556 46.9375 119.38 46.896Z" fill="#171F71"/>
<path d="M71.3906 129.905C71.3906 129.905 71.1161 114.619 78.3603 107.75C85.6045 100.88 73.2285 106.671 70.5313 113.884C70.5313 113.884 71.2474 100.204 78.593 91.8946C85.9386 83.5848 74.1057 89.2926 71.3548 98.7819C71.3548 98.7819 71.9515 86.5721 75.8004 80.4078C79.6492 74.2436 74.3861 77.6636 71.874 81.5221C69.3618 85.3807 69.5766 96.174 69.5766 96.174C69.5766 96.174 68.8844 76.1344 64.3732 76.8575C59.862 77.5806 67.9117 92.1436 68.0967 98.9538C68.0967 98.9538 64.8565 89.2156 60.7451 90.3239C56.6337 91.4323 66.0321 94.1766 67.864 108.105L68.2101 114.542C68.2101 114.542 65.3399 105.017 61.8312 107.216C58.3225 109.415 69.2126 116.368 69.4035 130.042L71.3906 129.905Z" fill="#407BFF"/>
<path opacity="0.2" d="M71.3906 129.905C71.3906 129.905 71.1161 114.619 78.3603 107.75C85.6045 100.88 73.2285 106.671 70.5313 113.884C70.5313 113.884 71.2474 100.204 78.593 91.8946C85.9386 83.5848 74.1057 89.2926 71.3548 98.7819C71.3548 98.7819 71.9515 86.5721 75.8004 80.4078C79.6492 74.2436 74.3861 77.6636 71.874 81.5221C69.3618 85.3807 69.5766 96.174 69.5766 96.174C69.5766 96.174 68.8844 76.1344 64.3732 76.8575C59.862 77.5806 67.9117 92.1436 68.0967 98.9538C68.0967 98.9538 64.8565 89.2156 60.7451 90.3239C56.6337 91.4323 66.0321 94.1766 67.864 108.105L68.2101 114.542C68.2101 114.542 65.3399 105.017 61.8312 107.216C58.3225 109.415 69.2126 116.368 69.4035 130.042L71.3906 129.905Z" fill="black"/>
<path d="M62.3803 145.12H80.8308L83.2833 127.303H59.9277L62.3803 145.12Z" fill="#171F71"/>
<path opacity="0.2" d="M62.3803 145.12H80.8308L83.2833 127.303H59.9277L62.3803 145.12Z" fill="white"/>
<path d="M70.8477 129.236C70.8477 129.236 72.7751 116.996 67.7269 110.69C62.6786 104.383 71.9695 110.387 73.3301 116.469C73.3301 116.469 74.2788 105.415 69.3082 97.9345C64.3375 90.4545 73.2048 96.3401 74.3564 104.259C74.3564 104.259 75.2276 94.396 72.8348 89.0023C70.4419 83.6086 74.2788 86.9575 75.8661 90.33C77.4534 93.7026 76.069 102.344 76.069 102.344C76.069 102.344 78.8736 86.341 82.4002 87.4316C85.9268 88.5222 77.8532 99.2859 76.9462 104.757C76.9462 104.757 80.6339 97.2944 83.8085 98.6398C86.983 99.9853 79.1421 101.153 76.1108 112.142L75.1143 117.293C75.1143 117.293 78.4798 109.943 81.0814 112.071C83.6831 114.199 74.1356 118.591 72.4589 129.556L70.8477 129.236Z" fill="#407BFF"/>
<path d="M85.5927 125.857V127.552C85.5927 128.096 85.3751 128.618 84.9879 129.002C84.6007 129.387 84.0756 129.603 83.528 129.603H59.4504C58.9028 129.603 58.3777 129.387 57.9905 129.002C57.6033 128.618 57.3857 128.096 57.3857 127.552V125.857H85.5927Z" fill="#171F71"/>
</g>
<defs>
<clipPath id="clip0_209_701">
<rect width="324" height="174" fill="white"/>
</clipPath>
</defs>
</svg>
